<svg width="19" height="19" viewBox="0 0 19 19" fill="none" xmlns="http://www.w3.org/2000/svg">
<g clip-path="url(#clip0_560_6650)">
<path d="M9.5 0C4.24333 0 0 4.24333 0 9.5C0 11.97 0.95 14.25 2.53333 15.8967L2.59667 16.0233L2.66 16.0867C4.43333 17.86 6.84 19 9.5 19C14.7567 19 19 14.7567 19 9.5C19 4.24333 14.7567 0 9.5 0ZM17.9867 6.84L16.4033 6.39667L14.5667 3.42V2.21667C16.15 3.35667 17.3533 4.94 17.9867 6.84ZM12.35 15.1367L10.1967 13.49L11.3367 10.45L14.63 10.1967L15.2 13.49L12.35 15.1367ZM9.56333 13.3L5.57333 13.9333L3.86333 10.7667L5.57333 7.6L8.42333 7.34667L10.7033 10.26L9.56333 13.3ZM7.34667 2.59667L10.0067 3.92667L8.36 6.65L5.57333 6.96667L4.49667 4.81333L7.34667 2.59667ZM13.9333 1.83667V3.16667L10.5133 3.42L7.6 2.02667V0.823333C8.23333 0.696667 8.86667 0.633333 9.5 0.633333C11.1467 0.633333 12.6667 1.07667 13.9333 1.83667ZM2.02667 4.75L3.92667 5.00333L5.06667 7.22L3.29333 10.3867L0.76 10.64C0.696667 10.3233 0.633333 9.94333 0.633333 9.5C0.633333 7.79 1.14 6.14333 2.02667 4.75ZM4.49667 16.7833L5.57333 14.5667L9.69 13.9967L11.97 15.7067L11.4 18.1767C10.7667 18.3033 10.1333 18.3667 9.43667 18.3667C7.6 18.3667 5.89 17.7967 4.49667 16.7833ZM17.48 13.3H17.4167H15.77L15.2 9.88L16.34 7.03L18.1767 7.53667C18.3033 8.17 18.43 8.80333 18.43 9.5C18.3667 10.8933 18.05 12.16 17.48 13.3Z" fill="#9BA7D6"/>
</g>
<defs>
<clipPath id="clip0_560_6650">
<rect width="19" height="19" fill="white"/>
</clipPath>
</defs>
</svg>
