<svg width="80" height="80" viewBox="0 0 80 80" fill="none" xmlns="http://www.w3.org/2000/svg">
<circle cx="40" cy="40" r="38" fill="#0C1126" fill-opacity="0.7" stroke="url(#paint0_linear_318_15535)" stroke-width="4"/>
<path d="M29.2399 46.18C28.3879 46.18 27.6619 46.054 27.0619 45.802C26.4619 45.55 25.9699 45.202 25.5859 44.758C25.2019 44.314 24.9139 43.804 24.7219 43.228C24.5299 42.64 24.4159 42.016 24.3799 41.356C24.3679 41.032 24.3559 40.678 24.3439 40.294C24.3439 39.898 24.3439 39.502 24.3439 39.106C24.3559 38.71 24.3679 38.344 24.3799 38.008C24.4039 37.348 24.5179 36.73 24.7219 36.154C24.9259 35.566 25.2199 35.056 25.6039 34.624C25.9999 34.192 26.4979 33.85 27.0979 33.598C27.6979 33.346 28.4119 33.22 29.2399 33.22C30.0799 33.22 30.7999 33.346 31.3999 33.598C31.9999 33.85 32.4919 34.192 32.8759 34.624C33.2719 35.056 33.5659 35.566 33.7579 36.154C33.9619 36.73 34.0759 37.348 34.0999 38.008C34.1239 38.344 34.1359 38.71 34.1359 39.106C34.1359 39.502 34.1359 39.898 34.1359 40.294C34.1359 40.678 34.1239 41.032 34.0999 41.356C34.0759 42.016 33.9679 42.64 33.7759 43.228C33.5839 43.804 33.2959 44.314 32.9119 44.758C32.5279 45.202 32.0299 45.55 31.4179 45.802C30.8179 46.054 30.0919 46.18 29.2399 46.18ZM29.2399 44.11C30.0199 44.11 30.5899 43.858 30.9499 43.354C31.3219 42.838 31.5139 42.142 31.5259 41.266C31.5499 40.918 31.5619 40.57 31.5619 40.222C31.5619 39.862 31.5619 39.502 31.5619 39.142C31.5619 38.782 31.5499 38.44 31.5259 38.116C31.5139 37.264 31.3219 36.58 30.9499 36.064C30.5899 35.536 30.0199 35.272 29.2399 35.272C28.4719 35.272 27.9019 35.536 27.5299 36.064C27.1699 36.58 26.9779 37.264 26.9539 38.116C26.9539 38.44 26.9479 38.782 26.9359 39.142C26.9359 39.502 26.9359 39.862 26.9359 40.222C26.9479 40.57 26.9539 40.918 26.9539 41.266C26.9779 42.142 27.1759 42.838 27.5479 43.354C27.9199 43.858 28.4839 44.11 29.2399 44.11ZM40.8453 39.7C40.7253 39.7 40.6233 39.658 40.5393 39.574C40.4553 39.49 40.4133 39.388 40.4133 39.268V37.558C40.4133 37.426 40.4553 37.318 40.5393 37.234C40.6233 37.15 40.7253 37.108 40.8453 37.108H42.6273C42.7593 37.108 42.8673 37.15 42.9513 37.234C43.0353 37.318 43.0773 37.426 43.0773 37.558V39.268C43.0773 39.388 43.0353 39.49 42.9513 39.574C42.8673 39.658 42.7593 39.7 42.6273 39.7H40.8453ZM40.8453 46C40.7253 46 40.6233 45.958 40.5393 45.874C40.4553 45.79 40.4133 45.688 40.4133 45.568V43.858C40.4133 43.726 40.4553 43.618 40.5393 43.534C40.6233 43.45 40.7253 43.408 40.8453 43.408H42.6273C42.7593 43.408 42.8673 43.45 42.9513 43.534C43.0353 43.618 43.0773 43.726 43.0773 43.858V45.568C43.0773 45.688 43.0353 45.79 42.9513 45.874C42.8673 45.958 42.7593 46 42.6273 46H40.8453ZM53.318 46C53.186 46 53.078 45.958 52.994 45.874C52.922 45.79 52.886 45.688 52.886 45.568V36.244L50.15 38.35C50.042 38.422 49.934 38.452 49.826 38.44C49.718 38.416 49.622 38.35 49.538 38.242L48.782 37.27C48.71 37.162 48.68 37.048 48.692 36.928C48.716 36.808 48.782 36.712 48.89 36.64L52.922 33.526C52.994 33.466 53.066 33.43 53.138 33.418C53.21 33.406 53.288 33.4 53.372 33.4H54.956C55.076 33.4 55.178 33.442 55.262 33.526C55.346 33.61 55.388 33.712 55.388 33.832V45.568C55.388 45.688 55.346 45.79 55.262 45.874C55.178 45.958 55.076 46 54.956 46H53.318Z" fill="white"/>
<defs>
<linearGradient id="paint0_linear_318_15535" x1="80" y1="40" x2="0" y2="40" gradientUnits="userSpaceOnUse">
<stop stop-color="#6FC35C"/>
<stop offset="0.503296" stop-color="#75CA60"/>
<stop offset="0.507067" stop-opacity="0"/>
<stop offset="1" stop-opacity="0"/>
</linearGradient>
</defs>
</svg>
