<svg width="149" height="47" viewBox="0 0 149 47" fill="none" xmlns="http://www.w3.org/2000/svg">
<rect x="0.5" y="0.5" width="148" height="46" rx="7.5" fill="#131930"/>
<path d="M39.77 24.3007C39.7807 23.4661 40.0024 22.6477 40.4145 21.9218C40.8265 21.1958 41.4154 20.5859 42.1265 20.1487C41.6748 19.5035 41.0788 18.9726 40.386 18.598C39.6932 18.2235 38.9226 18.0156 38.1354 17.991C36.4561 17.8147 34.8282 18.9958 33.9725 18.9958C33.1002 18.9958 31.7827 18.0085 30.364 18.0377C29.4463 18.0673 28.5519 18.3342 27.7681 18.8123C26.9842 19.2903 26.3375 19.9633 25.891 20.7656C23.957 24.114 25.3996 29.035 27.2522 31.7416C28.1791 33.067 29.2624 34.5474 30.6799 34.4949C32.0669 34.4374 32.585 33.6105 34.2593 33.6105C35.918 33.6105 36.4041 34.4949 37.8503 34.4616C39.3387 34.4374 40.2764 33.1303 41.1708 31.7924C41.8368 30.8481 42.3492 29.8043 42.6892 28.6999C41.8245 28.3342 41.0866 27.722 40.5675 26.9397C40.0483 26.1574 39.771 25.2396 39.77 24.3007Z" fill="white"/>
<path d="M37.0383 16.211C37.8499 15.2367 38.2497 13.9846 38.1529 12.7203C36.913 12.8506 35.7678 13.4431 34.9453 14.3799C34.5431 14.8376 34.2351 15.37 34.0389 15.9468C33.8427 16.5236 33.762 17.1334 33.8016 17.7413C34.4217 17.7477 35.0352 17.6133 35.5959 17.3482C36.1565 17.0831 36.6497 16.6943 37.0383 16.211Z" fill="white"/>
<path d="M57.3025 31.1397H52.5691L51.4324 34.4961H49.4275L53.9109 22.0781H55.9939L60.4773 34.4961H58.4382L57.3025 31.1397ZM53.0593 29.5908H56.8113L54.9617 24.1436H54.91L53.0593 29.5908Z" fill="white"/>
<path d="M70.1599 29.9697C70.1599 32.7832 68.6541 34.5908 66.3816 34.5908C65.8059 34.6209 65.2334 34.4883 64.7296 34.2082C64.2259 33.9281 63.8111 33.5117 63.533 33.0068H63.49V37.4912H61.6316V25.4424H63.4304V26.9483H63.4646C63.7556 26.4458 64.1773 26.0316 64.6849 25.7498C65.1925 25.4679 65.7671 25.3289 66.3474 25.3477C68.6452 25.3477 70.1599 27.1641 70.1599 29.9697ZM68.2498 29.9697C68.2498 28.1367 67.3025 26.9317 65.8572 26.9317C64.4373 26.9317 63.4822 28.1621 63.4822 29.9697C63.4822 31.794 64.4373 33.0156 65.8572 33.0156C67.3025 33.0156 68.2498 31.8194 68.2498 29.9697Z" fill="white"/>
<path d="M80.1248 29.9697C80.1248 32.7832 78.6189 34.5908 76.3464 34.5908C75.7708 34.6209 75.1983 34.4883 74.6945 34.2082C74.1907 33.9281 73.776 33.5117 73.4978 33.0068H73.4548V37.4912H71.5964V25.4424H73.3952V26.9483H73.4294C73.7204 26.4458 74.1421 26.0316 74.6497 25.7498C75.1574 25.4679 75.7319 25.329 76.3122 25.3477C78.6101 25.3477 80.1248 27.1641 80.1248 29.9697ZM78.2146 29.9697C78.2146 28.1367 77.2673 26.9317 75.822 26.9317C74.4021 26.9317 73.447 28.1621 73.447 29.9697C73.447 31.794 74.4021 33.0156 75.822 33.0156C77.2673 33.0156 78.2146 31.8194 78.2146 29.9697Z" fill="white"/>
<path d="M86.7107 31.0361C86.8484 32.2676 88.0447 33.0761 89.6795 33.0761C91.2459 33.0761 92.3728 32.2676 92.3728 31.1572C92.3728 30.1933 91.6931 29.6162 90.0837 29.2207L88.4744 28.833C86.1941 28.2822 85.1355 27.2158 85.1355 25.4853C85.1355 23.3427 87.0027 21.8711 89.6541 21.8711C92.2781 21.8711 94.0769 23.3427 94.1375 25.4853H92.2615C92.1492 24.2461 91.1247 23.498 89.6277 23.498C88.1306 23.498 87.1062 24.2549 87.1062 25.3564C87.1062 26.2343 87.7605 26.7509 89.3611 27.1464L90.7292 27.4824C93.2771 28.0849 94.3357 29.1084 94.3357 30.9247C94.3357 33.248 92.4851 34.7031 89.5417 34.7031C86.7878 34.7031 84.9284 33.2822 84.8083 31.0361L86.7107 31.0361Z" fill="white"/>
<path d="M98.3464 23.2998V25.4424H100.068V26.9141H98.3464V31.9053C98.3464 32.6807 98.6912 33.042 99.448 33.042C99.6524 33.0384 99.8564 33.0241 100.059 32.999V34.4619C99.7191 34.5255 99.3732 34.5543 99.0271 34.5478C97.1941 34.5478 96.4792 33.8594 96.4792 32.1035V26.9141H95.1628V25.4424H96.4792V23.2998H98.3464Z" fill="white"/>
<path d="M101.065 29.9697C101.065 27.1211 102.743 25.3311 105.359 25.3311C107.984 25.3311 109.654 27.1211 109.654 29.9697C109.654 32.8262 107.993 34.6084 105.359 34.6084C102.726 34.6084 101.065 32.8262 101.065 29.9697ZM107.761 29.9697C107.761 28.0156 106.865 26.8623 105.359 26.8623C103.853 26.8623 102.959 28.0244 102.959 29.9697C102.959 31.9317 103.853 33.0762 105.359 33.0762C106.865 33.0762 107.761 31.9317 107.761 29.9697Z" fill="white"/>
<path d="M111.186 25.4424H112.959V26.9834H113.002C113.122 26.5021 113.404 26.0768 113.8 25.7789C114.197 25.481 114.684 25.3287 115.179 25.3477C115.394 25.3469 115.607 25.3702 115.816 25.417V27.1553C115.546 27.0727 115.264 27.0347 114.981 27.043C114.711 27.032 114.442 27.0796 114.192 27.1825C113.942 27.2854 113.718 27.4411 113.534 27.639C113.35 27.8369 113.211 28.0723 113.126 28.3289C113.042 28.5856 113.014 28.8575 113.045 29.126V34.4961H111.186L111.186 25.4424Z" fill="white"/>
<path d="M124.385 31.8369C124.135 33.4805 122.534 34.6084 120.486 34.6084C117.852 34.6084 116.218 32.8438 116.218 30.0127C116.218 27.1729 117.861 25.3311 120.408 25.3311C122.913 25.3311 124.488 27.0518 124.488 29.7969V30.4336H118.094V30.5459C118.064 30.8791 118.106 31.2148 118.216 31.5306C118.326 31.8464 118.502 32.1352 118.733 32.3778C118.963 32.6203 119.242 32.8111 119.552 32.9374C119.862 33.0637 120.195 33.1227 120.529 33.1104C120.968 33.1515 121.409 33.0498 121.786 32.8203C122.162 32.5909 122.455 32.246 122.62 31.8369L124.385 31.8369ZM118.102 29.1348H122.629C122.645 28.8352 122.6 28.5354 122.495 28.2542C122.391 27.9729 122.229 27.7164 122.02 27.5006C121.812 27.2849 121.561 27.1145 121.284 27.0003C121.006 26.8861 120.708 26.8305 120.408 26.8369C120.105 26.8351 119.805 26.8933 119.525 27.008C119.245 27.1227 118.991 27.2918 118.776 27.5054C118.562 27.7191 118.392 27.9731 118.276 28.2527C118.161 28.5324 118.102 28.8321 118.102 29.1348Z" fill="white"/>
<path d="M52.8264 12.731C53.216 12.7031 53.607 12.7619 53.9711 12.9033C54.3352 13.0448 54.6634 13.2653 54.932 13.5489C55.2006 13.8325 55.4029 14.1722 55.5243 14.5435C55.6457 14.9147 55.6832 15.3083 55.634 15.6959C55.634 17.6021 54.6038 18.6979 52.8264 18.6979H50.6711V12.731H52.8264ZM51.5979 17.854H52.7229C53.0013 17.8707 53.2799 17.825 53.5385 17.7204C53.797 17.6158 54.029 17.4548 54.2174 17.2493C54.4059 17.0437 54.5462 16.7987 54.6281 16.5321C54.7099 16.2655 54.7313 15.9839 54.6907 15.708C54.7284 15.4332 54.7048 15.1534 54.6217 14.8887C54.5386 14.6241 54.398 14.3811 54.2099 14.1771C54.0218 13.9732 53.791 13.8134 53.5339 13.7092C53.2768 13.6049 52.9999 13.5588 52.7229 13.5742H51.5979V17.854Z" fill="white"/>
<path d="M56.6809 16.4444C56.6526 16.1484 56.6865 15.8499 56.7803 15.5678C56.8741 15.2857 57.0259 15.0264 57.2258 14.8064C57.4258 14.5864 57.6695 14.4107 57.9413 14.2904C58.2132 14.1701 58.5072 14.108 58.8044 14.108C59.1017 14.108 59.3957 14.1701 59.6675 14.2904C59.9394 14.4107 60.1831 14.5864 60.3831 14.8064C60.583 15.0264 60.7348 15.2857 60.8286 15.5678C60.9224 15.8499 60.9563 16.1484 60.928 16.4444C60.9568 16.7406 60.9234 17.0396 60.8298 17.3221C60.7362 17.6046 60.5845 17.8644 60.3845 18.0848C60.1845 18.3053 59.9406 18.4814 59.6685 18.6019C59.3964 18.7225 59.1021 18.7847 58.8044 18.7847C58.5068 18.7847 58.2125 18.7225 57.9404 18.6019C57.6682 18.4814 57.4243 18.3053 57.2243 18.0848C57.0244 17.8644 56.8727 17.6046 56.7791 17.3221C56.6855 17.0396 56.6521 16.7406 56.6809 16.4444ZM60.0139 16.4444C60.0139 15.4683 59.5754 14.8975 58.8059 14.8975C58.0334 14.8975 57.5989 15.4683 57.5989 16.4444C57.5989 17.4283 58.0335 17.9947 58.8059 17.9947C59.5754 17.9946 60.0139 17.4243 60.0139 16.4444Z" fill="white"/>
<path d="M66.5735 18.6978H65.6516L64.721 15.3814H64.6506L63.7239 18.6978H62.8108L61.5696 14.1948H62.471L63.2776 17.6308H63.344L64.2698 14.1948H65.1223L66.0481 17.6308H66.1184L66.9211 14.1948H67.8098L66.5735 18.6978Z" fill="white"/>
<path d="M68.8538 14.1948H69.7092V14.9102H69.7756C69.8883 14.6532 70.0783 14.4379 70.3192 14.2941C70.56 14.1503 70.8398 14.0852 71.1194 14.1079C71.3385 14.0914 71.5585 14.1245 71.7631 14.2046C71.9677 14.2847 72.1516 14.4098 72.3013 14.5706C72.451 14.7315 72.5626 14.9239 72.6278 15.1337C72.693 15.3436 72.7101 15.5654 72.678 15.7827V18.6977H71.7893V16.0059C71.7893 15.2822 71.4749 14.9224 70.8176 14.9224C70.6689 14.9154 70.5204 14.9408 70.3823 14.9966C70.2443 15.0524 70.1199 15.1374 70.0178 15.2458C69.9157 15.3542 69.8382 15.4834 69.7906 15.6245C69.7431 15.7657 69.7267 15.9154 69.7424 16.0635V18.6978H68.8538L68.8538 14.1948Z" fill="white"/>
<path d="M74.094 12.437H74.9827V18.6978H74.094V12.437Z" fill="white"/>
<path d="M76.218 16.4444C76.1897 16.1484 76.2236 15.8498 76.3175 15.5677C76.4113 15.2857 76.5631 15.0263 76.7631 14.8063C76.963 14.5863 77.2068 14.4106 77.4786 14.2903C77.7505 14.17 78.0445 14.1079 78.3418 14.1079C78.6391 14.1079 78.9331 14.17 79.205 14.2903C79.4768 14.4106 79.7206 14.5863 79.9205 14.8063C80.1205 15.0263 80.2723 15.2857 80.3661 15.5677C80.46 15.8498 80.4939 16.1484 80.4656 16.4444C80.4944 16.7406 80.4609 17.0396 80.3673 17.3221C80.2737 17.6046 80.122 17.8644 79.922 18.0848C79.7219 18.3052 79.478 18.4814 79.2059 18.6019C78.9338 18.7224 78.6394 18.7847 78.3418 18.7847C78.0442 18.7847 77.7498 18.7224 77.4777 18.6019C77.2056 18.4814 76.9616 18.3052 76.7616 18.0848C76.5616 17.8644 76.4099 17.6046 76.3163 17.3221C76.2227 17.0396 76.1892 16.7406 76.218 16.4444ZM79.551 16.4444C79.551 15.4683 79.1125 14.8975 78.343 14.8975C77.5706 14.8975 77.136 15.4683 77.136 16.4444C77.136 17.4283 77.5706 17.9947 78.343 17.9947C79.1125 17.9946 79.551 17.4243 79.551 16.4444Z" fill="white"/>
<path d="M81.4011 17.4243C81.4011 16.6138 82.0046 16.1465 83.0759 16.0801L84.2957 16.0098V15.6211C84.2957 15.1455 83.9812 14.877 83.3738 14.877C82.8777 14.877 82.5339 15.0591 82.4353 15.3775H81.575C81.6658 14.604 82.3933 14.1079 83.4148 14.1079C84.5437 14.1079 85.1804 14.6699 85.1804 15.6211V18.6978H84.325V18.065H84.2546C84.1119 18.292 83.9115 18.477 83.6739 18.6012C83.4363 18.7254 83.1699 18.7843 82.9021 18.772C82.7131 18.7916 82.522 18.7715 82.3413 18.7128C82.1605 18.6541 81.994 18.5581 81.8526 18.4312C81.7112 18.3042 81.598 18.149 81.5202 17.9756C81.4424 17.8022 81.4019 17.6144 81.4011 17.4243ZM84.2957 17.0396V16.6631L83.196 16.7334C82.5759 16.7749 82.2947 16.9859 82.2947 17.3828C82.2947 17.7881 82.6462 18.0239 83.1297 18.0239C83.2713 18.0383 83.4144 18.024 83.5504 17.9819C83.6864 17.9398 83.8126 17.8708 83.9213 17.7789C84.0301 17.6871 84.1193 17.5743 84.1836 17.4473C84.2479 17.3203 84.286 17.1816 84.2957 17.0396Z" fill="white"/>
<path d="M86.3484 16.4444C86.3484 15.0215 87.0798 14.1201 88.2175 14.1201C88.4989 14.1072 88.7782 14.1746 89.0228 14.3145C89.2673 14.4544 89.4669 14.661 89.5984 14.9101H89.6648V12.437H90.5535V18.6978H89.7019V17.9863H89.6316C89.49 18.2338 89.2834 18.4378 89.0341 18.5763C88.7849 18.7148 88.5025 18.7825 88.2175 18.772C87.072 18.772 86.3484 17.8706 86.3484 16.4444ZM87.2664 16.4444C87.2664 17.3994 87.7166 17.9741 88.4695 17.9741C89.2185 17.9741 89.6814 17.3911 89.6814 16.4483C89.6814 15.5098 89.2137 14.9185 88.4695 14.9185C87.7214 14.9185 87.2664 15.4971 87.2664 16.4444Z" fill="white"/>
<path d="M94.2302 16.4444C94.2019 16.1484 94.2358 15.8499 94.3296 15.5678C94.4234 15.2857 94.5752 15.0264 94.7751 14.8064C94.9751 14.5864 95.2188 14.4107 95.4906 14.2904C95.7625 14.1701 96.0565 14.108 96.3538 14.108C96.651 14.108 96.945 14.1701 97.2169 14.2904C97.4887 14.4107 97.7324 14.5864 97.9324 14.8064C98.1323 15.0264 98.2841 15.2857 98.3779 15.5678C98.4717 15.8499 98.5056 16.1484 98.4773 16.4444C98.5061 16.7406 98.4727 17.0396 98.3791 17.3221C98.2855 17.6046 98.1338 17.8644 97.9338 18.0848C97.7339 18.3053 97.49 18.4814 97.2178 18.6019C96.9457 18.7225 96.6514 18.7847 96.3538 18.7847C96.0561 18.7847 95.7618 18.7225 95.4897 18.6019C95.2176 18.4814 94.9737 18.3053 94.7737 18.0848C94.5737 17.8644 94.422 17.6046 94.3284 17.3221C94.2348 17.0396 94.2014 16.7406 94.2302 16.4444ZM97.5632 16.4444C97.5632 15.4683 97.1247 14.8975 96.3552 14.8975C95.5828 14.8975 95.1482 15.4683 95.1482 16.4444C95.1482 17.4283 95.5828 17.9947 96.3552 17.9947C97.1248 17.9946 97.5632 17.4243 97.5632 16.4444Z" fill="white"/>
<path d="M99.6697 14.1948H100.525V14.9102H100.592C100.704 14.6532 100.894 14.4379 101.135 14.2941C101.376 14.1503 101.656 14.0852 101.935 14.1079C102.154 14.0914 102.374 14.1245 102.579 14.2046C102.784 14.2847 102.968 14.4098 103.117 14.5706C103.267 14.7315 103.379 14.9239 103.444 15.1337C103.509 15.3436 103.526 15.5654 103.494 15.7827V18.6977H102.605V16.0059C102.605 15.2822 102.291 14.9224 101.634 14.9224C101.485 14.9154 101.336 14.9408 101.198 14.9966C101.06 15.0524 100.936 15.1374 100.834 15.2458C100.732 15.3542 100.654 15.4834 100.607 15.6245C100.559 15.7657 100.543 15.9154 100.558 16.0635V18.6978H99.6697V14.1948Z" fill="white"/>
<path d="M108.515 13.0737V14.2153H109.491V14.9639H108.515V17.2793C108.515 17.751 108.71 17.9575 109.152 17.9575C109.265 17.9572 109.379 17.9503 109.491 17.937V18.6773C109.331 18.7058 109.17 18.721 109.008 18.7227C108.019 18.7227 107.626 18.375 107.626 17.5068V14.9638H106.911V14.2153H107.626V13.0737H108.515Z" fill="white"/>
<path d="M110.705 12.437H111.586V14.9185H111.656C111.774 14.6591 111.969 14.4425 112.215 14.2982C112.461 14.1539 112.745 14.0888 113.029 14.1118C113.247 14.1 113.465 14.1364 113.667 14.2184C113.869 14.3004 114.051 14.4261 114.199 14.5864C114.347 14.7468 114.458 14.9378 114.524 15.146C114.59 15.3541 114.609 15.5742 114.58 15.7905V18.6978H113.69V16.0098C113.69 15.2905 113.355 14.9263 112.727 14.9263C112.575 14.9137 112.421 14.9347 112.277 14.9878C112.133 15.0408 112.003 15.1247 111.895 15.2334C111.787 15.3421 111.704 15.4732 111.652 15.6173C111.6 15.7614 111.58 15.9152 111.594 16.0679V18.6977H110.705L110.705 12.437Z" fill="white"/>
<path d="M119.761 17.4819C119.641 17.8935 119.379 18.2495 119.022 18.4876C118.666 18.7258 118.237 18.8309 117.81 18.7847C117.514 18.7925 117.219 18.7357 116.946 18.6182C116.674 18.5006 116.43 18.3252 116.232 18.1041C116.034 17.8829 115.887 17.6214 115.8 17.3376C115.714 17.0537 115.69 16.7544 115.73 16.4605C115.691 16.1656 115.715 15.8656 115.802 15.581C115.888 15.2963 116.035 15.0335 116.232 14.8105C116.428 14.5874 116.671 14.4092 116.943 14.288C117.214 14.1668 117.509 14.1054 117.806 14.1079C119.059 14.1079 119.815 14.9639 119.815 16.3779V16.688H116.635V16.7378C116.622 16.9031 116.642 17.0694 116.696 17.2261C116.751 17.3829 116.837 17.5266 116.95 17.6481C117.063 17.7695 117.2 17.866 117.352 17.9314C117.505 17.9968 117.669 18.0297 117.835 18.0278C118.047 18.0533 118.263 18.0151 118.453 17.9178C118.644 17.8206 118.802 17.6689 118.906 17.4819L119.761 17.4819ZM116.635 16.0308H118.91C118.921 15.8796 118.901 15.7278 118.85 15.5851C118.799 15.4424 118.718 15.3119 118.614 15.2021C118.51 15.0922 118.383 15.0054 118.243 14.9472C118.104 14.8891 117.953 14.8608 117.801 14.8643C117.648 14.8623 117.495 14.8912 117.353 14.9491C117.211 15.0071 117.081 15.0929 116.973 15.2017C116.864 15.3104 116.778 15.4397 116.72 15.5821C116.662 15.7245 116.633 15.8771 116.635 16.0308Z" fill="white"/>
<rect x="0.5" y="0.5" width="148" height="46" rx="7.5" stroke="#1D2544"/>
</svg>
