<svg width="25" height="25" viewBox="0 0 25 25" fill="none" xmlns="http://www.w3.org/2000/svg">
<path d="M18.5536 5.71876V6.48959L14.8661 4.35418C13.4703 3.55209 11.5224 3.55209 10.137 4.35418L6.44946 6.50001V5.71876C6.44946 3.37501 7.73071 2.08334 10.0745 2.08334H14.9286C17.2724 2.08334 18.5536 3.37501 18.5536 5.71876Z" fill="#828DB9"/>
<path d="M18.5834 8.30028L18.4375 8.22737L17.0209 7.41487L14.0834 5.71695C13.1875 5.19612 11.8125 5.19612 10.9167 5.71695L7.97921 7.40445L6.56254 8.23778L6.37504 8.33153C4.55212 9.5607 4.42712 9.78987 4.42712 11.7586V16.467C4.42712 18.4357 4.55212 18.6649 6.41671 19.9253L10.9167 22.5191C11.3646 22.7899 11.9271 22.9045 12.5 22.9045C13.0625 22.9045 13.6355 22.7795 14.0834 22.5191L18.625 19.8941C20.4584 18.6649 20.573 18.4461 20.573 16.467V11.7586C20.573 9.78987 20.448 9.5607 18.5834 8.30028ZM15.4063 14.0607L14.7709 14.842C14.6667 14.9566 14.5938 15.1753 14.6042 15.3316L14.6667 16.3316C14.7084 16.9461 14.2709 17.2586 13.698 17.0399L12.7709 16.6649C12.625 16.6128 12.3855 16.6128 12.2396 16.6649L11.3125 17.0295C10.7396 17.2586 10.3021 16.9357 10.3438 16.3211L10.4063 15.3211C10.4167 15.1649 10.3438 14.9461 10.2396 14.8316L9.59379 14.0607C9.19796 13.592 9.37504 13.0711 9.96879 12.9149L10.9375 12.6649C11.0938 12.6232 11.2709 12.4774 11.3542 12.3524L11.8959 11.5191C12.2292 10.9982 12.7605 10.9982 13.1042 11.5191L13.6459 12.3524C13.7292 12.4878 13.9167 12.6232 14.0625 12.6649L15.0313 12.9149C15.625 13.0711 15.8021 13.592 15.4063 14.0607Z" fill="#828DB9"/>
</svg>
