<svg width="20" height="20" viewBox="0 0 20 20" fill="none" xmlns="http://www.w3.org/2000/svg">
<path fill-rule="evenodd" clip-rule="evenodd" d="M7.70679 14.707C7.51926 14.8945 7.26495 14.9998 6.99979 14.9998C6.73462 14.9998 6.48031 14.8945 6.29279 14.707L2.29279 10.707C2.10532 10.5195 2 10.2651 2 9.99998C2 9.73482 2.10532 9.48051 2.29279 9.29298L6.29279 5.29298C6.48139 5.11082 6.73399 5.01003 6.99619 5.01231C7.25838 5.01458 7.5092 5.11975 7.6946 5.30516C7.88001 5.49057 7.98518 5.74138 7.98746 6.00358C7.98974 6.26578 7.88894 6.51838 7.70679 6.70698L5.41379 8.99998H16.9998C17.265 8.99998 17.5194 9.10534 17.7069 9.29287C17.8944 9.48041 17.9998 9.73476 17.9998 9.99998C17.9998 10.2652 17.8944 10.5196 17.7069 10.7071C17.5194 10.8946 17.265 11 16.9998 11H5.41379L7.70679 13.293C7.89426 13.4805 7.99957 13.7348 7.99957 14C7.99957 14.2651 7.89426 14.5195 7.70679 14.707Z" fill="#1EA0FF"/>
</svg>
