<svg width="20" height="20" viewBox="0 0 20 20" fill="none" xmlns="http://www.w3.org/2000/svg">
<g clip-path="url(#clip0_300_7882)">
<path d="M19.7557 2.25664L18.5773 1.07831L15.8332 3.82164V1.66664H14.1665V6.66664H19.1665V4.99997H17.0115L19.7557 2.25664Z" fill="#79CF64"/>
<path d="M13.3333 9.16667C12.4875 9.16667 11.1 9.3525 10 9.8175V7.5C10 5.62917 6.56583 5 5 5C3.43417 5 0 5.62917 0 7.5V15C0 16.8708 3.43417 17.5 5 17.5C5.85083 17.5 7.25083 17.3117 8.35333 16.8417C8.56417 18.575 11.8183 19.1667 13.3333 19.1667C14.8992 19.1667 18.3333 18.5375 18.3333 16.6667V11.6667C18.3333 9.79583 14.8992 9.16667 13.3333 9.16667ZM13.3333 10.8333C14.8208 10.8333 16.1983 11.3292 16.595 11.6667C16.1975 12.005 14.82 12.5 13.3333 12.5C11.8467 12.5 10.4683 12.005 10.0717 11.6667C10.4692 11.3292 11.8458 10.8333 13.3333 10.8333ZM16.6667 14.085C16.4242 14.4192 14.9475 15 13.3333 15C11.7192 15 10.2425 14.4192 10 14.085V13.5167C11.1 13.9808 12.4875 14.1667 13.3333 14.1667C14.1792 14.1667 15.5667 13.9808 16.6667 13.5175V14.085ZM1.66667 11.8508C2.76667 12.3142 4.15417 12.5 5 12.5C5.84583 12.5 7.23333 12.3142 8.33333 11.8508V12.4192C8.09083 12.7525 6.61417 13.3333 5 13.3333C3.38583 13.3333 1.90917 12.7525 1.66667 12.4183V11.8508ZM1.66667 9.35083C2.76667 9.81417 4.15417 10 5 10C5.84583 10 7.23333 9.81417 8.33333 9.35083V9.91917C8.09083 10.2525 6.61417 10.8333 5 10.8333C3.38583 10.8333 1.90917 10.2525 1.66667 9.91833V9.35083ZM5 6.66667C6.4875 6.66667 7.865 7.1625 8.26167 7.5C7.865 7.83833 6.48667 8.33333 5 8.33333C3.51333 8.33333 2.13583 7.83833 1.73833 7.5C2.13583 7.1625 3.5125 6.66667 5 6.66667ZM1.66667 14.9275V14.3508C2.76667 14.8142 4.15417 15 5 15C5.84583 15 7.23333 14.8142 8.33333 14.3508V14.9275C8.06833 15.2625 6.59667 15.8333 5 15.8333C3.40333 15.8333 1.93167 15.2625 1.66667 14.9275ZM13.3333 17.5C11.7367 17.5 10.265 16.9292 10 16.5942V16.0175C11.1 16.4808 12.4875 16.6667 13.3333 16.6667C14.1792 16.6667 15.5667 16.4808 16.6667 16.0175V16.5942C16.4017 16.9292 14.93 17.5 13.3333 17.5Z" fill="#79CF64"/>
</g>
<defs>
<clipPath id="clip0_300_7882">
<rect width="20" height="20" fill="white"/>
</clipPath>
</defs>
</svg>
