<svg width="20" height="20" viewBox="0 0 20 20" fill="none" xmlns="http://www.w3.org/2000/svg">
<g clip-path="url(#clip0_300_7889)">
<path d="M13.3333 9.99998C12.4875 9.99998 11.1 10.1858 10 10.6508V8.33331C10 6.46248 6.56583 5.83331 5 5.83331C3.43417 5.83331 0 6.46248 0 8.33331V15.8333C0 17.7041 3.43417 18.3333 5 18.3333C5.85083 18.3333 7.25083 18.145 8.35333 17.675C8.56417 19.4083 11.8183 20 13.3333 20C14.8992 20 18.3333 19.3708 18.3333 17.5V12.5C18.3333 10.6291 14.8992 9.99998 13.3333 9.99998ZM13.3333 11.6666C14.8208 11.6666 16.1983 12.1625 16.595 12.5C16.1975 12.8383 14.82 13.3333 13.3333 13.3333C11.8467 13.3333 10.4683 12.8383 10.0717 12.5C10.4692 12.1625 11.8458 11.6666 13.3333 11.6666ZM16.6667 14.9183C16.4242 15.2525 14.9475 15.8333 13.3333 15.8333C11.7192 15.8333 10.2425 15.2525 10 14.9183V14.35C11.1 14.8141 12.4875 15 13.3333 15C14.1792 15 15.5667 14.8141 16.6667 14.3508V14.9183ZM1.66667 12.6841C2.76667 13.1475 4.15417 13.3333 5 13.3333C5.84583 13.3333 7.23333 13.1475 8.33333 12.6841V13.2525C8.09083 13.5858 6.61417 14.1666 5 14.1666C3.38583 14.1666 1.90917 13.5858 1.66667 13.2516V12.6841ZM1.66667 10.1841C2.76667 10.6475 4.15417 10.8333 5 10.8333C5.84583 10.8333 7.23333 10.6475 8.33333 10.1841V10.7525C8.09083 11.0858 6.61417 11.6666 5 11.6666C3.38583 11.6666 1.90917 11.0858 1.66667 10.7516V10.1841ZM5 7.49998C6.4875 7.49998 7.865 7.99581 8.26167 8.33331C7.865 8.67165 6.48667 9.16665 5 9.16665C3.51333 9.16665 2.135 8.67165 1.73833 8.33331C2.13583 7.99581 3.5125 7.49998 5 7.49998ZM1.66667 15.7608V15.1841C2.76667 15.6475 4.15417 15.8333 5 15.8333C5.84583 15.8333 7.23333 15.6475 8.33333 15.1841V15.7608C8.06833 16.0958 6.59667 16.6666 5 16.6666C3.40333 16.6666 1.93167 16.0958 1.66667 15.7608ZM13.3333 18.3333C11.7367 18.3333 10.265 17.7625 10 17.4275V16.8508C11.1 17.3141 12.4875 17.5 13.3333 17.5C14.1792 17.5 15.5667 17.3141 16.6667 16.8508V17.4275C16.4017 17.7625 14.93 18.3333 13.3333 18.3333Z" fill="#E1597B"/>
<path d="M15.0001 0V1.66667H17.1551L13.5776 5.245L14.756 6.42333L18.3335 2.845V5H20.0001V0H15.0001Z" fill="#E1597B"/>
</g>
<defs>
<clipPath id="clip0_300_7889">
<rect width="20" height="20" fill="white"/>
</clipPath>
</defs>
</svg>
