<svg width="378" height="177" viewBox="0 0 378 177" fill="none" xmlns="http://www.w3.org/2000/svg">
<g filter="url(#filter0_d_605_5687)">
<rect width="378" height="160" rx="11" fill="white" fill-opacity="0.03" shape-rendering="crispEdges"/>
</g>
<g clip-path="url(#clip0_605_5687)">
<path d="M261.684 103.273C255.846 100.451 250.779 96.2567 246.916 91.0487C243.054 85.8407 240.511 79.7742 239.505 73.3686C238.5 66.963 239.061 60.4091 241.142 54.2681C243.223 48.1271 246.762 42.5818 251.454 38.1071C256.147 33.6324 261.854 30.3616 268.087 28.5747C274.32 26.7878 280.893 26.538 287.243 27.8467C293.594 29.1554 299.533 31.9837 304.551 36.0893C309.57 40.195 313.519 45.4557 316.06 51.4211L312.984 52.7302C310.654 47.2619 307.035 42.4396 302.434 38.6761C297.834 34.9126 292.39 32.3201 286.568 31.1206C280.747 29.921 274.721 30.1501 269.008 31.7882C263.294 33.4263 258.063 36.4247 253.761 40.5266C249.46 44.6285 246.217 49.7117 244.309 55.3411C242.402 60.9704 241.887 66.9782 242.809 72.85C243.731 78.7218 246.062 84.2827 249.603 89.0566C253.144 93.8306 257.789 97.6753 263.14 100.262L261.684 103.273Z" fill="url(#paint0_linear_605_5687)"/>
<path d="M272.789 74.8257C270.98 72.0711 268.363 69.9436 265.297 68.735C264.946 68.6367 264.636 68.4261 264.415 68.1354C264.195 67.8447 264.076 67.4899 264.076 67.125C264.076 66.7601 264.195 66.4053 264.415 66.1146C264.636 65.8239 264.946 65.6133 265.297 65.515C270.946 63.9267 276.092 54.7866 277.597 51.3993C277.728 51.1037 277.943 50.8525 278.214 50.6763C278.485 50.5 278.802 50.4062 279.125 50.4062C279.448 50.4062 279.765 50.5 280.036 50.6763C280.307 50.8525 280.522 51.1037 280.653 51.3993C282.262 54.8519 284.312 58.0811 286.752 61.0059L284.244 63.2095C282.283 60.9153 280.568 58.4223 279.125 55.7713C277.286 59.0866 273.93 64.2979 269.637 67.1217C271.879 68.6735 273.843 70.5924 275.447 72.7977L272.789 74.8257Z" fill="url(#paint1_linear_605_5687)"/>
<path d="M261.294 87.0671C258.511 84.577 256.279 81.5315 254.743 78.1266C253.208 74.7218 252.402 71.0331 252.379 67.2981C252.355 63.563 253.114 59.8645 254.606 56.4405C256.099 53.0165 258.292 49.943 261.044 47.418C263.796 44.8929 267.047 42.9722 270.586 41.7795C274.126 40.5868 277.876 40.1487 281.595 40.4932C285.315 40.8377 288.92 41.9572 292.181 43.7797C295.441 45.6023 298.283 48.0873 300.525 51.075L297.85 53.0812C295.888 50.4672 293.401 48.2929 290.548 46.6984C287.696 45.1038 284.54 44.1244 281.286 43.8231C278.032 43.5219 274.751 43.9054 271.654 44.9492C268.556 45.9929 265.712 47.6737 263.304 49.8832C260.896 52.0927 258.977 54.7821 257.672 57.7781C256.366 60.7741 255.702 64.0104 255.723 67.2785C255.744 70.5466 256.448 73.7742 257.792 76.7534C259.136 79.7325 261.089 82.3973 263.525 84.576L261.294 87.0671Z" fill="url(#paint2_linear_605_5687)"/>
<path d="M244.838 62.0977C244.207 62.0978 243.587 61.9287 243.043 61.6078L240.003 60.2987L241.341 57.2325L244.482 58.5917C244.566 58.628 244.646 58.6711 244.723 58.7205C244.761 58.7422 244.803 58.7548 244.846 58.7574C244.89 58.76 244.933 58.7525 244.974 58.7355C245.421 58.5563 245.781 58.2096 245.977 57.7692L252.094 45.9674C252.308 45.6528 252.422 45.2812 252.422 44.9008C252.422 44.5204 252.308 44.1487 252.094 43.8341C252.018 43.7841 251.947 43.7282 251.88 43.6669L249.586 41.6189L251.82 39.1311L254.022 41.1073C254.925 41.8787 255.525 42.9455 255.715 44.1177C255.905 45.29 255.673 46.4916 255.06 47.5089L248.943 59.3073C248.636 59.9416 248.201 60.5053 247.665 60.9629C247.129 61.4205 246.504 61.7619 245.83 61.9656C245.506 62.0527 245.173 62.0971 244.838 62.0977Z" fill="url(#paint3_linear_605_5687)"/>
<path d="M305.982 52.8455L303.213 47.5072C302.601 46.49 302.37 45.2885 302.56 44.1166C302.751 42.9447 303.351 41.8784 304.253 41.1073L306.455 39.1311L308.689 41.6189L306.402 43.6719C306.335 43.7332 306.263 43.7891 306.188 43.8391C305.974 44.1543 305.86 44.5261 305.86 44.9066C305.86 45.2872 305.974 45.659 306.188 45.9741L308.956 51.3124L305.982 52.8455Z" fill="url(#paint4_linear_605_5687)"/>
<path d="M251.82 95.1072L249.586 92.6194L251.873 90.5664C251.94 90.506 252.011 90.4501 252.086 90.3992C252.3 90.0844 252.415 89.7124 252.415 89.3317C252.415 88.9509 252.3 88.579 252.086 88.2642L245.975 76.4708C245.78 76.0296 245.42 75.6822 244.972 75.5028C244.813 75.4626 244.75 75.5028 244.721 75.5195C244.644 75.5677 244.564 75.6102 244.48 75.6465L241.341 77.0075L240.003 73.9396L243.038 72.6238C243.455 72.3828 243.917 72.2276 244.396 72.1673C244.874 72.107 245.36 72.1428 245.825 72.2727C246.499 72.4764 247.124 72.8178 247.66 73.2754C248.196 73.733 248.631 74.2967 248.938 74.931L255.055 86.7311C255.667 87.7482 255.899 88.9495 255.709 90.1214C255.519 91.2932 254.919 92.3597 254.017 93.131L251.82 95.1072Z" fill="url(#paint5_linear_605_5687)"/>
<path d="M285.813 37.0312H272.438C271.198 37.1119 269.976 36.701 269.037 35.8873C268.099 35.0737 267.518 33.9229 267.422 32.6844V28.6719H270.766V32.6844C270.766 33.1575 271.481 33.6875 272.438 33.6875H285.813C286.769 33.6875 287.484 33.1575 287.484 32.6844V28.6719H290.828V32.6844C290.732 33.9229 290.151 35.0737 289.213 35.8873C288.274 36.701 287.052 37.1119 285.813 37.0312Z" fill="url(#paint6_linear_605_5687)"/>
<path d="M245.688 65.4531H249.031V68.7969H245.688V65.4531Z" fill="url(#paint7_linear_605_5687)"/>
<path d="M260.734 92.2031H264.078V95.5469H260.734V92.2031Z" fill="url(#paint8_linear_605_5687)"/>
<path d="M294.172 38.7031H297.516V42.0469H294.172V38.7031Z" fill="url(#paint9_linear_605_5687)"/>
<path d="M260.734 38.7031H264.078V42.0469H260.734V38.7031Z" fill="url(#paint10_linear_605_5687)"/>
<path d="M307.547 105.578H299.188V102.234H307.547C308.434 102.234 309.284 101.882 309.911 101.255C310.538 100.628 310.891 99.7774 310.891 98.8906C310.891 98.0038 310.538 97.1533 309.911 96.5262C309.284 95.8992 308.434 95.5469 307.547 95.5469H304.203C302.429 95.5469 300.729 94.8423 299.474 93.5882C298.22 92.334 297.516 90.633 297.516 88.8594C297.516 87.0857 298.22 85.3848 299.474 84.1306C300.729 82.8764 302.429 82.1719 304.203 82.1719H312.563V85.5156H304.203C303.316 85.5156 302.466 85.8679 301.839 86.495C301.212 87.1221 300.859 87.9726 300.859 88.8594C300.859 89.7462 301.212 90.5967 301.839 91.2238C302.466 91.8508 303.316 92.2031 304.203 92.2031H307.547C309.321 92.2031 311.022 92.9077 312.276 94.1618C313.53 95.416 314.234 97.117 314.234 98.8906C314.234 100.664 313.53 102.365 312.276 103.619C311.022 104.874 309.321 105.578 307.547 105.578Z" fill="url(#paint11_linear_605_5687)"/>
<path d="M304.203 78.8281H307.547V108.922H304.203V78.8281Z" fill="url(#paint12_linear_605_5687)"/>
<path d="M305.875 134C297.939 134 290.181 131.647 283.583 127.238C276.984 122.829 271.841 116.562 268.804 109.23C265.767 101.898 264.973 93.8305 266.521 86.047C268.069 78.2635 271.891 71.1139 277.502 65.5023C283.114 59.8908 290.264 56.0692 298.047 54.521C305.83 52.9728 313.898 53.7674 321.23 56.8043C328.562 59.8413 334.829 64.9842 339.238 71.5827C343.647 78.1813 346 85.939 346 93.875C345.988 104.513 341.756 114.712 334.234 122.234C326.712 129.756 316.513 133.988 305.875 134ZM305.875 57.0937C298.6 57.0937 291.489 59.2509 285.44 63.2925C279.392 67.3341 274.677 73.0785 271.894 79.7994C269.11 86.5203 268.381 93.9158 269.8 101.051C271.22 108.186 274.723 114.739 279.867 119.883C285.011 125.027 291.564 128.53 298.699 129.949C305.834 131.369 313.23 130.64 319.951 127.856C326.671 125.073 332.416 120.358 336.457 114.31C340.499 108.261 342.656 101.15 342.656 93.875C342.645 84.1234 338.766 74.7744 331.871 67.8789C324.976 60.9835 315.627 57.1048 305.875 57.0937Z" fill="url(#paint13_linear_605_5687)"/>
<path d="M305.875 122.297C300.254 122.297 294.759 120.63 290.085 117.507C285.411 114.384 281.768 109.945 279.617 104.752C277.465 99.5582 276.903 93.8435 277.999 88.3302C279.096 82.8169 281.803 77.7526 285.778 73.7777C289.753 69.8028 294.817 67.0959 300.33 65.9992C305.843 64.9026 311.558 65.4654 316.752 67.6166C321.945 69.7678 326.384 73.4107 329.507 78.0846C332.63 82.7586 334.297 88.2537 334.297 93.875C334.288 101.41 331.291 108.635 325.963 113.963C320.635 119.291 313.41 122.288 305.875 122.297ZM305.875 68.7969C300.915 68.7969 296.066 70.2677 291.942 73.0233C287.818 75.7789 284.604 79.6956 282.706 84.278C280.808 88.8604 280.311 93.9028 281.279 98.7675C282.246 103.632 284.635 108.101 288.142 111.608C291.649 115.115 296.118 117.504 300.983 118.471C305.847 119.439 310.89 118.942 315.472 117.044C320.054 115.146 323.971 111.932 326.727 107.808C329.482 103.684 330.953 98.835 330.953 93.875C330.946 87.2262 328.301 80.8518 323.6 76.1504C318.898 71.449 312.524 68.8044 305.875 68.7969Z" fill="url(#paint14_linear_605_5687)"/>
<path d="M304.203 120.625H307.547V132.328H304.203V120.625Z" fill="url(#paint15_linear_605_5687)"/>
<path d="M304.203 55.4219H307.547V67.125H304.203V55.4219Z" fill="url(#paint16_linear_605_5687)"/>
<path d="M267.422 92.2031H279.125V95.5469H267.422V92.2031Z" fill="url(#paint17_linear_605_5687)"/>
<path d="M332.625 92.2031H344.328V95.5469H332.625V92.2031Z" fill="url(#paint18_linear_605_5687)"/>
<path d="M277.099 67.4752L279.463 65.1111L287.857 73.5058L285.493 75.8698L277.099 67.4752Z" fill="url(#paint19_linear_605_5687)"/>
<path d="M323.864 114.254L326.228 111.89L334.623 120.285L332.259 122.649L323.864 114.254Z" fill="url(#paint20_linear_605_5687)"/>
<path d="M323.868 73.5067L332.263 65.1121L334.627 67.4761L326.232 75.8708L323.868 73.5067Z" fill="url(#paint21_linear_605_5687)"/>
<path d="M277.094 120.274L285.489 111.879L287.853 114.243L279.458 122.638L277.094 120.274Z" fill="url(#paint22_linear_605_5687)"/>
<path d="M329.281 52.0781C328.969 52.0798 328.663 51.9941 328.397 51.8307C328.131 51.6673 327.916 51.4328 327.777 51.1536L325.24 46.0794L320.175 43.5415C319.897 43.4027 319.663 43.1893 319.5 42.9251C319.337 42.661 319.25 42.3566 319.25 42.046C319.25 41.7355 319.337 41.4311 319.5 41.167C319.663 40.9028 319.897 40.6894 320.175 40.5505L325.249 38.0126L327.785 32.9385C327.94 32.6798 328.159 32.4657 328.421 32.317C328.683 32.1683 328.98 32.0901 329.281 32.0901C329.583 32.0901 329.879 32.1683 330.141 32.317C330.404 32.4657 330.623 32.6798 330.778 32.9385L333.314 38.0126L338.388 40.5505C338.666 40.6894 338.899 40.9028 339.063 41.167C339.226 41.4311 339.312 41.7355 339.312 42.046C339.312 42.3566 339.226 42.661 339.063 42.9251C338.899 43.1893 338.666 43.4027 338.388 43.5415L333.314 46.0794L330.786 51.1536C330.646 51.4328 330.432 51.6673 330.166 51.8307C329.9 51.9941 329.593 52.0798 329.281 52.0781ZM324.659 42.0469L327.242 43.3376C327.566 43.499 327.828 43.7613 327.991 44.0849L329.281 46.6679L330.572 44.0849C330.734 43.7613 330.997 43.499 331.321 43.3376L333.904 42.0469L331.321 40.7562C330.997 40.5943 330.734 40.3314 330.572 40.0072L329.281 37.4241L327.991 40.0072C327.829 40.3314 327.566 40.5943 327.242 40.7562L324.659 42.0469Z" fill="url(#paint23_linear_605_5687)"/>
<path d="M255.719 128.984C255.408 128.985 255.103 128.898 254.839 128.735C254.575 128.571 254.361 128.338 254.222 128.06L251.686 122.986L246.612 120.448C246.334 120.309 246.101 120.096 245.937 119.831C245.774 119.567 245.688 119.263 245.688 118.952C245.688 118.642 245.774 118.337 245.937 118.073C246.101 117.809 246.334 117.596 246.612 117.457L251.686 114.919L254.222 109.845C254.377 109.586 254.596 109.372 254.859 109.223C255.121 109.075 255.417 108.996 255.719 108.996C256.02 108.996 256.317 109.075 256.579 109.223C256.841 109.372 257.06 109.586 257.215 109.845L259.751 114.919L264.825 117.457C265.103 117.596 265.337 117.809 265.5 118.073C265.663 118.337 265.75 118.642 265.75 118.952C265.75 119.263 265.663 119.567 265.5 119.831C265.337 120.096 265.103 120.309 264.825 120.448L259.751 122.986L257.223 128.06C257.084 128.339 256.869 128.574 256.603 128.737C256.337 128.9 256.031 128.986 255.719 128.984ZM251.096 118.953L253.679 120.244C254.003 120.405 254.266 120.668 254.428 120.991L255.719 123.574L257.009 120.991C257.172 120.668 257.434 120.405 257.758 120.244L260.341 118.953L257.758 117.662C257.434 117.501 257.171 117.238 257.009 116.913L255.719 114.33L254.428 116.913C254.266 117.238 254.003 117.501 253.679 117.662L251.096 118.953Z" fill="url(#paint24_linear_605_5687)"/>
</g>
<path d="M70.6004 76C70.4671 76 70.3537 75.96 70.2604 75.88C70.1804 75.7867 70.1404 75.6733 70.1404 75.54V62.48C70.1404 62.3333 70.1804 62.22 70.2604 62.14C70.3537 62.0467 70.4671 62 70.6004 62H71.6004C71.7604 62 71.8804 62.04 71.9604 62.12C72.0404 62.2 72.0871 62.2667 72.1004 62.32L76.3404 70.4L80.6004 62.32C80.6271 62.2667 80.6737 62.2 80.7404 62.12C80.8204 62.04 80.9404 62 81.1004 62H82.0804C82.2271 62 82.3404 62.0467 82.4204 62.14C82.5137 62.22 82.5604 62.3333 82.5604 62.48V75.54C82.5604 75.6733 82.5137 75.7867 82.4204 75.88C82.3404 75.96 82.2271 76 82.0804 76H81.1004C80.9671 76 80.8537 75.96 80.7604 75.88C80.6804 75.7867 80.6404 75.6733 80.6404 75.54V65.7L77.3004 72.22C77.2471 72.3533 77.1671 72.46 77.0604 72.54C76.9537 72.6067 76.8204 72.64 76.6604 72.64H76.0404C75.8671 72.64 75.7271 72.6067 75.6204 72.54C75.5271 72.46 75.4471 72.3533 75.3804 72.22L72.0404 65.7V75.54C72.0404 75.6733 71.9937 75.7867 71.9004 75.88C71.8204 75.96 71.7137 76 71.5804 76H70.6004ZM89.8993 76.2C88.526 76.2 87.4326 75.78 86.6193 74.94C85.806 74.0867 85.3593 72.9267 85.2793 71.46C85.266 71.2867 85.2593 71.0667 85.2593 70.8C85.2593 70.52 85.266 70.2933 85.2793 70.12C85.3326 69.1733 85.5526 68.3467 85.9393 67.64C86.326 66.92 86.8526 66.3667 87.5193 65.98C88.1993 65.5933 88.9926 65.4 89.8993 65.4C90.9126 65.4 91.7593 65.6133 92.4393 66.04C93.1326 66.4667 93.6593 67.0733 94.0193 67.86C94.3793 68.6467 94.5593 69.5667 94.5593 70.62V70.96C94.5593 71.1067 94.5126 71.22 94.4193 71.3C94.3393 71.38 94.2326 71.42 94.0993 71.42H87.1793C87.1793 71.4333 87.1793 71.46 87.1793 71.5C87.1793 71.54 87.1793 71.5733 87.1793 71.6C87.206 72.1467 87.326 72.66 87.5393 73.14C87.7526 73.6067 88.0593 73.9867 88.4593 74.28C88.8593 74.5733 89.3393 74.72 89.8993 74.72C90.3793 74.72 90.7793 74.6467 91.0993 74.5C91.4193 74.3533 91.6793 74.1933 91.8793 74.02C92.0793 73.8333 92.2126 73.6933 92.2793 73.6C92.3993 73.4267 92.4926 73.3267 92.5593 73.3C92.626 73.26 92.7326 73.24 92.8793 73.24H93.8393C93.9726 73.24 94.0793 73.28 94.1593 73.36C94.2526 73.4267 94.2926 73.5267 94.2793 73.66C94.266 73.86 94.1593 74.1067 93.9593 74.4C93.7593 74.68 93.4726 74.96 93.0993 75.24C92.726 75.52 92.2726 75.7533 91.7393 75.94C91.206 76.1133 90.5926 76.2 89.8993 76.2ZM87.1793 70.04H92.6593V69.98C92.6593 69.38 92.546 68.8467 92.3193 68.38C92.106 67.9133 91.7926 67.5467 91.3793 67.28C90.966 67 90.4726 66.86 89.8993 66.86C89.326 66.86 88.8326 67 88.4193 67.28C88.0193 67.5467 87.7126 67.9133 87.4993 68.38C87.286 68.8467 87.1793 69.38 87.1793 69.98V70.04ZM101.151 76.2C100.204 76.2 99.384 76.02 98.6907 75.66C98.0107 75.2867 97.484 74.76 97.1107 74.08C96.7374 73.3867 96.5374 72.56 96.5107 71.6C96.4974 71.4 96.4907 71.1333 96.4907 70.8C96.4907 70.4667 96.4974 70.2 96.5107 70C96.5374 69.04 96.7374 68.22 97.1107 67.54C97.484 66.8467 98.0107 66.32 98.6907 65.96C99.384 65.5867 100.204 65.4 101.151 65.4C101.924 65.4 102.584 65.5067 103.131 65.72C103.691 65.9333 104.151 66.2067 104.511 66.54C104.871 66.8733 105.137 67.2333 105.311 67.62C105.497 68.0067 105.597 68.3733 105.611 68.72C105.624 68.8533 105.584 68.96 105.491 69.04C105.397 69.12 105.284 69.16 105.151 69.16H104.191C104.057 69.16 103.957 69.1333 103.891 69.08C103.824 69.0133 103.757 68.9067 103.691 68.76C103.451 68.1067 103.124 67.6467 102.711 67.38C102.297 67.1133 101.784 66.98 101.171 66.98C100.371 66.98 99.7174 67.2267 99.2107 67.72C98.7174 68.2133 98.4507 69.0067 98.4107 70.1C98.3974 70.58 98.3974 71.0467 98.4107 71.5C98.4507 72.6067 98.7174 73.4067 99.2107 73.9C99.7174 74.38 100.371 74.62 101.171 74.62C101.784 74.62 102.297 74.4867 102.711 74.22C103.124 73.9533 103.451 73.4933 103.691 72.84C103.757 72.6933 103.824 72.5933 103.891 72.54C103.957 72.4733 104.057 72.44 104.191 72.44H105.151C105.284 72.44 105.397 72.48 105.491 72.56C105.584 72.64 105.624 72.7467 105.611 72.88C105.597 73.16 105.537 73.4467 105.431 73.74C105.324 74.0333 105.151 74.3333 104.911 74.64C104.684 74.9333 104.397 75.2 104.051 75.44C103.704 75.6667 103.284 75.8533 102.791 76C102.311 76.1333 101.764 76.2 101.151 76.2ZM111.166 76C111.033 76 110.919 75.96 110.826 75.88C110.746 75.7867 110.706 75.6733 110.706 75.54V67.2H107.226C107.093 67.2 106.979 67.16 106.886 67.08C106.806 66.9867 106.766 66.8733 106.766 66.74V66.06C106.766 65.9267 106.806 65.82 106.886 65.74C106.979 65.6467 107.093 65.6 107.226 65.6H116.026C116.159 65.6 116.266 65.6467 116.346 65.74C116.439 65.82 116.486 65.9267 116.486 66.06V66.74C116.486 66.8733 116.439 66.9867 116.346 67.08C116.266 67.16 116.159 67.2 116.026 67.2H112.546V75.54C112.546 75.6733 112.506 75.7867 112.426 75.88C112.346 75.96 112.233 76 112.086 76H111.166ZM122.48 76.2C121.467 76.2 120.62 76.0067 119.94 75.62C119.26 75.2333 118.74 74.7 118.38 74.02C118.02 73.3267 117.82 72.54 117.78 71.66C117.767 71.4333 117.76 71.1467 117.76 70.8C117.76 70.44 117.767 70.1533 117.78 69.94C117.82 69.0467 118.02 68.26 118.38 67.58C118.754 66.9 119.28 66.3667 119.96 65.98C120.64 65.5933 121.48 65.4 122.48 65.4C123.48 65.4 124.32 65.5933 125 65.98C125.68 66.3667 126.2 66.9 126.56 67.58C126.934 68.26 127.14 69.0467 127.18 69.94C127.194 70.1533 127.2 70.44 127.2 70.8C127.2 71.1467 127.194 71.4333 127.18 71.66C127.14 72.54 126.94 73.3267 126.58 74.02C126.22 74.7 125.7 75.2333 125.02 75.62C124.34 76.0067 123.494 76.2 122.48 76.2ZM122.48 74.66C123.307 74.66 123.967 74.4 124.46 73.88C124.954 73.3467 125.22 72.5733 125.26 71.56C125.274 71.36 125.28 71.1067 125.28 70.8C125.28 70.4933 125.274 70.24 125.26 70.04C125.22 69.0267 124.954 68.26 124.46 67.74C123.967 67.2067 123.307 66.94 122.48 66.94C121.654 66.94 120.987 67.2067 120.48 67.74C119.987 68.26 119.727 69.0267 119.7 70.04C119.687 70.24 119.68 70.4933 119.68 70.8C119.68 71.1067 119.687 71.36 119.7 71.56C119.727 72.5733 119.987 73.3467 120.48 73.88C120.987 74.4 121.654 74.66 122.48 74.66ZM134.007 78.2C133.874 78.2 133.76 78.1533 133.667 78.06C133.587 77.98 133.547 77.8733 133.547 77.74V74.86C133.547 74.7267 133.587 74.62 133.667 74.54C133.76 74.4467 133.874 74.4 134.007 74.4H134.107C134.467 74.3867 134.774 74.1867 135.027 73.8C135.28 73.4 135.474 72.78 135.607 71.94C135.74 71.0867 135.807 69.98 135.807 68.62V66.06C135.807 65.9267 135.847 65.82 135.927 65.74C136.02 65.6467 136.134 65.6 136.267 65.6H142.647C142.78 65.6 142.887 65.6467 142.967 65.74C143.06 65.82 143.107 65.9267 143.107 66.06V74.36H144.047C144.194 74.36 144.307 74.4067 144.387 74.5C144.467 74.58 144.507 74.6867 144.507 74.82V77.74C144.507 77.8733 144.467 77.98 144.387 78.06C144.307 78.1533 144.194 78.2 144.047 78.2H143.107C142.974 78.2 142.86 78.1533 142.767 78.06C142.687 77.98 142.647 77.8733 142.647 77.74V76H135.407V77.74C135.407 77.8733 135.36 77.98 135.267 78.06C135.187 78.1533 135.08 78.2 134.947 78.2H134.007ZM136.487 74.4L141.247 74.36V67.2H137.627V68.84C137.627 70.2533 137.527 71.4133 137.327 72.32C137.127 73.2133 136.847 73.9067 136.487 74.4ZM146.099 76C145.966 76 145.852 75.9533 145.759 75.86C145.666 75.7667 145.619 75.6533 145.619 75.52V74.78C145.619 74.5 145.759 74.3533 146.039 74.34C146.452 74.3267 146.799 74.1333 147.079 73.76C147.359 73.3733 147.572 72.7667 147.719 71.94C147.866 71.1 147.939 69.9933 147.939 68.62V66.06C147.939 65.9267 147.979 65.82 148.059 65.74C148.152 65.6467 148.266 65.6 148.399 65.6H154.759C154.892 65.6 154.999 65.6467 155.079 65.74C155.172 65.82 155.219 65.9267 155.219 66.06V75.54C155.219 75.6733 155.172 75.7867 155.079 75.88C154.999 75.96 154.892 76 154.759 76H153.799C153.666 76 153.559 75.96 153.479 75.88C153.399 75.7867 153.359 75.6733 153.359 75.54V67.2H149.759V68.84C149.759 70.12 149.686 71.22 149.539 72.14C149.392 73.0467 149.166 73.7867 148.859 74.36C148.566 74.92 148.186 75.3333 147.719 75.6C147.266 75.8667 146.726 76 146.099 76ZM164.681 76C164.534 76 164.421 75.96 164.341 75.88C164.261 75.7867 164.221 75.6733 164.221 75.54V72.28H161.921V72.18C160.667 72.18 159.734 71.8733 159.121 71.26C158.521 70.6333 158.221 69.84 158.221 68.88C158.221 67.76 158.547 66.9333 159.201 66.4C159.867 65.8667 160.867 65.6 162.201 65.6H165.641C165.774 65.6 165.881 65.6467 165.961 65.74C166.054 65.82 166.101 65.9267 166.101 66.06V75.54C166.101 75.6733 166.054 75.7867 165.961 75.88C165.881 75.96 165.774 76 165.641 76H164.681ZM158.341 76C158.221 76 158.121 75.96 158.041 75.88C157.961 75.8 157.921 75.7067 157.921 75.6C157.921 75.5467 157.927 75.4933 157.941 75.44C157.967 75.3733 158.007 75.3067 158.061 75.24L160.441 71.72L162.361 71.86L159.821 75.7C159.767 75.7667 159.694 75.8333 159.601 75.9C159.507 75.9667 159.407 76 159.301 76H158.341ZM161.981 70.78H164.241V67.1H162.141C161.394 67.1 160.841 67.2333 160.481 67.5C160.134 67.7533 159.961 68.2133 159.961 68.88C159.961 69.4267 160.121 69.88 160.441 70.24C160.774 70.6 161.287 70.78 161.981 70.78ZM83.2941 100.2C82.2674 100.2 81.4074 100.007 80.7141 99.62C80.0341 99.22 79.5141 98.66 79.1541 97.94C78.8074 97.2067 78.6207 96.36 78.5941 95.4C78.5807 95 78.5741 94.6 78.5741 94.2C78.5741 93.8 78.5807 93.4 78.5941 93C78.5941 91.7867 78.6941 90.78 78.8941 89.98C79.0941 89.18 79.3941 88.5267 79.7941 88.02C80.2074 87.5 80.7274 87.0733 81.3541 86.74C81.9807 86.4067 82.7207 86.12 83.5741 85.88C84.4274 85.6267 85.4007 85.36 86.4941 85.08C86.6141 85.0533 86.7274 85.0733 86.8341 85.14C86.9541 85.2067 87.0207 85.3 87.0341 85.42L87.1941 86.24C87.2207 86.36 87.2007 86.4667 87.1341 86.56C87.0807 86.6533 86.9941 86.7133 86.8741 86.74C85.8741 86.9933 85.0007 87.2133 84.2541 87.4C83.5074 87.5867 82.8807 87.8067 82.3741 88.06C81.8674 88.3 81.4607 88.6133 81.1541 89C80.8474 89.3867 80.6341 89.9 80.5141 90.54C80.4074 91.18 80.3741 92 80.4141 93L79.9741 92.82C80.0407 92.3267 80.2474 91.88 80.5941 91.48C80.9541 91.0667 81.4007 90.7333 81.9341 90.48C82.4674 90.2267 83.0341 90.1 83.6341 90.1C84.5541 90.1 85.3274 90.2933 85.9541 90.68C86.5941 91.0667 87.0807 91.5933 87.4141 92.26C87.7607 92.9267 87.9541 93.6933 87.9941 94.56C88.0207 95.0133 88.0207 95.4067 87.9941 95.74C87.9541 96.6067 87.7541 97.38 87.3941 98.06C87.0341 98.7267 86.5141 99.2533 85.8341 99.64C85.1541 100.013 84.3074 100.2 83.2941 100.2ZM83.2941 98.72C84.1341 98.72 84.8007 98.46 85.2941 97.94C85.7874 97.42 86.0474 96.66 86.0741 95.66C86.0874 95.5267 86.0941 95.3733 86.0941 95.2C86.0941 95.0267 86.0874 94.8467 86.0741 94.66C86.0474 93.6467 85.7874 92.88 85.2941 92.36C84.8141 91.84 84.2074 91.58 83.4741 91.58C82.6341 91.58 81.9407 91.84 81.3941 92.36C80.8474 92.88 80.5541 93.6467 80.5141 94.66C80.5007 94.8467 80.4941 95.0267 80.4941 95.2C80.4941 95.3733 80.5007 95.5267 80.5141 95.66C80.5541 96.66 80.8207 97.42 81.3141 97.94C81.8074 98.46 82.4674 98.72 83.2941 98.72ZM93.4152 100.2C92.7485 100.2 92.1418 100.067 91.5952 99.8C91.0485 99.5333 90.6085 99.1733 90.2752 98.72C89.9418 98.2667 89.7752 97.7533 89.7752 97.18C89.7752 96.26 90.1485 95.5267 90.8952 94.98C91.6418 94.4333 92.6152 94.0733 93.8152 93.9L96.7952 93.48V92.9C96.7952 92.26 96.6085 91.76 96.2352 91.4C95.8752 91.04 95.2818 90.86 94.4552 90.86C93.8552 90.86 93.3685 90.98 92.9952 91.22C92.6352 91.46 92.3818 91.7667 92.2352 92.14C92.1552 92.34 92.0152 92.44 91.8152 92.44H90.9152C90.7685 92.44 90.6552 92.4 90.5752 92.32C90.5085 92.2267 90.4752 92.12 90.4752 92C90.4752 91.8 90.5485 91.5533 90.6952 91.26C90.8552 90.9667 91.0952 90.68 91.4152 90.4C91.7352 90.12 92.1418 89.8867 92.6352 89.7C93.1418 89.5 93.7552 89.4 94.4752 89.4C95.2752 89.4 95.9485 89.5067 96.4952 89.72C97.0418 89.92 97.4685 90.1933 97.7752 90.54C98.0952 90.8867 98.3218 91.28 98.4552 91.72C98.6018 92.16 98.6752 92.6067 98.6752 93.06V99.54C98.6752 99.6733 98.6285 99.7867 98.5352 99.88C98.4552 99.96 98.3485 100 98.2152 100H97.2952C97.1485 100 97.0352 99.96 96.9552 99.88C96.8752 99.7867 96.8352 99.6733 96.8352 99.54V98.68C96.6618 98.92 96.4285 99.16 96.1352 99.4C95.8418 99.6267 95.4752 99.82 95.0352 99.98C94.5952 100.127 94.0552 100.2 93.4152 100.2ZM93.8352 98.7C94.3818 98.7 94.8818 98.5867 95.3352 98.36C95.7885 98.12 96.1418 97.7533 96.3952 97.26C96.6618 96.7667 96.7952 96.1467 96.7952 95.4V94.84L94.4752 95.18C93.5285 95.3133 92.8152 95.54 92.3352 95.86C91.8552 96.1667 91.6152 96.56 91.6152 97.04C91.6152 97.4133 91.7218 97.7267 91.9352 97.98C92.1618 98.22 92.4418 98.4 92.7752 98.52C93.1218 98.64 93.4752 98.7 93.8352 98.7ZM102.01 100C101.877 100 101.764 99.96 101.67 99.88C101.59 99.7867 101.55 99.6733 101.55 99.54V90.06C101.55 89.9267 101.59 89.82 101.67 89.74C101.764 89.6467 101.877 89.6 102.01 89.6H102.97C103.104 89.6 103.21 89.6467 103.29 89.74C103.37 89.82 103.41 89.9267 103.41 90.06V93.9H108.87V90.06C108.87 89.9267 108.91 89.82 108.99 89.74C109.084 89.6467 109.197 89.6 109.33 89.6H110.27C110.404 89.6 110.51 89.6467 110.59 89.74C110.684 89.82 110.73 89.9267 110.73 90.06V99.54C110.73 99.6733 110.684 99.7867 110.59 99.88C110.51 99.96 110.404 100 110.27 100H109.33C109.197 100 109.084 99.96 108.99 99.88C108.91 99.7867 108.87 99.6733 108.87 99.54V95.5H103.41V99.54C103.41 99.6733 103.37 99.7867 103.29 99.88C103.21 99.96 103.104 100 102.97 100H102.01ZM114.198 100C114.064 100 113.951 99.96 113.858 99.88C113.778 99.7867 113.738 99.6733 113.738 99.54V90.06C113.738 89.9267 113.778 89.82 113.858 89.74C113.951 89.6467 114.064 89.6 114.198 89.6H115.158C115.291 89.6 115.398 89.6467 115.478 89.74C115.558 89.82 115.598 89.9267 115.598 90.06V93.9H121.058V90.06C121.058 89.9267 121.098 89.82 121.178 89.74C121.271 89.6467 121.384 89.6 121.518 89.6H122.458C122.591 89.6 122.698 89.6467 122.778 89.74C122.871 89.82 122.918 89.9267 122.918 90.06V99.54C122.918 99.6733 122.871 99.7867 122.778 99.88C122.698 99.96 122.591 100 122.458 100H121.518C121.384 100 121.271 99.96 121.178 99.88C121.098 99.7867 121.058 99.6733 121.058 99.54V95.5H115.598V99.54C115.598 99.6733 115.558 99.7867 115.478 99.88C115.398 99.96 115.291 100 115.158 100H114.198ZM130.065 100.2C128.692 100.2 127.599 99.78 126.785 98.94C125.972 98.0867 125.525 96.9267 125.445 95.46C125.432 95.2867 125.425 95.0667 125.425 94.8C125.425 94.52 125.432 94.2933 125.445 94.12C125.499 93.1733 125.719 92.3467 126.105 91.64C126.492 90.92 127.019 90.3667 127.685 89.98C128.365 89.5933 129.159 89.4 130.065 89.4C131.079 89.4 131.925 89.6133 132.605 90.04C133.299 90.4667 133.825 91.0733 134.185 91.86C134.545 92.6467 134.725 93.5667 134.725 94.62V94.96C134.725 95.1067 134.679 95.22 134.585 95.3C134.505 95.38 134.399 95.42 134.265 95.42H127.345C127.345 95.4333 127.345 95.46 127.345 95.5C127.345 95.54 127.345 95.5733 127.345 95.6C127.372 96.1467 127.492 96.66 127.705 97.14C127.919 97.6067 128.225 97.9867 128.625 98.28C129.025 98.5733 129.505 98.72 130.065 98.72C130.545 98.72 130.945 98.6467 131.265 98.5C131.585 98.3533 131.845 98.1933 132.045 98.02C132.245 97.8333 132.379 97.6933 132.445 97.6C132.565 97.4267 132.659 97.3267 132.725 97.3C132.792 97.26 132.899 97.24 133.045 97.24H134.005C134.139 97.24 134.245 97.28 134.325 97.36C134.419 97.4267 134.459 97.5267 134.445 97.66C134.432 97.86 134.325 98.1067 134.125 98.4C133.925 98.68 133.639 98.96 133.265 99.24C132.892 99.52 132.439 99.7533 131.905 99.94C131.372 100.113 130.759 100.2 130.065 100.2ZM127.345 94.04H132.825V93.98C132.825 93.38 132.712 92.8467 132.485 92.38C132.272 91.9133 131.959 91.5467 131.545 91.28C131.132 91 130.639 90.86 130.065 90.86C129.492 90.86 128.999 91 128.585 91.28C128.185 91.5467 127.879 91.9133 127.665 92.38C127.452 92.8467 127.345 93.38 127.345 93.98V94.04ZM137.597 103.8C137.463 103.8 137.35 103.753 137.257 103.66C137.177 103.58 137.137 103.473 137.137 103.34V90.06C137.137 89.9267 137.177 89.82 137.257 89.74C137.35 89.6467 137.463 89.6 137.597 89.6H138.517C138.65 89.6 138.757 89.6467 138.837 89.74C138.93 89.82 138.977 89.9267 138.977 90.06V90.94C139.297 90.5 139.723 90.1333 140.257 89.84C140.79 89.5467 141.457 89.4 142.257 89.4C143.003 89.4 143.637 89.5267 144.157 89.78C144.69 90.0333 145.123 90.38 145.457 90.82C145.803 91.26 146.063 91.76 146.237 92.32C146.41 92.88 146.503 93.48 146.517 94.12C146.53 94.3333 146.537 94.56 146.537 94.8C146.537 95.04 146.53 95.2667 146.517 95.48C146.503 96.1067 146.41 96.7067 146.237 97.28C146.063 97.84 145.803 98.34 145.457 98.78C145.123 99.2067 144.69 99.5533 144.157 99.82C143.637 100.073 143.003 100.2 142.257 100.2C141.483 100.2 140.83 100.06 140.297 99.78C139.777 99.4867 139.35 99.1267 139.017 98.7V103.34C139.017 103.473 138.977 103.58 138.897 103.66C138.817 103.753 138.703 103.8 138.557 103.8H137.597ZM141.837 98.58C142.53 98.58 143.07 98.4333 143.457 98.14C143.857 97.8333 144.143 97.44 144.317 96.96C144.49 96.4667 144.59 95.94 144.617 95.38C144.63 94.9933 144.63 94.6067 144.617 94.22C144.59 93.66 144.49 93.14 144.317 92.66C144.143 92.1667 143.857 91.7733 143.457 91.48C143.07 91.1733 142.53 91.02 141.837 91.02C141.183 91.02 140.65 91.1733 140.237 91.48C139.837 91.7867 139.537 92.18 139.337 92.66C139.15 93.1267 139.043 93.6067 139.017 94.1C139.003 94.3133 138.997 94.5667 138.997 94.86C138.997 95.1533 139.003 95.4133 139.017 95.64C139.03 96.1067 139.137 96.5667 139.337 97.02C139.55 97.4733 139.863 97.8467 140.277 98.14C140.69 98.4333 141.21 98.58 141.837 98.58ZM151.931 100.2C151.264 100.2 150.657 100.067 150.111 99.8C149.564 99.5333 149.124 99.1733 148.791 98.72C148.457 98.2667 148.291 97.7533 148.291 97.18C148.291 96.26 148.664 95.5267 149.411 94.98C150.157 94.4333 151.131 94.0733 152.331 93.9L155.311 93.48V92.9C155.311 92.26 155.124 91.76 154.751 91.4C154.391 91.04 153.797 90.86 152.971 90.86C152.371 90.86 151.884 90.98 151.511 91.22C151.151 91.46 150.897 91.7667 150.751 92.14C150.671 92.34 150.531 92.44 150.331 92.44H149.431C149.284 92.44 149.171 92.4 149.091 92.32C149.024 92.2267 148.991 92.12 148.991 92C148.991 91.8 149.064 91.5533 149.211 91.26C149.371 90.9667 149.611 90.68 149.931 90.4C150.251 90.12 150.657 89.8867 151.151 89.7C151.657 89.5 152.271 89.4 152.991 89.4C153.791 89.4 154.464 89.5067 155.011 89.72C155.557 89.92 155.984 90.1933 156.291 90.54C156.611 90.8867 156.837 91.28 156.971 91.72C157.117 92.16 157.191 92.6067 157.191 93.06V99.54C157.191 99.6733 157.144 99.7867 157.051 99.88C156.971 99.96 156.864 100 156.731 100H155.811C155.664 100 155.551 99.96 155.471 99.88C155.391 99.7867 155.351 99.6733 155.351 99.54V98.68C155.177 98.92 154.944 99.16 154.651 99.4C154.357 99.6267 153.991 99.82 153.551 99.98C153.111 100.127 152.571 100.2 151.931 100.2ZM152.351 98.7C152.897 98.7 153.397 98.5867 153.851 98.36C154.304 98.12 154.657 97.7533 154.911 97.26C155.177 96.7667 155.311 96.1467 155.311 95.4V94.84L152.991 95.18C152.044 95.3133 151.331 95.54 150.851 95.86C150.371 96.1667 150.131 96.56 150.131 97.04C150.131 97.4133 150.237 97.7267 150.451 97.98C150.677 98.22 150.957 98.4 151.291 98.52C151.637 98.64 151.991 98.7 152.351 98.7Z" fill="url(#paint25_linear_605_5687)"/>
<defs>
<filter id="filter0_d_605_5687" x="0" y="0" width="378" height="177" filterUnits="userSpaceOnUse" color-interpolation-filters="sRGB">
<feFlood flood-opacity="0" result="BackgroundImageFix"/>
<feColorMatrix in="SourceAlpha" type="matrix" values="0 0 0 0 0 0 0 0 0 0 0 0 0 0 0 0 0 0 127 0" result="hardAlpha"/>
<feMorphology radius="18" operator="erode" in="SourceAlpha" result="effect1_dropShadow_605_5687"/>
<feOffset dy="21"/>
<feGaussianBlur stdDeviation="7"/>
<feComposite in2="hardAlpha" operator="out"/>
<feColorMatrix type="matrix" values="0 0 0 0 0 0 0 0 0 0 0 0 0 0 0 0 0 0 0.25 0"/>
<feBlend mode="normal" in2="BackgroundImageFix" result="effect1_dropShadow_605_5687"/>
<feBlend mode="normal" in="SourceGraphic" in2="effect1_dropShadow_605_5687" result="shape"/>
</filter>
<linearGradient id="paint0_linear_605_5687" x1="292.51" y1="27.0209" x2="292.51" y2="134" gradientUnits="userSpaceOnUse">
<stop stop-color="#2E375A"/>
<stop offset="1" stop-color="#2E375A" stop-opacity="0"/>
</linearGradient>
<linearGradient id="paint1_linear_605_5687" x1="292.51" y1="27.0209" x2="292.51" y2="134" gradientUnits="userSpaceOnUse">
<stop stop-color="#2E375A"/>
<stop offset="1" stop-color="#2E375A" stop-opacity="0"/>
</linearGradient>
<linearGradient id="paint2_linear_605_5687" x1="292.51" y1="27.0209" x2="292.51" y2="134" gradientUnits="userSpaceOnUse">
<stop stop-color="#2E375A"/>
<stop offset="1" stop-color="#2E375A" stop-opacity="0"/>
</linearGradient>
<linearGradient id="paint3_linear_605_5687" x1="292.51" y1="27.0209" x2="292.51" y2="134" gradientUnits="userSpaceOnUse">
<stop stop-color="#2E375A"/>
<stop offset="1" stop-color="#2E375A" stop-opacity="0"/>
</linearGradient>
<linearGradient id="paint4_linear_605_5687" x1="292.51" y1="27.0209" x2="292.51" y2="134" gradientUnits="userSpaceOnUse">
<stop stop-color="#2E375A"/>
<stop offset="1" stop-color="#2E375A" stop-opacity="0"/>
</linearGradient>
<linearGradient id="paint5_linear_605_5687" x1="292.51" y1="27.0209" x2="292.51" y2="134" gradientUnits="userSpaceOnUse">
<stop stop-color="#2E375A"/>
<stop offset="1" stop-color="#2E375A" stop-opacity="0"/>
</linearGradient>
<linearGradient id="paint6_linear_605_5687" x1="292.51" y1="27.0209" x2="292.51" y2="134" gradientUnits="userSpaceOnUse">
<stop stop-color="#2E375A"/>
<stop offset="1" stop-color="#2E375A" stop-opacity="0"/>
</linearGradient>
<linearGradient id="paint7_linear_605_5687" x1="292.51" y1="27.0209" x2="292.51" y2="134" gradientUnits="userSpaceOnUse">
<stop stop-color="#2E375A"/>
<stop offset="1" stop-color="#2E375A" stop-opacity="0"/>
</linearGradient>
<linearGradient id="paint8_linear_605_5687" x1="292.51" y1="27.0209" x2="292.51" y2="134" gradientUnits="userSpaceOnUse">
<stop stop-color="#2E375A"/>
<stop offset="1" stop-color="#2E375A" stop-opacity="0"/>
</linearGradient>
<linearGradient id="paint9_linear_605_5687" x1="292.51" y1="27.0209" x2="292.51" y2="134" gradientUnits="userSpaceOnUse">
<stop stop-color="#2E375A"/>
<stop offset="1" stop-color="#2E375A" stop-opacity="0"/>
</linearGradient>
<linearGradient id="paint10_linear_605_5687" x1="292.51" y1="27.0209" x2="292.51" y2="134" gradientUnits="userSpaceOnUse">
<stop stop-color="#2E375A"/>
<stop offset="1" stop-color="#2E375A" stop-opacity="0"/>
</linearGradient>
<linearGradient id="paint11_linear_605_5687" x1="292.51" y1="27.0209" x2="292.51" y2="134" gradientUnits="userSpaceOnUse">
<stop stop-color="#2E375A"/>
<stop offset="1" stop-color="#2E375A" stop-opacity="0"/>
</linearGradient>
<linearGradient id="paint12_linear_605_5687" x1="292.51" y1="27.0209" x2="292.51" y2="134" gradientUnits="userSpaceOnUse">
<stop stop-color="#2E375A"/>
<stop offset="1" stop-color="#2E375A" stop-opacity="0"/>
</linearGradient>
<linearGradient id="paint13_linear_605_5687" x1="292.51" y1="27.0209" x2="292.51" y2="134" gradientUnits="userSpaceOnUse">
<stop stop-color="#2E375A"/>
<stop offset="1" stop-color="#2E375A" stop-opacity="0"/>
</linearGradient>
<linearGradient id="paint14_linear_605_5687" x1="292.51" y1="27.0209" x2="292.51" y2="134" gradientUnits="userSpaceOnUse">
<stop stop-color="#2E375A"/>
<stop offset="1" stop-color="#2E375A" stop-opacity="0"/>
</linearGradient>
<linearGradient id="paint15_linear_605_5687" x1="292.51" y1="27.0209" x2="292.51" y2="134" gradientUnits="userSpaceOnUse">
<stop stop-color="#2E375A"/>
<stop offset="1" stop-color="#2E375A" stop-opacity="0"/>
</linearGradient>
<linearGradient id="paint16_linear_605_5687" x1="292.51" y1="27.0209" x2="292.51" y2="134" gradientUnits="userSpaceOnUse">
<stop stop-color="#2E375A"/>
<stop offset="1" stop-color="#2E375A" stop-opacity="0"/>
</linearGradient>
<linearGradient id="paint17_linear_605_5687" x1="292.51" y1="27.0209" x2="292.51" y2="134" gradientUnits="userSpaceOnUse">
<stop stop-color="#2E375A"/>
<stop offset="1" stop-color="#2E375A" stop-opacity="0"/>
</linearGradient>
<linearGradient id="paint18_linear_605_5687" x1="292.51" y1="27.0209" x2="292.51" y2="134" gradientUnits="userSpaceOnUse">
<stop stop-color="#2E375A"/>
<stop offset="1" stop-color="#2E375A" stop-opacity="0"/>
</linearGradient>
<linearGradient id="paint19_linear_605_5687" x1="292.51" y1="27.0209" x2="292.51" y2="134" gradientUnits="userSpaceOnUse">
<stop stop-color="#2E375A"/>
<stop offset="1" stop-color="#2E375A" stop-opacity="0"/>
</linearGradient>
<linearGradient id="paint20_linear_605_5687" x1="292.51" y1="27.0209" x2="292.51" y2="134" gradientUnits="userSpaceOnUse">
<stop stop-color="#2E375A"/>
<stop offset="1" stop-color="#2E375A" stop-opacity="0"/>
</linearGradient>
<linearGradient id="paint21_linear_605_5687" x1="292.51" y1="27.0209" x2="292.51" y2="134" gradientUnits="userSpaceOnUse">
<stop stop-color="#2E375A"/>
<stop offset="1" stop-color="#2E375A" stop-opacity="0"/>
</linearGradient>
<linearGradient id="paint22_linear_605_5687" x1="292.51" y1="27.0209" x2="292.51" y2="134" gradientUnits="userSpaceOnUse">
<stop stop-color="#2E375A"/>
<stop offset="1" stop-color="#2E375A" stop-opacity="0"/>
</linearGradient>
<linearGradient id="paint23_linear_605_5687" x1="292.51" y1="27.0209" x2="292.51" y2="134" gradientUnits="userSpaceOnUse">
<stop stop-color="#2E375A"/>
<stop offset="1" stop-color="#2E375A" stop-opacity="0"/>
</linearGradient>
<linearGradient id="paint24_linear_605_5687" x1="292.51" y1="27.0209" x2="292.51" y2="134" gradientUnits="userSpaceOnUse">
<stop stop-color="#2E375A"/>
<stop offset="1" stop-color="#2E375A" stop-opacity="0"/>
</linearGradient>
<linearGradient id="paint25_linear_605_5687" x1="118" y1="57" x2="118" y2="133.5" gradientUnits="userSpaceOnUse">
<stop stop-color="#2E375A"/>
<stop offset="1" stop-color="#2E375A" stop-opacity="0"/>
</linearGradient>
<clipPath id="clip0_605_5687">
<rect width="107" height="107" fill="white" transform="translate(239 27)"/>
</clipPath>
</defs>
</svg>
