<svg width="49" height="47" viewBox="0 0 49 47" fill="none" xmlns="http://www.w3.org/2000/svg">
<g filter="url(#filter0_d_701_2713)">
<path fill-rule="evenodd" clip-rule="evenodd" d="M33.8779 15.1561C34.2039 14.7832 34.403 14.3163 34.4462 13.8228C34.4894 13.3294 34.3747 12.835 34.1185 12.4111L32.2714 9.48862C31.9455 8.97949 31.4321 8.61939 30.8424 8.48644C30.2527 8.3535 29.6344 8.45844 29.1216 8.77849L9.27076 21.3251C8.76163 21.651 8.40153 22.1644 8.26858 22.7541C8.13564 23.3438 8.24058 23.9621 8.56063 24.4749L10.4078 27.3974C10.6808 27.8107 11.0781 28.1265 11.5423 28.2991C12.0066 28.4718 12.5137 28.4924 12.9904 28.3579C13.4603 28.2328 13.9579 28.2611 14.4107 28.4385C14.8635 28.616 15.2477 28.9333 15.5075 29.3444C15.7674 29.7555 15.8891 30.2388 15.8551 30.7239C15.8211 31.209 15.6331 31.6705 15.3185 32.0413C14.9925 32.4142 14.7935 32.8811 14.7502 33.3745C14.707 33.868 14.8217 34.3624 15.0779 34.7863L16.925 37.7088C17.2509 38.2179 17.7644 38.578 18.354 38.7109C18.9437 38.8439 19.562 38.739 20.0748 38.4189L39.9256 25.8723C40.4348 25.5464 40.7949 25.033 40.9278 24.4433C41.0608 23.8536 40.9558 23.2353 40.6358 22.7225L38.7886 19.8C38.5157 19.3867 38.1183 19.0709 37.6541 18.8983C37.1898 18.7256 36.6827 18.705 36.206 18.8395C35.7361 18.9646 35.2385 18.9363 34.7857 18.7589C34.333 18.5814 33.9487 18.2641 33.6889 17.853C33.4291 17.4419 33.3073 16.9586 33.3413 16.4735C33.3753 15.9884 33.5633 15.5269 33.8779 15.1561Z" fill="#1EA0FF"/>
</g>
<path opacity="0.64" d="M28.694 23.4123L27.777 24.5879C27.6267 24.7603 27.5215 25.0894 27.5365 25.3245L27.6267 26.8293C27.6868 27.7541 27.0555 28.2243 26.2287 27.8951L24.8908 27.3308C24.6804 27.2525 24.3346 27.2525 24.1242 27.3308L22.7863 27.8794C21.9596 28.2243 21.3282 27.7384 21.3883 26.8136L21.4785 25.3089C21.4936 25.0738 21.3883 24.7446 21.238 24.5722L20.306 23.4123C19.7348 22.707 19.9903 21.9232 20.8472 21.6881L22.2452 21.3119C22.4707 21.2493 22.7262 21.0298 22.8465 20.8417L23.6281 19.5878C24.1092 18.8041 24.8758 18.8041 25.3719 19.5878L26.1535 20.8417C26.2738 21.0455 26.5444 21.2493 26.7548 21.3119L28.1528 21.6881C29.0097 21.9232 29.2652 22.707 28.694 23.4123Z" fill="#1A213B"/>
<defs>
<filter id="filter0_d_701_2713" x="0.212402" y="0.430176" width="48.7717" height="46.3369" filterUnits="userSpaceOnUse" color-interpolation-filters="sRGB">
<feFlood flood-opacity="0" result="BackgroundImageFix"/>
<feColorMatrix in="SourceAlpha" type="matrix" values="0 0 0 0 0 0 0 0 0 0 0 0 0 0 0 0 0 0 127 0" result="hardAlpha"/>
<feOffset/>
<feGaussianBlur stdDeviation="4"/>
<feComposite in2="hardAlpha" operator="out"/>
<feColorMatrix type="matrix" values="0 0 0 0 0.345098 0 0 0 0 0.843137 0 0 0 0 1 0 0 0 0.49 0"/>
<feBlend mode="normal" in2="BackgroundImageFix" result="effect1_dropShadow_701_2713"/>
<feBlend mode="normal" in="SourceGraphic" in2="effect1_dropShadow_701_2713" result="shape"/>
</filter>
</defs>
</svg>
