<svg width="17" height="16" viewBox="0 0 17 16" fill="none" xmlns="http://www.w3.org/2000/svg">
<path d="M8.5 15.3691C7.4362 15.3691 6.43424 15.165 5.49414 14.7568C4.56641 14.361 3.75 13.8167 3.04492 13.124C2.35221 12.4189 1.80176 11.6025 1.39355 10.6748C0.997721 9.74707 0.799805 8.7513 0.799805 7.6875C0.799805 6.6237 0.997721 5.62793 1.39355 4.7002C1.80176 3.77246 2.35221 2.96224 3.04492 2.26953C3.75 1.56445 4.56641 1.014 5.49414 0.618164C6.43424 0.222331 7.4362 0.0244141 8.5 0.0244141C9.5638 0.0244141 10.5658 0.222331 11.5059 0.618164C12.4336 1.014 13.2438 1.56445 13.9365 2.26953C14.6416 2.96224 15.1982 3.77246 15.6064 4.7002C16.0023 5.62793 16.2002 6.6237 16.2002 7.6875C16.2002 8.7513 16.0023 9.74707 15.6064 10.6748C15.1982 11.6025 14.6416 12.4189 13.9365 13.124C13.2438 13.8167 12.4336 14.361 11.5059 14.7568C10.5658 15.1527 9.5638 15.3568 8.5 15.3691ZM8.5 14.3301C8.89583 14.3301 9.28548 14.2992 9.66895 14.2373C10.0648 14.1631 10.4482 14.0579 10.8193 13.9219L8.5 12.7158L6.18066 13.9219C6.55176 14.0579 6.92904 14.1631 7.3125 14.2373C7.70833 14.2992 8.10417 14.3301 8.5 14.3301ZM1.82031 7.6875C1.82031 8.42969 1.94401 9.15332 2.19141 9.8584C2.4388 10.5635 2.79134 11.2129 3.24902 11.8066L3.69434 9.22754L1.82031 7.42773V7.6875ZM2.95215 3.99512L5.53125 3.62402L6.68164 1.28613C5.91471 1.50879 5.20964 1.85514 4.56641 2.3252C3.93555 2.78288 3.39746 3.33952 2.95215 3.99512ZM6.68164 5.20117L5.56836 8.63379L8.5 10.749L11.4316 8.63379L10.3184 5.20117H6.68164ZM10.3184 1.28613L11.4688 3.62402L14.0479 3.99512C13.6025 3.33952 13.0583 2.78288 12.415 2.3252C11.7842 1.85514 11.0853 1.50879 10.3184 1.28613ZM13.3057 9.22754L13.7324 11.8066C14.2025 11.2129 14.5612 10.5635 14.8086 9.8584C15.056 9.15332 15.1797 8.42969 15.1797 7.6875V7.40918L13.3057 9.22754Z" fill="#1EA0FF"/>
</svg>
