<svg width="168" height="47" viewBox="0 0 168 47" fill="none" xmlns="http://www.w3.org/2000/svg">
<rect x="0.5" y="0.5" width="167" height="46" rx="7.5" fill="#131930"/>
<path d="M84.137 25.7522C81.785 25.7522 79.868 27.5402 79.868 30.0052C79.868 32.4542 81.785 34.2582 84.137 34.2582C86.489 34.2582 88.406 32.4542 88.406 30.0052C88.406 27.5402 86.489 25.7522 84.137 25.7522ZM84.137 32.5832C82.848 32.5832 81.736 31.5202 81.736 30.0052C81.736 28.4742 82.848 27.4272 84.137 27.4272C85.426 27.4272 86.537 28.4742 86.537 30.0052C86.537 31.5192 85.426 32.5832 84.137 32.5832ZM74.823 25.7522C72.471 25.7522 70.554 27.5402 70.554 30.0052C70.554 32.4542 72.471 34.2582 74.823 34.2582C77.175 34.2582 79.092 32.4542 79.092 30.0052C79.093 27.5402 77.175 25.7522 74.823 25.7522ZM74.823 32.5832C73.534 32.5832 72.423 31.5202 72.423 30.0052C72.423 28.4742 73.535 27.4272 74.823 27.4272C76.112 27.4272 77.223 28.4742 77.223 30.0052C77.224 31.5192 76.112 32.5832 74.823 32.5832ZM63.745 28.8612H68.063C67.934 29.8762 67.596 30.6172 67.08 31.1332C66.452 31.7612 65.469 32.4542 63.745 32.4542C61.087 32.4542 59.009 30.3112 59.009 27.6532C59.009 24.9952 61.087 22.8522 63.745 22.8522C65.179 22.8522 66.226 23.4162 66.999 24.1412L68.272 22.8682C67.193 21.8372 65.759 21.0472 63.745 21.0472C60.104 21.0472 57.043 24.0112 57.043 27.6522C57.043 31.2932 60.104 34.2572 63.745 34.2572C65.71 34.2572 67.193 33.6132 68.353 32.4042C69.545 31.2122 69.916 29.5362 69.916 28.1832C69.916 27.7642 69.884 27.3772 69.819 27.0552H63.745V28.8612ZM109.053 28.4582C108.699 27.5072 107.619 25.7512 105.412 25.7512C103.221 25.7512 101.401 27.4752 101.401 30.0042C101.401 32.3882 103.205 34.2572 105.622 34.2572C107.571 34.2572 108.699 33.0652 109.166 32.3722L107.716 31.4052C107.233 32.1142 106.572 32.5812 105.622 32.5812C104.671 32.5812 103.995 32.1462 103.56 31.2922L109.247 28.9402L109.053 28.4582ZM103.253 29.8762C103.205 28.2332 104.526 27.3952 105.476 27.3952C106.217 27.3952 106.845 27.7652 107.055 28.2972L103.253 29.8762ZM98.629 34.0002H100.498V21.4992H98.629V34.0002ZM95.568 26.7022H95.504C95.085 26.2032 94.28 25.7512 93.265 25.7512C91.138 25.7512 89.189 27.6202 89.189 30.0202C89.189 32.4042 91.138 34.2572 93.265 34.2572C94.28 34.2572 95.085 33.8062 95.504 33.2902H95.568V33.9022C95.568 35.5292 94.698 36.3992 93.296 36.3992C92.152 36.3992 91.443 35.5772 91.153 34.8852L89.526 35.5622C89.993 36.6902 91.234 38.0752 93.296 38.0752C95.487 38.0752 97.34 36.7862 97.34 33.6452V26.0092H95.568V26.7022ZM93.426 32.5832C92.137 32.5832 91.058 31.5042 91.058 30.0212C91.058 28.5232 92.137 27.4272 93.426 27.4272C94.699 27.4272 95.697 28.5222 95.697 30.0212C95.697 31.5032 94.699 32.5832 93.426 32.5832ZM117.807 21.4992H113.336V34.0002H115.201V29.2642H117.806C119.874 29.2642 121.907 27.7672 121.907 25.3822C121.907 22.9972 119.875 21.4992 117.807 21.4992ZM117.855 27.5242H115.201V23.2392H117.855C119.25 23.2392 120.042 24.3942 120.042 25.3822C120.042 26.3502 119.25 27.5242 117.855 27.5242ZM129.387 25.7292C128.036 25.7292 126.637 26.3242 126.058 27.6432L127.715 28.3352C128.069 27.6432 128.728 27.4182 129.42 27.4182C130.385 27.4182 131.366 27.9972 131.382 29.0262V29.1552C131.044 28.9622 130.32 28.6722 129.436 28.6722C127.651 28.6722 125.833 29.6532 125.833 31.4872C125.833 33.1602 127.297 34.2372 128.937 34.2372C130.192 34.2372 130.883 33.6742 131.317 33.0152H131.381V33.9802H133.182V29.1872C133.182 26.9672 131.526 25.7292 129.387 25.7292ZM129.161 32.5802C128.55 32.5802 127.697 32.2742 127.697 31.5192C127.697 30.5542 128.759 30.1842 129.675 30.1842C130.495 30.1842 130.881 30.3612 131.38 30.6022C131.236 31.7602 130.239 32.5802 129.161 32.5802ZM139.744 26.0022L137.605 31.4222H137.541L135.322 26.0022H133.312L136.641 33.5772L134.743 37.7912H136.689L141.82 26.0022H139.744ZM122.937 34.0002H124.803V21.4992H122.937V34.0002Z" fill="white"/>
<path d="M63.376 13.7912H60.468V14.5122H62.647C62.588 15.0982 62.353 15.5592 61.96 15.8942C61.566 16.2292 61.063 16.3972 60.468 16.3972C59.814 16.3972 59.261 16.1712 58.809 15.7182C58.365 15.2572 58.138 14.6882 58.138 14.0002C58.138 13.3132 58.365 12.7432 58.809 12.2822C59.261 11.8302 59.814 11.6042 60.468 11.6042C60.803 11.6042 61.122 11.6622 61.415 11.7882C61.708 11.9142 61.943 12.0902 62.127 12.3162L62.68 11.7632C62.429 11.4782 62.11 11.2602 61.717 11.1012C61.323 10.9422 60.912 10.8662 60.468 10.8662C59.596 10.8662 58.859 11.1682 58.256 11.7712C57.652 12.3752 57.351 13.1202 57.351 14.0002C57.351 14.8802 57.652 15.6262 58.256 16.2292C58.859 16.8332 59.596 17.1342 60.468 17.1342C61.381 17.1342 62.11 16.8412 62.672 16.2462C63.166 15.7522 63.418 15.0812 63.418 14.2432C63.418 14.1012 63.401 13.9502 63.376 13.7912Z" fill="white"/>
<path d="M64.524 11.0002V17.0002H68.027V16.2632H65.295V14.3612H67.758V13.6402H65.295V11.7382H68.027V11.0002H64.524Z" fill="white"/>
<path d="M72.953 11.7382V11.0002H68.83V11.7382H70.506V17.0002H71.277V11.7382H72.953Z" fill="white"/>
<path d="M76.7079 11.0002H75.9369V17.0002H76.7079V11.0002Z" fill="white"/>
<path d="M81.8029 11.7382V11.0002H77.6799V11.7382H79.3559V17.0002H80.1269V11.7382H81.8029Z" fill="white"/>
<path d="M89.605 11.7802C89.01 11.1682 88.281 10.8662 87.409 10.8662C86.538 10.8662 85.808 11.1682 85.213 11.7712C84.618 12.3662 84.325 13.1122 84.325 14.0002C84.325 14.8892 84.618 15.6342 85.213 16.2292C85.808 16.8332 86.538 17.1342 87.409 17.1342C88.272 17.1342 89.01 16.8332 89.605 16.2292C90.2 15.6342 90.493 14.8892 90.493 14.0002C90.493 13.1202 90.2 12.3752 89.605 11.7802ZM85.767 12.2822C86.211 11.8302 86.755 11.6042 87.409 11.6042C88.063 11.6042 88.607 11.8302 89.043 12.2822C89.487 12.7272 89.705 13.3052 89.705 14.0002C89.705 14.6962 89.487 15.2742 89.043 15.7182C88.607 16.1712 88.063 16.3972 87.409 16.3972C86.755 16.3972 86.211 16.1712 85.767 15.7182C85.331 15.2662 85.113 14.6962 85.113 14.0002C85.113 13.3052 85.331 12.7352 85.767 12.2822Z" fill="white"/>
<path d="M92.345 13.2632L92.312 12.1062H92.345L95.396 17.0002H96.2V11.0002H95.429V14.5122L95.463 15.6682H95.429L92.513 11.0002H91.575V17.0002H92.345V13.2632Z" fill="white"/>
<path d="M36.7173 23.4246L26.0703 34.7246C26.0713 34.7266 26.0713 34.7286 26.0723 34.7306C26.3983 35.9586 27.5193 36.8616 28.8493 36.8616C29.3813 36.8616 29.8803 36.7176 30.3083 36.4656L30.3423 36.4456L42.3263 29.5306L36.7173 23.4246Z" fill="#EB4335"/>
<path d="M47.4896 21.5007L47.4796 21.4937L42.3056 18.4937L36.4766 23.6807L42.3256 29.5287L47.4726 26.5597C48.3746 26.0727 48.9866 25.1217 48.9866 24.0247C48.9866 22.9357 48.3826 21.9887 47.4896 21.5007Z" fill="#FABC13"/>
<path d="M26.0707 13.2776C26.0067 13.5136 25.9727 13.7606 25.9727 14.0176V33.9846C25.9727 34.2416 26.0053 34.4896 26.0703 34.7246L37.0837 23.7136L26.0707 13.2776Z" fill="#547DBF"/>
<path d="M36.7953 24.0006L42.3063 18.4916L30.3353 11.5516C29.9003 11.2906 29.3933 11.1406 28.8493 11.1406C27.5193 11.1406 26.3973 12.0456 26.0703 13.2746L26.0707 13.2776L36.7953 24.0006Z" fill="#30A851"/>
<rect x="0.5" y="0.5" width="167" height="46" rx="7.5" stroke="#1D2544"/>
</svg>
