<svg width="20" height="20" viewBox="0 0 20 20" fill="none" xmlns="http://www.w3.org/2000/svg">
<g clip-path="url(#clip0_300_7915)">
<path fill-rule="evenodd" clip-rule="evenodd" d="M9.99977 6.66668C9.34049 6.66668 8.69603 6.86217 8.14786 7.22844C7.5997 7.59471 7.17246 8.11531 6.92017 8.7244C6.66787 9.33348 6.60186 10.0037 6.73048 10.6503C6.8591 11.2969 7.17657 11.8909 7.64274 12.357C8.10892 12.8232 8.70286 13.1407 9.34946 13.2693C9.99607 13.3979 10.6663 13.3319 11.2754 13.0796C11.8845 12.8273 12.4051 12.4001 12.7713 11.8519C13.1376 11.3037 13.3331 10.6593 13.3331 10C13.3331 9.11595 12.9819 8.26811 12.3568 7.64299C11.7317 7.01786 10.8838 6.66668 9.99977 6.66668ZM9.99977 11.6667C9.67013 11.6667 9.3479 11.5689 9.07381 11.3858C8.79973 11.2027 8.58611 10.9424 8.45997 10.6378C8.33382 10.3333 8.30081 9.99816 8.36512 9.67486C8.42943 9.35156 8.58817 9.05458 8.82125 8.8215C9.05434 8.58841 9.35131 8.42968 9.67461 8.36537C9.99792 8.30106 10.333 8.33406 10.6376 8.46021C10.9421 8.58636 11.2024 8.79998 11.3855 9.07406C11.5687 9.34814 11.6664 9.67037 11.6664 10C11.6664 10.442 11.4908 10.866 11.1783 11.1785C10.8657 11.4911 10.4418 11.6667 9.99977 11.6667Z" fill="#1EA0FF"/>
<path fill-rule="evenodd" clip-rule="evenodd" d="M16.9914 7.10834C17.3611 6.62688 17.5429 6.02738 17.5031 5.4217C17.4632 4.81602 17.2043 4.24553 16.7748 3.81668L16.1831 3.22501C15.752 2.7842 15.1732 2.51825 14.5579 2.47826C13.9427 2.43827 13.3343 2.62705 12.8498 3.00834C12.772 2.41442 12.4836 1.86817 12.037 1.46899C11.5904 1.06981 11.0153 0.844245 10.4164 0.833342H9.5831C8.9727 0.828165 8.38151 1.04649 7.92098 1.44714C7.46046 1.8478 7.16243 2.4031 7.0831 3.00834C6.60164 2.6387 6.00214 2.45684 5.39646 2.49671C4.79078 2.53658 4.22029 2.79545 3.79143 3.22501L3.19976 3.81668C2.7702 4.24553 2.51134 4.81602 2.47147 5.4217C2.4316 6.02738 2.61345 6.62688 2.9831 7.10834C2.38669 7.19267 1.84078 7.48949 1.44576 7.94422C1.05075 8.39894 0.833189 8.981 0.833098 9.58334V10.4167C0.827921 11.0271 1.04624 11.6183 1.4469 12.0788C1.84756 12.5393 2.40286 12.8373 3.0081 12.9167C2.62681 13.4012 2.43802 14.0096 2.47802 14.6248C2.51801 15.2401 2.78396 15.8189 3.22476 16.25L3.81643 16.8417C4.24529 17.2712 4.81577 17.5301 5.42146 17.57C6.02714 17.6098 6.62664 17.428 7.1081 17.0583C7.18743 17.6636 7.48546 18.2189 7.94598 18.6195C8.40651 19.0202 8.9977 19.2385 9.6081 19.2333H10.4414C11.0518 19.2385 11.643 19.0202 12.1035 18.6195C12.5641 18.2189 12.8621 17.6636 12.9414 17.0583C13.426 17.4396 14.0343 17.6284 14.6496 17.5884C15.2649 17.5484 15.8437 17.2825 16.2748 16.8417L16.8664 16.25C17.3072 15.8189 17.5732 15.2401 17.6132 14.6248C17.6532 14.0096 17.4644 13.4012 17.0831 12.9167C17.6883 12.8373 18.2436 12.5393 18.6443 12.0788C19.045 11.6183 19.2633 11.0271 19.2581 10.4167V9.58334C19.2546 8.96313 19.0207 8.36636 18.6018 7.90896C18.1829 7.45157 17.6089 7.16622 16.9914 7.10834ZM17.4998 10.4417C17.4998 10.6627 17.412 10.8747 17.2557 11.0309C17.0994 11.1872 16.8874 11.275 16.6664 11.275C16.3664 11.2733 16.0726 11.3611 15.8227 11.5273C15.5728 11.6934 15.3781 11.9303 15.2636 12.2077C15.1491 12.485 15.1199 12.7903 15.1798 13.0843C15.2397 13.3783 15.3859 13.6479 15.5998 13.8583C15.755 14.0145 15.8421 14.2257 15.8421 14.4458C15.8421 14.666 15.755 14.8772 15.5998 15.0333L15.0081 15.625C14.852 15.7802 14.6408 15.8673 14.4206 15.8673C14.2004 15.8673 13.9892 15.7802 13.8331 15.625C13.6241 15.4126 13.3569 15.2669 13.0652 15.2062C12.7734 15.1456 12.4703 15.1726 12.1939 15.2841C11.9176 15.3955 11.6804 15.5863 11.5124 15.8323C11.3444 16.0784 11.253 16.3687 11.2498 16.6667C11.2498 16.8877 11.162 17.0997 11.0057 17.2559C10.8494 17.4122 10.6374 17.5 10.4164 17.5H9.5831C9.36208 17.5 9.15012 17.4122 8.99384 17.2559C8.83756 17.0997 8.74976 16.8877 8.74976 16.6667C8.75149 16.3666 8.66366 16.0728 8.49752 15.8229C8.33138 15.573 8.09448 15.3784 7.81711 15.2639C7.53974 15.1493 7.23452 15.1201 6.94047 15.18C6.64642 15.2399 6.37692 15.3861 6.16643 15.6C6.0103 15.7552 5.79909 15.8423 5.57893 15.8423C5.35878 15.8423 5.14757 15.7552 4.99143 15.6L4.39977 15C4.24456 14.8439 4.15744 14.6327 4.15744 14.4125C4.15744 14.1924 4.24456 13.9811 4.39977 13.825C4.61076 13.6141 4.75445 13.3453 4.81266 13.0527C4.87088 12.76 4.84101 12.4567 4.72683 12.1811C4.61265 11.9055 4.41929 11.6699 4.1712 11.5041C3.92312 11.3384 3.63145 11.25 3.3331 11.25C3.11208 11.25 2.90012 11.1622 2.74384 11.0059C2.58756 10.8496 2.49976 10.6377 2.49976 10.4167V9.58334C2.49976 9.36233 2.58756 9.15037 2.74384 8.99409C2.90012 8.83781 3.11208 8.75001 3.3331 8.75001C3.63317 8.75173 3.92695 8.6639 4.17684 8.49776C4.42673 8.33162 4.62139 8.09472 4.73592 7.81735C4.85044 7.53999 4.87963 7.23476 4.81975 6.94072C4.75987 6.64667 4.61364 6.37717 4.39977 6.16668C4.24708 6.0109 4.16155 5.80147 4.16155 5.58334C4.16155 5.36521 4.24708 5.15578 4.39977 5.00001L4.99976 4.40001C5.1559 4.2448 5.36711 4.15768 5.58727 4.15768C5.80742 4.15768 6.01863 4.2448 6.17476 4.40001C6.38571 4.611 6.65449 4.75469 6.94711 4.81291C7.23973 4.87113 7.54304 4.84126 7.81868 4.72708C8.09432 4.61289 8.3299 4.41953 8.49564 4.17145C8.66137 3.92336 8.74981 3.6317 8.74976 3.33334C8.74976 3.11233 8.83756 2.90037 8.99384 2.74409C9.15012 2.58781 9.36208 2.50001 9.5831 2.50001H10.4164C10.6374 2.50001 10.8494 2.58781 11.0057 2.74409C11.162 2.90037 11.2498 3.11233 11.2498 3.33334C11.248 3.63342 11.3359 3.92719 11.502 4.17708C11.6681 4.42698 11.9051 4.62163 12.1824 4.73616C12.4598 4.85069 12.765 4.87987 13.0591 4.81999C13.3531 4.76011 13.6226 4.61388 13.8331 4.40001C13.9892 4.2448 14.2004 4.15768 14.4206 4.15768C14.6408 4.15768 14.852 4.2448 15.0081 4.40001L15.5998 4.99168C15.755 5.14781 15.8421 5.35902 15.8421 5.57918C15.8421 5.79933 15.755 6.01054 15.5998 6.16668C15.3859 6.37717 15.2397 6.64667 15.1798 6.94072C15.1199 7.23476 15.1491 7.53999 15.2636 7.81735C15.3781 8.09472 15.5728 8.33162 15.8227 8.49776C16.0726 8.6639 16.3664 8.75173 16.6664 8.75001C16.8874 8.75001 17.0994 8.83781 17.2557 8.99409C17.412 9.15037 17.4998 9.36233 17.4998 9.58334V10.4417Z" fill="#1EA0FF"/>
</g>
<defs>
<clipPath id="clip0_300_7915">
<rect width="20" height="20" fill="white"/>
</clipPath>
</defs>
</svg>
