<svg width="20" height="20" viewBox="0 0 20 20" fill="none" xmlns="http://www.w3.org/2000/svg">
<path fill-rule="evenodd" clip-rule="evenodd" d="M13.0832 9.76669C13.9022 9.12508 14.5007 8.24394 14.7953 7.24605C15.0898 6.24817 15.0658 5.18326 14.7264 4.19971C14.387 3.21616 13.7493 2.36298 12.9021 1.75906C12.0548 1.15514 11.0403 0.830566 9.99984 0.830566C8.95939 0.830566 7.94486 1.15514 7.09762 1.75906C6.25038 2.36298 5.61265 3.21616 5.27328 4.19971C4.93392 5.18326 4.90983 6.24817 5.20438 7.24605C5.49893 8.24394 6.09744 9.12508 6.9165 9.76669C5.3686 10.3832 4.04102 11.4495 3.10519 12.828C2.16935 14.2065 1.66822 15.8339 1.6665 17.5V18.3334C1.6665 18.5544 1.7543 18.7663 1.91058 18.9226C2.06686 19.0789 2.27882 19.1667 2.49984 19.1667C2.72085 19.1667 2.93281 19.0789 3.08909 18.9226C3.24537 18.7663 3.33317 18.5544 3.33317 18.3334V17.5C3.33317 15.7319 4.03555 14.0362 5.28579 12.786C6.53604 11.5357 8.23173 10.8334 9.99984 10.8334C11.7679 10.8334 13.4636 11.5357 14.7139 12.786C15.9641 14.0362 16.6665 15.7319 16.6665 17.5V18.3334C16.6665 18.5544 16.7543 18.7663 16.9106 18.9226C17.0669 19.0789 17.2788 19.1667 17.4998 19.1667C17.7209 19.1667 17.9328 19.0789 18.0891 18.9226C18.2454 18.7663 18.3332 18.5544 18.3332 18.3334V17.5C18.3315 15.8339 17.8303 14.2065 16.8945 12.828C15.9587 11.4495 14.6311 10.3832 13.0832 9.76669ZM6.6665 5.83335C6.6665 5.17408 6.862 4.52962 7.22827 3.98145C7.59454 3.43329 8.11514 3.00605 8.72423 2.75376C9.33331 2.50146 10.0035 2.43545 10.6501 2.56407C11.2967 2.69269 11.8907 3.01016 12.3569 3.47633C12.823 3.94251 13.1405 4.53645 13.2691 5.18305C13.3977 5.82966 13.3317 6.49988 13.0794 7.10897C12.8271 7.71805 12.3999 8.23865 11.8517 8.60492C11.3036 8.97119 10.6591 9.16669 9.99984 9.16669C9.11578 9.16669 8.26794 8.8155 7.64281 8.19038C7.01769 7.56526 6.6665 6.71741 6.6665 5.83335Z" fill="#1EA0FF"/>
</svg>
