<svg width="20" height="20" viewBox="0 0 20 20" fill="none" xmlns="http://www.w3.org/2000/svg">
<path fill-rule="evenodd" clip-rule="evenodd" d="M16.6668 3.99166H15.8335V3.50833C15.8328 3.12208 15.7425 2.74127 15.5699 2.39575C15.3973 2.05023 15.1469 1.74941 14.8385 1.51689C14.5301 1.28437 14.172 1.12647 13.7923 1.05559C13.4126 0.9847 13.0217 1.00275 12.6502 1.10833L3.1085 3.83333C2.96779 3.8773 2.84126 3.95782 2.74183 4.06666C2.19828 4.19906 1.71484 4.50995 1.36887 4.94959C1.0229 5.38923 0.834386 5.93221 0.833496 6.49166V16.4917C0.833496 17.1547 1.09689 17.7906 1.56573 18.2594C2.03457 18.7283 2.67045 18.9917 3.3335 18.9917H16.6668C17.3299 18.9917 17.9658 18.7283 18.4346 18.2594C18.9034 17.7906 19.1668 17.1547 19.1668 16.4917V6.49166C19.1668 5.82862 18.9034 5.19273 18.4346 4.72389C17.9658 4.25505 17.3299 3.99166 16.6668 3.99166ZM13.1085 2.70833C13.2349 2.67278 13.3679 2.66761 13.4967 2.69324C13.6255 2.71887 13.7464 2.77458 13.8496 2.85582C13.9528 2.93706 14.0353 3.04153 14.0904 3.16072C14.1456 3.2799 14.1717 3.41043 14.1668 3.54166V4.02499H8.6335L13.1085 2.70833ZM17.5002 12.325H15.0002C14.7792 12.325 14.5672 12.2372 14.4109 12.0809C14.2546 11.9246 14.1668 11.7127 14.1668 11.4917C14.1668 11.2706 14.2546 11.0587 14.4109 10.9024C14.5672 10.7461 14.7792 10.6583 15.0002 10.6583H17.5002V12.325ZM17.5002 8.99166H15.1252C14.5251 8.97633 13.9385 9.17113 13.4668 9.54241C12.9951 9.91368 12.6679 10.4381 12.5418 11.025C12.4731 11.3866 12.4851 11.7588 12.5769 12.1153C12.6687 12.4717 12.8381 12.8034 13.0729 13.0868C13.3077 13.3702 13.6022 13.5982 13.9354 13.7546C14.2685 13.9111 14.6321 13.992 15.0002 13.9917H17.5002V16.4917C17.5002 16.7127 17.4124 16.9246 17.2561 17.0809C17.0998 17.2372 16.8878 17.325 16.6668 17.325H3.3335C3.11248 17.325 2.90052 17.2372 2.74424 17.0809C2.58796 16.9246 2.50016 16.7127 2.50016 16.4917V6.49166C2.50016 6.27065 2.58796 6.05868 2.74424 5.9024C2.90052 5.74612 3.11248 5.65833 3.3335 5.65833H16.6668C16.8878 5.65833 17.0998 5.74612 17.2561 5.9024C17.4124 6.05868 17.5002 6.27065 17.5002 6.49166V8.99166Z" fill="#1EA0FF"/>
</svg>
