<svg width="57" height="22" viewBox="0 0 57 22" fill="none" xmlns="http://www.w3.org/2000/svg">
<path d="M4.06863 3.15581C4.4662 1.31442 6.09471 0 7.97854 0H52.0442C54.5933 0 56.4921 2.35248 55.9541 4.84418L52.9314 18.8442C52.5338 20.6856 50.9053 22 49.0215 22H4.95581C2.40669 22 0.507922 19.6475 1.0459 17.1558L4.06863 3.15581Z" fill="#EB9C3D"/>
<path d="M4.06863 3.15581C4.4662 1.31442 6.09471 0 7.97854 0H52.0442C54.5933 0 56.4921 2.35248 55.9541 4.84418L52.9314 18.8442C52.5338 20.6856 50.9053 22 49.0215 22H4.95581C2.40669 22 0.507922 19.6475 1.0459 17.1558L4.06863 3.15581Z" fill="url(#paint0_linear_65_1282)"/>
<defs>
<linearGradient id="paint0_linear_65_1282" x1="28.5" y1="0" x2="28.5" y2="22" gradientUnits="userSpaceOnUse">
<stop stop-color="#FFA903"/>
<stop offset="1" stop-color="#EE8539"/>
</linearGradient>
</defs>
</svg>
