<svg width="21" height="21" viewBox="0 0 21 21" fill="none" xmlns="http://www.w3.org/2000/svg">
<path d="M14.875 14L18.375 10.5M18.375 10.5L14.875 7M18.375 10.5H6.125M11.375 14V14.875C11.375 15.5712 11.0984 16.2389 10.6062 16.7312C10.1139 17.2234 9.44619 17.5 8.75 17.5H5.25C4.55381 17.5 3.88613 17.2234 3.39384 16.7312C2.90156 16.2389 2.625 15.5712 2.625 14.875V6.125C2.625 5.42881 2.90156 4.76113 3.39384 4.26884C3.88613 3.77656 4.55381 3.5 5.25 3.5H8.75C9.44619 3.5 10.1139 3.77656 10.6062 4.26884C11.0984 4.76113 11.375 5.42881 11.375 6.125V7" stroke="#5C658C" stroke-width="1.4" stroke-linecap="round" stroke-linejoin="round"/>
</svg>
