<svg width="129" height="25" viewBox="0 0 129 25" fill="none" xmlns="http://www.w3.org/2000/svg">
<g clip-path="url(#clip0_65_1303)">
<path d="M17.4096 6.6195C17.9182 7.71999 18.3316 8.34885 18.3895 9.70298C18.6748 11.4777 18.5866 13.242 18.1249 14.9958L17.4179 16.9264C17.1547 17.0759 17.0113 17.3408 16.9879 17.7209L16.1527 18.8297C15.928 19.0114 15.7585 19.2357 15.6441 19.5026C14.1474 21.357 12.3626 22.8628 10.2898 24.0199C10.2305 24.0534 10.1678 24.0611 10.1017 24.0429C9.25271 23.8138 8.42992 23.5112 7.63332 23.1353C8.04678 22.4645 8.3238 21.7099 9.13005 21.4395C10.6102 20.9434 12.0608 20.3725 13.4817 19.7269C13.7712 19.5969 14.0813 19.2846 13.7319 18.9786C17.1512 16.8656 17.5812 14.1553 15.2989 10.8244C15.3003 10.1537 15.0377 9.82316 14.5113 9.83294C13.4528 9.84971 11.0444 11.3233 10.1203 11.8851C9.93424 11.9969 9.81295 11.9473 9.75645 11.7363C8.92952 8.63812 7.45553 6.51888 5.35928 4.0957C6.96627 2.76393 8.74002 1.72352 10.6805 0.974489C11.0464 0.831949 11.1953 0.955623 11.5178 1.11074C13.6037 2.119 16.5434 4.35982 17.4096 6.6195Z" fill="#EDEDED"/>
<path d="M5.35929 4.0957C7.45554 6.51889 8.92953 8.63812 9.75645 11.7363C9.81296 11.9473 9.93424 11.9969 10.1203 11.8851C11.0444 11.3233 13.4528 9.84972 14.5113 9.83295C15.0377 9.82316 15.3003 10.1537 15.2989 10.8244L14.7614 10.3297C14.7118 10.2836 14.6553 10.271 14.5919 10.292C9.81227 11.8285 4.09823 15.6142 5.45438 21.6072C5.47458 21.6987 5.52974 21.7784 5.60791 21.829C5.68609 21.8796 5.78096 21.8971 5.87198 21.8776C8.56568 21.299 11.3855 20.4291 13.7319 18.9786C14.0813 19.2846 13.7712 19.5969 13.4817 19.7269C12.0608 20.3725 10.6102 20.9434 9.13006 21.4395C8.32381 21.7099 8.04679 22.4645 7.63333 23.1353C-1.1486 19.5194 -1.93417 9.76796 5.35929 4.0957Z" fill="#FEFEFF"/>
<path d="M29.9003 5.99064C29.6605 6.06331 29.4738 6.0137 29.3401 5.84181L29.9768 5.42257C30.0283 5.38879 30.0702 5.34195 30.0981 5.28675C30.1261 5.23155 30.1391 5.16995 30.136 5.10815L30.1071 4.4227C30.0988 4.24243 30.1436 4.22775 30.2414 4.37868L30.6714 5.05365C30.7128 5.11793 30.7714 5.14728 30.8472 5.14169L31.5997 5.08719C31.7788 5.07321 31.7933 5.11723 31.6431 5.21924L30.9733 5.67202C30.9057 5.71674 30.8782 5.78032 30.8906 5.86277C30.9154 6.03256 31.0167 6.59224 30.8761 6.68867C30.8168 6.73059 30.7727 6.71731 30.7438 6.64884C30.6094 6.32812 30.3758 5.65525 29.9003 5.99064Z" fill="#FEFEFF"/>
<path d="M18.1249 14.9958C18.5866 13.242 18.6748 11.4777 18.3895 9.70297C18.2862 9.06783 18.1249 8.31949 17.8748 7.61517C22.2037 5.4624 26.9399 7.00728 28.939 11.5371C28.9748 11.6196 28.9535 11.6818 28.8749 11.7237L28.4821 11.9417C28.4119 11.9794 28.3622 11.9613 28.3333 11.8872L28.139 11.3904C28.1325 11.3733 28.1213 11.3585 28.1068 11.3476C28.0923 11.3367 28.0751 11.3303 28.0571 11.3289C28.0391 11.3276 28.0211 11.3315 28.0052 11.3402C27.9894 11.3488 27.9762 11.3619 27.9674 11.3778L27.8268 11.6189C27.7896 11.6832 27.7358 11.7034 27.6656 11.6797L25.0918 10.8391C25.0215 10.8167 24.9677 10.7734 24.9305 10.7091L23.8555 8.83515C23.8224 8.77785 23.8224 8.71986 23.8555 8.66117L24.2731 7.93799C24.3186 7.85973 24.2986 7.80732 24.2132 7.78077L23.8059 7.655C23.726 7.62985 23.6632 7.6529 23.6178 7.72417L23.2436 8.31949C23.2022 8.38377 23.145 8.41102 23.072 8.40124L21.3479 8.17905C21.2652 8.16787 21.2011 8.12734 21.1556 8.05747L20.7897 7.51246C20.7456 7.44678 20.6843 7.42023 20.6057 7.43281L20.1385 7.51246C20.0227 7.53342 19.9986 7.59281 20.0661 7.69064L20.4961 8.31949C20.5416 8.38517 20.5361 8.44596 20.4796 8.50186L19.2888 9.70926C19.2337 9.76516 19.1675 9.78682 19.0904 9.77424L18.6934 9.70926C18.6107 9.69528 18.5728 9.73092 18.5797 9.81616L18.6232 10.2962C18.6314 10.3772 18.6755 10.4171 18.7555 10.4157C19.1958 10.4073 19.4294 12.0192 19.5224 12.3945C19.5403 12.4643 19.5279 12.5279 19.4852 12.5852C18.9243 13.3301 18.4709 14.1336 18.1249 14.9958Z" fill="#8FB5C7"/>
<path d="M15.2989 10.8244C17.5812 14.1552 17.1512 16.8656 13.7319 18.9786C11.3855 20.4291 8.56569 21.299 5.87199 21.8776C5.78097 21.8971 5.68609 21.8796 5.60792 21.829C5.52975 21.7784 5.47459 21.6987 5.45439 21.6072C4.09824 15.6142 9.81228 11.8285 14.5919 10.292C14.6553 10.271 14.7118 10.2836 14.7614 10.3297L15.2989 10.8244ZM13.0414 14.9476C13.0414 14.7947 12.9815 14.6481 12.8749 14.54C12.7683 14.4319 12.6237 14.3712 12.4729 14.3712C12.3221 14.3712 12.1775 14.4319 12.0709 14.54C11.9643 14.6481 11.9044 14.7947 11.9044 14.9476C11.9044 15.1005 11.9643 15.2471 12.0709 15.3552C12.1775 15.4633 12.3221 15.5241 12.4729 15.5241C12.6237 15.5241 12.7683 15.4633 12.8749 15.3552C12.9815 15.2471 13.0414 15.1005 13.0414 14.9476ZM12.0057 15.9014C12.0057 15.8135 11.9713 15.7293 11.91 15.6672C11.8488 15.6051 11.7657 15.5702 11.6791 15.5702C11.5924 15.5702 11.5093 15.6051 11.4481 15.6672C11.3868 15.7293 11.3524 15.8135 11.3524 15.9014C11.3524 15.9892 11.3868 16.0734 11.4481 16.1356C11.5093 16.1977 11.5924 16.2326 11.6791 16.2326C11.7657 16.2326 11.8488 16.1977 11.91 16.1356C11.9713 16.0734 12.0057 15.9892 12.0057 15.9014Z" fill="#000C1D"/>
<path d="M38.5478 18.6159C39.1225 19.1358 42.7838 18.7857 43.5735 18.5006C43.6396 18.4769 43.6596 18.4978 43.6334 18.5635L42.8975 20.3935C42.8685 20.4661 42.8155 20.5025 42.7383 20.5025C39.5133 20.5137 37.4074 20.5116 36.4206 20.4962C34.7047 20.4668 34.5228 19.207 34.8288 17.7733C35.1416 16.3059 35.5516 14.6493 36.0588 12.8032C36.6914 10.5079 38.1199 10.3025 40.3609 10.292C41.9458 10.2836 43.5301 10.2836 45.1136 10.292C45.1257 10.2919 45.1378 10.2945 45.1489 10.2994C45.16 10.3043 45.1699 10.3116 45.1781 10.3207C45.1863 10.3298 45.1925 10.3405 45.1964 10.3521C45.2002 10.3638 45.2016 10.3762 45.2004 10.3884L45.0309 12.1366C45.0226 12.2191 44.9799 12.2484 44.9027 12.2247C43.5714 11.8327 41.8969 12.0151 40.5035 12.0171C40.2017 12.0171 39.9577 12.3735 39.8813 12.6774C39.4058 14.5724 38.9365 16.4708 38.4734 18.3728C38.4629 18.4165 38.4642 18.4623 38.4773 18.5051C38.4904 18.548 38.5148 18.5863 38.5478 18.6159Z" fill="#FEFEFF"/>
<path d="M55.1297 10.3444C56.8559 10.4052 56.9676 11.6273 56.6802 13.0631C56.3632 14.6423 55.978 16.2032 55.5246 17.746C54.9457 19.7038 54.0795 20.4815 52.0949 20.4983C50.1944 20.5164 48.2938 20.5157 46.3933 20.4962C44.6878 20.4773 44.4252 19.2888 44.7477 17.8277C44.9889 16.7307 45.3858 15.1097 45.9385 12.9646C46.5669 10.5184 47.9582 10.3067 50.3274 10.2836C51.9302 10.2682 53.531 10.2885 55.1297 10.3444ZM51.6277 18.1128C52.0846 16.3101 52.5291 14.5074 52.9632 12.7005C53.1017 12.124 52.8495 12.0192 52.343 12.0171C51.8117 12.015 50.0256 11.8012 49.8519 12.4867C49.3819 14.3565 48.9016 16.2996 48.411 18.3162C48.398 18.3686 48.3962 18.4233 48.4059 18.4765C48.4155 18.5298 48.4363 18.5802 48.4669 18.6246C48.4975 18.6689 48.5371 18.7061 48.5831 18.7335C48.6291 18.7609 48.6804 18.778 48.7335 18.7836C49.4963 18.8675 51.3569 19.1735 51.6277 18.1128Z" fill="#FEFEFF"/>
<path d="M61.6025 18.8088C63.0358 18.8787 64.4657 18.85 65.8921 18.7229C65.9803 18.7145 66.0086 18.7522 65.9769 18.8361L65.3877 20.383C65.356 20.4655 65.2961 20.5067 65.2079 20.5067H55.8037C55.7879 20.5066 55.7726 20.5019 55.7594 20.4931C55.7462 20.4844 55.7357 20.4721 55.7292 20.4576C55.7227 20.443 55.7204 20.4269 55.7226 20.4111C55.7248 20.3953 55.7314 20.3805 55.7417 20.3684L62.7808 12.1199C62.7884 12.1111 62.7933 12.1003 62.7949 12.0887C62.7965 12.0771 62.7948 12.0654 62.79 12.0547C62.7853 12.0441 62.7775 12.0352 62.7678 12.0289C62.7582 12.0226 62.7469 12.0192 62.7354 12.0193C61.3296 12.0151 59.8246 11.8579 58.4602 12.2541C58.372 12.2792 58.3451 12.2492 58.3795 12.1639L59.068 10.4157C59.1024 10.3305 59.1644 10.2878 59.254 10.2878H68.5755C68.6982 10.2878 68.7195 10.3347 68.6396 10.4283L61.5549 18.6956C61.4957 18.7669 61.5115 18.8046 61.6025 18.8088Z" fill="#FEFEFF"/>
<path d="M78.8748 12.6649L74.2833 20.4082C74.2447 20.4739 74.1875 20.5067 74.1117 20.5067H71.6992C71.6165 20.5067 71.571 20.4648 71.5628 20.3809L70.8702 12.6838C70.869 12.6721 70.8639 12.6612 70.8556 12.653C70.8474 12.6448 70.8366 12.6397 70.825 12.6387C70.8135 12.6377 70.802 12.6409 70.7925 12.6476C70.783 12.6542 70.7761 12.6641 70.773 12.6754C70.1956 14.9616 69.6305 17.2744 69.0778 19.6137C69.0379 19.7814 69.0689 20.0407 69.1709 20.3914C69.1929 20.4683 69.164 20.5067 69.0841 20.5067L66.9775 20.5046C66.9574 20.505 66.9377 20.499 66.9211 20.4875C66.9045 20.4761 66.8918 20.4597 66.8848 20.4406C66.8778 20.4215 66.8768 20.4007 66.8819 20.381C66.887 20.3613 66.898 20.3437 66.9134 20.3306C67.1325 20.1322 67.2869 19.8618 67.3765 19.5194C68.0463 16.9565 68.6878 14.3866 69.3011 11.8097C69.4348 11.2479 69.4555 10.7707 69.3631 10.378C69.3494 10.3179 69.3728 10.2878 69.4334 10.2878H74.4983C74.559 10.2878 74.5921 10.3186 74.5976 10.3801L75.0586 15.9622C75.0594 15.9757 75.0645 15.9886 75.0731 15.9989C75.0818 16.0093 75.0934 16.0165 75.1064 16.0195C75.1195 16.0226 75.1331 16.0213 75.1453 16.0159C75.1575 16.0105 75.1677 16.0012 75.1743 15.9894L78.5482 10.378C78.584 10.3179 78.6371 10.2878 78.7074 10.2878H83.5593C83.6544 10.2878 83.6779 10.3298 83.6296 10.4136C83.3857 10.8328 83.1748 11.2164 83.0549 11.6881C82.4113 14.2049 81.7904 16.7273 81.1923 19.2553C81.0992 19.6515 81.1137 20.012 81.1675 20.3998C81.1771 20.4711 81.1461 20.5067 81.0744 20.5067H76.8881C76.8724 20.507 76.8569 20.5029 76.8433 20.4947C76.8298 20.4866 76.8188 20.4748 76.8115 20.4606C76.8042 20.4465 76.8009 20.4305 76.802 20.4146C76.8032 20.3987 76.8086 20.3834 76.8179 20.3705C76.9998 20.1049 77.1376 19.8024 77.2313 19.4628C77.846 17.2185 78.4214 14.9644 78.9575 12.7005C79.0044 12.5049 78.9768 12.493 78.8748 12.6649Z" fill="#FEFEFF"/>
<path d="M93.5816 10.3486C95.3058 10.4094 95.4215 11.6231 95.1321 13.061C94.8193 14.6192 94.4403 16.1592 93.9951 17.681C93.3956 19.7332 92.5439 20.4794 90.4745 20.5004C88.0447 20.5227 86.151 20.5199 84.7935 20.492C83.0694 20.4564 82.904 19.2175 83.1996 17.7753C83.4091 16.7594 83.6462 15.7504 83.9108 14.7485C84.7811 11.4637 84.994 10.3129 88.4899 10.2836C90.1919 10.2682 91.8892 10.2899 93.5816 10.3486ZM90.0796 18.1275C90.5344 16.2577 91.0016 14.3942 91.4523 12.5265C91.4666 12.4668 91.4675 12.4046 91.4548 12.3445C91.4421 12.2844 91.4162 12.228 91.3791 12.1795C91.3419 12.1309 91.2945 12.0915 91.2402 12.0641C91.186 12.0367 91.1263 12.0221 91.0657 12.0213C90.4393 12.0129 88.5126 11.753 88.2976 12.537C87.9972 13.6368 87.5182 15.5813 86.8608 18.3707C86.8443 18.4391 86.8574 18.502 86.9001 18.5593C87.2061 18.9744 89.4615 18.9366 89.8274 18.6117C89.9418 18.5111 90.0259 18.3497 90.0796 18.1275Z" fill="#FEFEFF"/>
<path d="M105.318 15.239C105.957 15.3962 107.137 15.4088 106.949 16.4149C106.606 18.247 106.337 20.4669 103.931 20.4878C101.054 20.513 98.1718 20.5172 95.2831 20.5004C95.2673 20.5004 95.2519 20.4959 95.2385 20.4874C95.2252 20.4788 95.2145 20.4665 95.2077 20.452C95.2008 20.4374 95.198 20.421 95.1996 20.4048C95.2013 20.3885 95.2073 20.373 95.2169 20.36C95.4898 19.9931 95.6634 19.6053 95.7854 19.1253C96.7681 15.2781 97.4083 12.6775 97.7059 11.3233C97.7473 11.1291 97.739 10.8202 97.6811 10.3968C97.6715 10.3255 97.7032 10.2899 97.7762 10.2899C100.427 10.2871 103.077 10.2864 105.727 10.2878C106.856 10.2899 108.278 10.4597 108.045 12.0193C107.741 14.0232 107.453 15.0294 105.328 15.1363C105.091 15.1475 105.088 15.1817 105.318 15.239ZM103.732 14.0505C103.836 13.7067 104.216 12.5202 104.131 12.1429C104.112 12.0591 104.06 12.0172 103.976 12.0172H101.481C101.416 12.0172 101.375 12.0493 101.359 12.1136L100.832 14.2831C100.829 14.2952 100.829 14.3077 100.831 14.3198C100.834 14.3319 100.839 14.3433 100.846 14.353C100.854 14.3626 100.863 14.3705 100.874 14.3758C100.885 14.3811 100.896 14.3838 100.908 14.3837L103.304 14.3712C103.4 14.371 103.493 14.3398 103.57 14.2821C103.647 14.2244 103.704 14.1432 103.732 14.0505ZM102.597 18.5656C102.717 18.203 103.246 16.4401 103.083 16.1823C103.04 16.1138 102.979 16.0789 102.899 16.0775L100.511 16.0418C100.433 16.0404 100.384 16.0782 100.365 16.155L99.734 18.7186C99.7161 18.7871 99.7422 18.8221 99.8125 18.8235C100.553 18.8381 101.768 18.9618 102.45 18.7186C102.523 18.6921 102.572 18.6411 102.597 18.5656Z" fill="#8FB5C7"/>
<path d="M112.954 14.3712C114.315 14.388 115.857 14.5305 117.172 14.1448C117.268 14.1169 117.305 14.1525 117.281 14.2517L116.818 16.1509C116.799 16.2291 116.75 16.262 116.671 16.2494C115.288 16.0398 113.896 15.9839 112.495 16.0817C112.414 16.0873 112.363 16.1306 112.342 16.2116L111.724 18.7166C111.706 18.7851 111.733 18.82 111.803 18.8214C113.932 18.8444 115.253 18.9493 116.702 18.5845C116.791 18.5622 116.816 18.5936 116.779 18.6788L116.051 20.3809C116.015 20.4648 115.953 20.5067 115.863 20.5067H107.329C107.309 20.5066 107.289 20.5009 107.271 20.4901C107.254 20.4793 107.24 20.4639 107.231 20.4456C107.221 20.4272 107.217 20.4066 107.218 20.386C107.22 20.3653 107.227 20.3455 107.238 20.3285C107.482 19.9848 107.662 19.5865 107.774 19.1421C108.398 16.6658 109.008 14.186 109.603 11.7028C109.708 11.2668 109.734 10.8273 109.68 10.3843C109.671 10.32 109.699 10.2878 109.762 10.2878H118.245C118.259 10.2878 118.273 10.2908 118.287 10.2967C118.3 10.3026 118.312 10.3113 118.322 10.3221C118.331 10.333 118.339 10.3458 118.343 10.3598C118.348 10.3738 118.349 10.3885 118.348 10.4031L118.201 12.1262C118.194 12.2198 118.146 12.2541 118.056 12.2289C116.628 11.8474 114.974 12.0172 113.496 12.0172C113.415 12.0172 113.364 12.057 113.345 12.1367L112.837 14.2182C112.812 14.3188 112.851 14.3698 112.954 14.3712Z" fill="#8FB5C7"/>
<path d="M121.641 12.0235C120.678 12.0025 119.578 11.86 118.701 12.3295C118.687 12.338 118.671 12.3417 118.654 12.34C118.638 12.3383 118.622 12.3314 118.61 12.3203C118.597 12.3091 118.589 12.2943 118.585 12.2779C118.582 12.2614 118.583 12.2443 118.59 12.2289L119.322 10.3927C119.349 10.3228 119.4 10.2878 119.475 10.2878H128.79C128.869 10.2878 128.904 10.3277 128.897 10.4073L128.718 12.2771C128.707 12.3819 128.66 12.4022 128.577 12.3379C127.911 11.8222 126.545 12.0109 125.73 12.0214C125.661 12.0214 125.618 12.0563 125.6 12.1262C124.968 14.6647 124.128 17.3499 123.783 19.9324C123.775 19.9952 123.782 20.056 123.806 20.1147C123.846 20.2153 123.854 20.3118 123.83 20.404C123.814 20.4725 123.771 20.5067 123.7 20.5067H119.537C119.518 20.5064 119.5 20.5009 119.485 20.4909C119.469 20.4808 119.457 20.4666 119.449 20.4499C119.441 20.4332 119.438 20.4147 119.441 20.3966C119.443 20.3784 119.451 20.3614 119.462 20.3474C119.692 20.0735 119.858 19.7472 119.958 19.3685C120.594 16.9705 121.186 14.562 121.734 12.143C121.752 12.0647 121.721 12.0249 121.641 12.0235Z" fill="#8FB5C7"/>
<path d="M16.9879 17.7209C17.0113 17.3408 17.1547 17.0759 17.4179 16.9264C20.716 15.9873 24.0416 14.7436 27.3947 13.1952C28.3609 12.748 29.2057 12.268 29.9293 11.7551C29.994 11.709 30.0237 11.6454 30.0182 11.5644C30.0071 11.4288 29.9306 11.3604 29.7887 11.359C29.4345 11.3576 29.44 11.3177 29.8052 11.2395C30.3496 11.1221 30.8988 11.0697 31.4529 11.0823C31.4893 11.0828 31.525 11.0926 31.5568 11.1106C31.5886 11.1287 31.6155 11.1546 31.6352 11.1859C31.6548 11.2172 31.6666 11.253 31.6694 11.2902C31.6722 11.3273 31.666 11.3646 31.6513 11.3988C31.333 12.122 28.602 13.3944 27.8185 13.7465C24.3014 15.3298 20.6912 16.6546 16.9879 17.7209Z" fill="#8FB5C7"/>
<path d="M24.8954 11.5057L27.3989 12.3253C27.4196 12.3319 27.4379 12.3447 27.4512 12.3622C27.4645 12.3797 27.4721 12.4009 27.473 12.423C27.4739 12.445 27.468 12.4668 27.4563 12.4854C27.4445 12.5039 27.4273 12.5183 27.4071 12.5266L23.6054 14.1867C23.5921 14.1924 23.5778 14.1953 23.5634 14.1952C23.549 14.1951 23.5348 14.192 23.5217 14.1861C23.5085 14.1802 23.4966 14.1717 23.4869 14.1609C23.4771 14.1502 23.4696 14.1376 23.4648 14.1238L23.2394 13.4635C23.2339 13.4461 23.2329 13.4274 23.2365 13.4094C23.2401 13.3915 23.2483 13.3747 23.2601 13.3608L24.7837 11.5393C24.797 11.5232 24.8147 11.5114 24.8346 11.5054C24.8544 11.4995 24.8756 11.4996 24.8954 11.5057Z" fill="#8FB5C7"/>
<path d="M20.1199 13.0191L22.4228 13.4593C22.4536 13.4648 22.4823 13.4786 22.5059 13.4993C22.5296 13.52 22.5473 13.5467 22.5572 13.5767L22.8012 14.3166C22.8156 14.3608 22.8121 14.409 22.7916 14.4507C22.7711 14.4923 22.7351 14.524 22.6916 14.5388L18.4412 16.0187C18.4072 16.0301 18.3705 16.0304 18.3363 16.0198C18.302 16.0092 18.2718 15.9881 18.2499 15.9594C18.2279 15.9307 18.2152 15.8958 18.2136 15.8595C18.2119 15.8233 18.2214 15.7873 18.2407 15.7567L19.9421 13.0967C19.9608 13.0673 19.9877 13.0443 20.0193 13.0304C20.051 13.0166 20.086 13.0127 20.1199 13.0191Z" fill="#8FB5C7"/>
<path d="M15.6442 19.5026C15.7586 19.2357 15.9281 19.0114 16.1527 18.8297C16.3498 19.1749 16.5924 19.4789 16.8804 19.7416C17.5399 20.3432 18.373 20.0057 19.0697 20.5926C19.8821 21.2802 20.1943 21.647 21.3231 21.691C21.4457 21.6966 21.4595 21.6603 21.3644 21.582L19.1152 19.7416C19.0518 19.6899 19.0318 19.6249 19.0552 19.5466L19.264 18.8654C19.2833 18.8025 19.3254 18.7759 19.3901 18.7857L22.181 19.2448C22.2527 19.256 22.3071 19.293 22.3443 19.3559L23.0617 20.5318C23.0961 20.5877 23.103 20.6464 23.0823 20.7079L22.8219 21.4961C22.786 21.6023 22.8219 21.6428 22.9294 21.6177L23.4627 21.4898C23.5289 21.4744 23.5716 21.4332 23.5909 21.3661L23.6715 21.0978C23.6991 21 23.7618 20.9636 23.8596 20.9888L24.3579 21.1167C24.4226 21.1334 24.4867 21.1306 24.5501 21.1083C24.9705 20.9602 25.3164 20.7037 25.5879 20.339C25.632 20.2803 25.6899 20.2509 25.7616 20.2509C26.0634 20.2482 26.2998 20.1203 26.4707 19.8673C26.5285 19.7821 26.5092 19.7213 26.4128 19.685L26.2722 19.6326C26.2047 19.6074 26.1764 19.5585 26.1874 19.4858L26.3838 18.2428C26.3935 18.1771 26.4203 18.1191 26.4645 18.0688L28.2899 15.9789C28.3547 15.9049 28.416 15.9077 28.4739 15.9873L28.5152 16.046C28.5814 16.1368 28.6289 16.1278 28.6579 16.0188C28.8164 15.4416 28.8729 14.9448 28.8274 14.5284C28.7723 14.0267 28.9473 13.7444 29.3525 13.6815C29.4255 13.6703 29.4648 13.7018 29.4703 13.7758C30.0285 20.6723 22.5407 24.8604 17.0561 20.798C16.815 20.6206 16.3443 20.1888 15.6442 19.5026Z" fill="#8FB5C7"/>
<path d="M27.6077 15.7735C27.1632 16.2221 26.7663 16.7 26.3383 17.1675C26.3232 17.1847 26.3032 17.197 26.2811 17.2026C26.259 17.2082 26.2357 17.2069 26.2143 17.1989L24.3062 16.524C24.2429 16.5015 24.1878 16.4601 24.1482 16.4051C24.1087 16.3502 24.0866 16.2844 24.0848 16.2164C24.083 16.1484 24.1016 16.0814 24.1382 16.0244C24.1748 15.9674 24.2276 15.9231 24.2896 15.8972L27.8599 14.3921C27.9288 14.3628 27.9701 14.3859 27.9839 14.4613C28.0776 14.991 27.9522 15.4284 27.6077 15.7735Z" fill="#8FB5C7"/>
<path d="M12.4729 15.5241C12.7869 15.5241 13.0414 15.266 13.0414 14.9476C13.0414 14.6292 12.7869 14.3712 12.4729 14.3712C12.1589 14.3712 11.9044 14.6292 11.9044 14.9476C11.9044 15.266 12.1589 15.5241 12.4729 15.5241Z" fill="#FEFEFF"/>
<path d="M11.6791 16.2326C11.8594 16.2326 12.0057 16.0843 12.0057 15.9014C12.0057 15.7185 11.8594 15.5702 11.6791 15.5702C11.4987 15.5702 11.3524 15.7185 11.3524 15.9014C11.3524 16.0843 11.4987 16.2326 11.6791 16.2326Z" fill="#FEFEFF"/>
<path d="M23.533 16.8991L22.2554 18.4419C22.2058 18.502 22.1424 18.5258 22.0652 18.5132L19.3777 18.0751C19.333 18.0686 19.2918 18.047 19.2608 18.0138C19.2297 17.9806 19.2106 17.9377 19.2065 17.8921C19.2024 17.8466 19.2137 17.8009 19.2384 17.7626C19.263 17.7243 19.2998 17.6955 19.3426 17.681L23.3139 16.2787C23.3759 16.2577 23.4165 16.2787 23.4358 16.3416L23.5619 16.7524C23.5785 16.8069 23.5688 16.8558 23.533 16.8991Z" fill="#8FB5C7"/>
<path d="M31.1014 23.259L30.9443 22.3304C30.9305 22.2493 30.8843 22.2004 30.8058 22.1837C30.5467 22.1292 30.3338 22.0097 30.167 21.8252C30.4289 21.7218 30.7086 21.6855 31.0063 21.7162C31.089 21.7246 31.1497 21.6918 31.1882 21.6177L31.5293 20.9448C31.612 20.7841 31.6603 20.7946 31.6741 20.9763L31.7361 21.8001C31.7402 21.8713 31.7754 21.9216 31.8415 21.951L32.5217 22.2507C32.5365 22.2572 32.5487 22.2686 32.5564 22.2829C32.5641 22.2973 32.5669 22.3138 32.5643 22.33C32.5617 22.3461 32.5538 22.3609 32.542 22.372C32.5301 22.3831 32.515 22.3898 32.4989 22.3912L31.6679 22.4604C31.6086 22.4659 31.5631 22.4946 31.5314 22.5463L31.1014 23.259Z" fill="#FEFEFF"/>
</g>
<defs>
<clipPath id="clip0_65_1303">
<rect width="129" height="24.1061" fill="white" transform="translate(0 0.492432)"/>
</clipPath>
</defs>
</svg>
