<svg width="31" height="24" viewBox="0 0 31 24" fill="none" xmlns="http://www.w3.org/2000/svg">
<g clip-path="url(#clip0_130_4600)">
<g clip-path="url(#clip1_130_4600)">
<path d="M17.9181 14.5035C18.3797 12.7496 18.468 10.9852 18.1827 9.2106C18.0794 8.57545 17.9181 7.82712 17.668 7.1228C21.9969 4.97003 26.7331 6.51491 28.7322 11.0448C28.768 11.1271 28.7467 11.1894 28.6681 11.2313L28.2753 11.4493C28.205 11.487 28.1554 11.4688 28.1265 11.3948L27.9322 10.898C27.9274 10.8852 27.92 10.8735 27.9104 10.8639C27.9008 10.8542 27.8893 10.8467 27.8766 10.8419C27.8639 10.8372 27.8504 10.8352 27.8369 10.8362C27.8234 10.8372 27.8103 10.8411 27.7984 10.8477C27.7825 10.8564 27.7694 10.8695 27.7606 10.8854L27.62 11.1265C27.5828 11.1906 27.529 11.211 27.4587 11.1873L24.8849 10.3467C24.8167 10.326 24.759 10.2795 24.7237 10.2168L23.6487 8.34278C23.6325 8.31674 23.6239 8.28658 23.6239 8.25579C23.6239 8.225 23.6325 8.19484 23.6487 8.1688L24.0663 7.44561C24.1118 7.36722 24.0917 7.31481 24.0063 7.2884L23.5991 7.16263C23.5191 7.13748 23.4564 7.16053 23.411 7.2318L23.0368 7.82712C22.9954 7.89126 22.9382 7.91851 22.8652 7.90887L21.141 7.68667C21.0584 7.67536 20.9943 7.6349 20.9488 7.5651L20.5829 7.02009C20.5388 6.95427 20.4774 6.92786 20.3989 6.94044L19.9317 7.02009C19.8159 7.04105 19.7917 7.10037 19.8593 7.19827L20.2893 7.82712C20.3348 7.89273 20.3292 7.95352 20.2728 8.00949L19.082 9.21689C19.0268 9.27264 18.9607 9.29444 18.8835 9.28187L18.4866 9.21689C18.4039 9.20284 18.3661 9.23848 18.3729 9.32379L18.4163 9.80382C18.4246 9.88473 18.4686 9.92456 18.5486 9.9233C18.9152 9.91617 19.1384 11.0318 19.2567 11.6225C19.2805 11.7415 19.3001 11.8392 19.3156 11.9021C19.3336 11.9719 19.3212 12.0354 19.2784 12.0928C18.7211 12.8313 18.2636 13.642 17.9181 14.5035Z" fill="#8FB5C7"/>
<path d="M16.5386 17.3983C16.7453 16.979 16.8487 16.7694 17.0554 16.455C20.3534 15.5159 23.8349 14.2511 27.1881 12.7028C28.1542 12.2555 28.9991 11.7755 29.7226 11.2627C29.905 11.1328 29.7906 10.8687 29.582 10.8666C29.2279 10.8651 29.2333 10.8253 29.5986 10.7471C30.1429 10.6297 30.6922 10.5773 31.2462 10.5899C31.4029 10.5922 31.5055 10.7647 31.4447 10.9064C31.1263 11.6296 28.3954 12.902 27.6119 13.2541C24.0948 14.8374 20.2419 16.3319 16.5386 17.3983Z" fill="#8FB5C7"/>
<path d="M27.1922 11.8329L24.6887 11.0133C24.6689 11.0072 24.6478 11.0071 24.6279 11.013C24.6081 11.019 24.5904 11.0308 24.5771 11.0469L23.0535 12.8684C23.0416 12.8823 23.0334 12.899 23.0298 12.917C23.0262 12.935 23.0272 12.9537 23.0328 12.9711L23.2581 13.6314C23.263 13.6452 23.2705 13.6578 23.2803 13.6684C23.2901 13.6791 23.3019 13.6876 23.3151 13.6935C23.3282 13.6994 23.3424 13.7025 23.3568 13.7027C23.3712 13.7028 23.3854 13.7 23.3987 13.6943L27.2005 12.0342C27.2209 12.0261 27.2382 12.0118 27.2502 11.9932C27.2621 11.9746 27.2681 11.9527 27.2672 11.9305C27.2663 11.9084 27.2585 11.8871 27.2451 11.8696C27.2317 11.8521 27.2132 11.8392 27.1922 11.8329ZM19.9132 12.5268L22.2162 12.967C22.247 12.9724 22.2757 12.9862 22.2993 13.0069C22.323 13.0275 22.3407 13.0543 22.3506 13.0843L22.5945 13.8243C22.6089 13.8685 22.6055 13.9167 22.585 13.9583C22.5644 14 22.5285 14.0317 22.485 14.0465L18.2346 15.5264C18.2005 15.5377 18.1639 15.5381 18.1296 15.5275C18.0954 15.5168 18.0652 15.4957 18.0432 15.467C18.0213 15.4383 18.0086 15.4035 18.007 15.3672C18.0053 15.3309 18.0148 15.295 18.034 15.2644L19.7354 12.6043C19.7541 12.575 19.781 12.5519 19.8127 12.5381C19.8443 12.5243 19.8793 12.5203 19.9132 12.5268ZM15.9461 18.3374C15.7241 18.5154 15.5494 18.7467 15.4375 19.0102C16.1377 19.6963 16.6082 20.1281 16.8495 20.3057C22.334 24.3681 29.8218 20.1799 29.2637 13.2835C29.2581 13.2093 29.2188 13.1778 29.1458 13.1891C28.7406 13.252 28.5655 13.5342 28.6207 14.036C28.6662 14.4523 28.6098 14.9491 28.4512 15.5264C28.4223 15.6354 28.3747 15.6444 28.3086 15.5536C28.2494 15.4696 28.1769 15.3794 28.0832 15.4866L26.2578 17.5765C26.2138 17.6268 26.1869 17.6846 26.1772 17.7504L25.9808 18.9935C25.9698 19.066 25.9979 19.115 26.0655 19.1402L26.0845 19.1469L26.1054 19.1542C26.2135 19.1913 26.3556 19.2402 26.264 19.375C26.093 19.6278 25.8567 19.7556 25.5549 19.7586C25.4832 19.7586 25.4253 19.7879 25.3812 19.8466C25.1098 20.2113 24.7637 20.4677 24.3435 20.6159C24.28 20.6381 24.2159 20.6411 24.1512 20.6243L23.653 20.4964C23.4843 20.453 23.4394 20.6444 23.4053 20.7909C23.3981 20.8211 23.3915 20.8496 23.3842 20.8737C23.3768 20.9047 23.3608 20.9327 23.3381 20.9547C23.3153 20.9766 23.2869 20.9914 23.2561 20.9974L22.7227 21.1253C22.6152 21.1504 22.5794 21.1098 22.6152 21.0037L22.8757 20.2155C22.886 20.1866 22.8896 20.1556 22.886 20.125C22.8824 20.0944 22.8718 20.0651 22.855 20.0395L22.1376 18.8635C22.1004 18.8006 22.0461 18.7635 21.9743 18.7524L19.1835 18.2933C19.1188 18.2835 19.0766 18.3101 19.0574 18.373L18.8486 19.0543C18.8252 19.1324 18.845 19.1974 18.9085 19.2492L21.1577 21.0896C21.2528 21.1678 21.239 21.2041 21.1164 21.1986C20.0964 21.1588 19.7431 20.8553 19.0849 20.2897C19.0148 20.2296 18.9412 20.1663 18.863 20.1003C18.5186 19.8099 18.1407 19.7458 17.7669 19.6823C17.3849 19.6173 17.0072 19.5531 16.6737 19.2492C16.3853 18.986 16.1398 18.6783 15.9461 18.3374Z" fill="#8FB5C7"/>
<path d="M27.401 15.2812C27.1139 15.5708 26.8466 15.8729 26.578 16.1764C26.4308 16.3427 26.2832 16.5097 26.1317 16.6749C26.1165 16.6922 26.0966 16.7044 26.0744 16.71C26.0523 16.7156 26.029 16.7143 26.0076 16.7063L24.0995 16.0314C24.0362 16.0089 23.9811 15.9675 23.9416 15.9125C23.902 15.8576 23.8799 15.7918 23.8781 15.7238C23.8763 15.6558 23.8949 15.5889 23.9315 15.5319C23.9681 15.4749 24.0209 15.4305 24.083 15.4046L27.6532 13.8996C27.7221 13.8702 27.7634 13.8933 27.7773 13.9687C27.8709 14.4984 27.7456 14.9361 27.401 15.2812ZM22.0487 17.9496L23.3263 16.4068C23.3436 16.3872 23.3554 16.3632 23.3605 16.3374C23.3656 16.3116 23.3638 16.2849 23.3553 16.2601L23.2292 15.8492C23.2099 15.7863 23.1692 15.7654 23.1072 15.7863L19.1359 17.1887C19.0931 17.2032 19.0564 17.232 19.0317 17.2703C19.007 17.3086 18.9958 17.3542 18.9998 17.3998C19.0039 17.4454 19.023 17.4883 19.0541 17.5215C19.0852 17.5547 19.1264 17.5763 19.1711 17.5828L21.8586 18.0209C21.9357 18.0334 21.9991 18.0095 22.0487 17.9496Z" fill="#8FB5C7"/>
<path d="M17.4511 6.6168C17.3767 6.4621 17.2989 6.30028 17.2187 6.12713C16.3525 3.86745 13.4128 1.62664 11.3269 0.618375C11.2875 0.599317 11.2483 0.579892 11.2093 0.560101C10.9622 0.435588 10.8082 0.358029 10.4896 0.482123C8.56119 1.22408 6.76413 2.27816 5.1684 3.60333C-2.12506 9.2756 -1.3552 19.027 7.42673 22.6429C8.22326 23.0188 9.06197 23.3213 9.9108 23.5506C15.3139 20.6474 17.2156 16.4651 17.934 14.5035C18.3957 12.7496 18.4839 10.9852 18.1986 9.21061C18.1499 8.06987 17.8489 7.44353 17.4511 6.6168Z" fill="white"/>
<path d="M29.7159 5.3704C29.4761 5.44293 29.0457 5.55486 29.233 5.3704L29.77 4.9302C29.873 4.8625 29.9354 4.73945 29.9292 4.61578L29.9003 3.93033C29.892 3.75005 29.9369 3.73538 30.0346 3.88631L30.4647 4.56128C30.506 4.62542 30.5645 4.65477 30.6404 4.64932L31.3929 4.59481C31.5721 4.58077 31.5866 4.62479 31.4363 4.72687L30.7665 5.17965C30.6989 5.2243 30.6714 5.28781 30.6838 5.3704C30.7086 5.54019 30.8099 6.09987 30.6693 6.1963C30.61 6.23822 30.5659 6.2248 30.537 6.15647C30.4026 5.83575 30.3361 5.16078 29.7159 5.3704ZM30.8947 22.7666L30.7375 21.838C30.7237 21.7569 30.6776 21.708 30.599 21.6913C30.34 21.6368 30.1271 21.5173 29.9602 21.3328C30.2222 21.2293 30.5019 21.193 30.7996 21.2238C30.8822 21.2322 30.9428 21.1993 30.9815 21.1253L31.3226 20.4524C31.4053 20.2916 31.4534 20.3021 31.4673 20.4839L31.5293 21.3076C31.5335 21.3789 31.5686 21.4292 31.6347 21.4586L32.3149 21.7583C32.3798 21.7868 32.366 21.8925 32.2921 21.8988L31.4611 21.9679C31.4331 21.9698 31.4061 21.9787 31.3823 21.9937C31.3585 22.0086 31.3387 22.0293 31.3247 22.0539L30.8947 22.7666Z" fill="#FEFEFF"/>
<path d="M17.9341 14.5035C18.3957 12.7496 18.484 10.9852 18.1987 9.21061C18.1408 7.85648 17.7274 7.22762 17.2188 6.12713C16.3526 3.86745 13.4129 1.62663 11.327 0.61837C11.0045 0.463253 10.8556 0.339578 10.4897 0.482118C8.56125 1.22408 6.76419 2.27816 5.16846 3.60333C7.26471 6.02651 8.7387 8.14575 9.56562 11.2439C9.62206 11.4548 9.74341 11.5045 9.92947 11.3927L9.97019 11.368C10.9224 10.7888 13.2773 9.35713 14.3204 9.34057C14.847 9.33072 15.1095 9.66129 15.1081 10.3321L15.9342 14.3588L13.5411 18.4862C13.8904 18.7922 13.5803 19.1046 13.2909 19.2345C11.87 19.8801 10.4176 20.4517 8.93923 20.9471C8.13298 21.2175 7.85596 21.9721 7.4425 22.6429C8.2375 23.0181 9.06346 23.3219 9.91086 23.5506C15.314 20.6474 17.2157 16.4651 17.9341 14.5035Z" fill="#EDEDED"/>
<path d="M13.6488 18.4862C11.3024 19.9367 8.48256 20.8067 5.78886 21.3852C5.6979 21.4047 5.6028 21.3871 5.52486 21.3366C5.44678 21.2861 5.39155 21.2064 5.37126 21.1148C4.01511 15.1218 9.72914 11.3361 14.5088 9.79962C14.5376 9.78886 14.5689 9.7867 14.599 9.79338C14.629 9.80007 14.6565 9.81532 14.6783 9.83735C17.6285 12.5525 16.9128 16.469 13.6488 18.4862ZM12.9583 14.4552C12.9583 14.3023 12.8984 14.1557 12.7918 14.0476C12.6852 13.9395 12.5405 13.8788 12.3898 13.8788C12.239 13.8788 12.0944 13.9395 11.9878 14.0476C11.8812 14.1557 11.8213 14.3023 11.8213 14.4552C11.8213 14.6081 11.8812 14.7547 11.9878 14.8628C12.0944 14.9709 12.239 15.0317 12.3898 15.0317C12.5405 15.0317 12.6852 14.9709 12.7918 14.8628C12.8984 14.7547 12.9583 14.6081 12.9583 14.4552ZM11.9226 15.409C11.9226 15.3212 11.8881 15.2369 11.8269 15.1748C11.7656 15.1127 11.6826 15.0778 11.5959 15.0778C11.5093 15.0778 11.4262 15.1127 11.365 15.1748C11.3037 15.2369 11.2693 15.3212 11.2693 15.409C11.2693 15.4968 11.3037 15.5811 11.365 15.6432C11.4262 15.7053 11.5093 15.7402 11.5959 15.7402C11.6826 15.7402 11.7656 15.7053 11.8269 15.6432C11.8881 15.5811 11.9226 15.4968 11.9226 15.409Z" fill="#000C1D"/>
</g>
</g>
<defs>
<clipPath id="clip0_130_4600">
<rect width="31" height="24" fill="white"/>
</clipPath>
<clipPath id="clip1_130_4600">
<rect width="128.587" height="23.2676" fill="white" transform="translate(0.206543 0.41922)"/>
</clipPath>
</defs>
</svg>
