<svg width="13" height="8" viewBox="0 0 13 8" fill="none" xmlns="http://www.w3.org/2000/svg">
<path fill-rule="evenodd" clip-rule="evenodd" d="M2.81991 1.70112C3.47351 0.961112 4.56932 0.80878 5.39998 1.34246L6.53898 2.07423C7.36964 2.60791 8.46546 2.45558 9.11906 1.71557L9.53417 1.24558C10.2866 0.393714 11.6323 0.450625 12.3101 1.36297C12.8141 2.04137 12.7744 2.97995 12.215 3.61337L9.84304 6.29887C9.18944 7.03887 8.09363 7.1912 7.26297 6.65753L6.12397 5.92575C5.29331 5.39208 4.1975 5.54441 3.5439 6.28442L3.12878 6.7544C2.37638 7.60627 1.0306 7.54936 0.352811 6.63701C-0.151174 5.95862 -0.111482 5.02003 0.447978 4.38661L2.81991 1.70112Z" fill="black"/>
<path fill-rule="evenodd" clip-rule="evenodd" d="M2.81991 1.70112C3.47351 0.961112 4.56932 0.80878 5.39998 1.34246L6.53898 2.07423C7.36964 2.60791 8.46546 2.45558 9.11906 1.71557L9.53417 1.24558C10.2866 0.393714 11.6323 0.450625 12.3101 1.36297C12.8141 2.04137 12.7744 2.97995 12.215 3.61337L9.84304 6.29887C9.18944 7.03887 8.09363 7.1912 7.26297 6.65753L6.12397 5.92575C5.29331 5.39208 4.1975 5.54441 3.5439 6.28442L3.12878 6.7544C2.37638 7.60627 1.0306 7.54936 0.352811 6.63701C-0.151174 5.95862 -0.111482 5.02003 0.447978 4.38661L2.81991 1.70112Z" fill="url(#paint0_linear_601_3570)"/>
<defs>
<linearGradient id="paint0_linear_601_3570" x1="5.50165" y1="0.087023" x2="7.16123" y2="7.91299" gradientUnits="userSpaceOnUse">
<stop stop-color="#FFA903"/>
<stop offset="1" stop-color="#EE8539"/>
</linearGradient>
</defs>
</svg>
