<svg width="172" height="34" viewBox="0 0 172 34" fill="none" xmlns="http://www.w3.org/2000/svg">
<rect width="172" height="34" rx="7" fill="#1D2544"/>
<path d="M29.1665 10.125H17.8332C17.0519 10.125 16.4165 10.7604 16.4165 11.5417V19.3333C16.4165 20.1146 17.0519 20.75 17.8332 20.75H22.7915V22.1667H20.6665V23.5833H22.7915H24.2082H26.3332V22.1667H24.2082V20.75H29.1665C29.9478 20.75 30.5832 20.1146 30.5832 19.3333V11.5417C30.5832 10.7604 29.9478 10.125 29.1665 10.125ZM17.8332 17.9167V11.5417H29.1665L29.1679 17.9167H17.8332Z" fill="#1EA0FF"/>
<path d="M54.47 20.1C53.8767 20.1 53.3667 20.0033 52.94 19.81C52.5133 19.61 52.18 19.3067 51.94 18.9C51.7 18.4867 51.57 17.9733 51.55 17.36C51.5433 17.0733 51.54 16.79 51.54 16.51C51.54 16.23 51.5433 15.9433 51.55 15.65C51.57 15.0433 51.7033 14.5367 51.95 14.13C52.1967 13.7233 52.5333 13.4167 52.96 13.21C53.3933 13.0033 53.8967 12.9 54.47 12.9C55.0433 12.9 55.5467 13.0033 55.98 13.21C56.4133 13.4167 56.7533 13.7233 57 14.13C57.2467 14.5367 57.38 15.0433 57.4 15.65C57.4133 15.9433 57.42 16.23 57.42 16.51C57.42 16.79 57.4133 17.0733 57.4 17.36C57.38 17.9733 57.25 18.4867 57.01 18.9C56.77 19.3067 56.4333 19.61 56 19.81C55.5733 20.0033 55.0633 20.1 54.47 20.1ZM54.47 18.95C54.9033 18.95 55.2567 18.8233 55.53 18.57C55.8033 18.31 55.95 17.89 55.97 17.31C55.9833 17.0167 55.99 16.7467 55.99 16.5C55.99 16.2467 55.9833 15.9767 55.97 15.69C55.9567 15.3033 55.8833 14.99 55.75 14.75C55.6233 14.5033 55.45 14.3267 55.23 14.22C55.01 14.1067 54.7567 14.05 54.47 14.05C54.19 14.05 53.94 14.1067 53.72 14.22C53.5 14.3267 53.3233 14.5033 53.19 14.75C53.0633 14.99 52.9933 15.3033 52.98 15.69C52.9733 15.9767 52.97 16.2467 52.97 16.5C52.97 16.7467 52.9733 17.0167 52.98 17.31C53 17.89 53.1467 18.31 53.42 18.57C53.6933 18.8233 54.0433 18.95 54.47 18.95ZM58.8631 21.9C58.7965 21.9 58.7398 21.8767 58.6931 21.83C58.6465 21.7833 58.6231 21.7267 58.6231 21.66V15.04C58.6231 14.9733 58.6465 14.9167 58.6931 14.87C58.7398 14.8233 58.7965 14.8 58.8631 14.8H59.6531C59.7265 14.8 59.7831 14.8233 59.8231 14.87C59.8698 14.9167 59.8931 14.9733 59.8931 15.04V15.44C60.0531 15.2267 60.2631 15.05 60.5231 14.91C60.7831 14.77 61.1065 14.7 61.4931 14.7C61.8465 14.7 62.1531 14.7567 62.4131 14.87C62.6731 14.9833 62.8898 15.1467 63.0631 15.36C63.2365 15.5667 63.3698 15.8133 63.4631 16.1C63.5565 16.3867 63.6098 16.7033 63.6231 17.05C63.6298 17.1633 63.6331 17.28 63.6331 17.4C63.6331 17.52 63.6298 17.64 63.6231 17.76C63.6165 18.0933 63.5665 18.4033 63.4731 18.69C63.3798 18.97 63.2431 19.2167 63.0631 19.43C62.8898 19.6367 62.6731 19.8 62.4131 19.92C62.1531 20.04 61.8465 20.1 61.4931 20.1C61.1331 20.1 60.8265 20.0367 60.5731 19.91C60.3198 19.7767 60.1131 19.6033 59.9531 19.39V21.66C59.9531 21.7267 59.9298 21.7833 59.8831 21.83C59.8431 21.8767 59.7865 21.9 59.7131 21.9H58.8631ZM61.1231 19.03C61.4098 19.03 61.6331 18.97 61.7931 18.85C61.9531 18.7233 62.0665 18.56 62.1331 18.36C62.2065 18.16 62.2498 17.94 62.2631 17.7C62.2765 17.5 62.2765 17.3 62.2631 17.1C62.2498 16.86 62.2065 16.64 62.1331 16.44C62.0665 16.24 61.9531 16.08 61.7931 15.96C61.6331 15.8333 61.4098 15.77 61.1231 15.77C60.8498 15.77 60.6265 15.8333 60.4531 15.96C60.2865 16.0867 60.1631 16.25 60.0831 16.45C60.0098 16.6433 59.9665 16.8433 59.9531 17.05C59.9465 17.17 59.9431 17.2967 59.9431 17.43C59.9431 17.5633 59.9465 17.6933 59.9531 17.82C59.9598 18.02 60.0065 18.2133 60.0931 18.4C60.1798 18.58 60.3065 18.73 60.4731 18.85C60.6398 18.97 60.8565 19.03 61.1231 19.03ZM66.9957 20.1C66.2557 20.1 65.669 19.8867 65.2357 19.46C64.8024 19.0333 64.569 18.4267 64.5357 17.64C64.529 17.5733 64.5257 17.49 64.5257 17.39C64.5257 17.2833 64.529 17.2 64.5357 17.14C64.5624 16.64 64.6757 16.2067 64.8757 15.84C65.0824 15.4733 65.3657 15.1933 65.7257 15C66.0857 14.8 66.509 14.7 66.9957 14.7C67.5357 14.7 67.989 14.8133 68.3557 15.04C68.7224 15.26 68.999 15.57 69.1857 15.97C69.3724 16.3633 69.4657 16.82 69.4657 17.34V17.55C69.4657 17.6167 69.4424 17.6733 69.3957 17.72C69.349 17.7667 69.289 17.79 69.2157 17.79H65.8957C65.8957 17.79 65.8957 17.8 65.8957 17.82C65.8957 17.84 65.8957 17.8567 65.8957 17.87C65.9024 18.1033 65.9457 18.32 66.0257 18.52C66.1124 18.7133 66.2357 18.87 66.3957 18.99C66.5624 19.11 66.759 19.17 66.9857 19.17C67.1724 19.17 67.329 19.1433 67.4557 19.09C67.5824 19.03 67.6857 18.9633 67.7657 18.89C67.8457 18.8167 67.9024 18.7567 67.9357 18.71C67.9957 18.63 68.0424 18.5833 68.0757 18.57C68.1157 18.55 68.1724 18.54 68.2457 18.54H69.1057C69.1724 18.54 69.2257 18.56 69.2657 18.6C69.3124 18.64 69.3324 18.69 69.3257 18.75C69.319 18.8567 69.2624 18.9867 69.1557 19.14C69.0557 19.2933 68.909 19.4433 68.7157 19.59C68.5224 19.7367 68.279 19.86 67.9857 19.96C67.699 20.0533 67.369 20.1 66.9957 20.1ZM65.8957 16.95H68.1057V16.92C68.1057 16.66 68.0624 16.4333 67.9757 16.24C67.889 16.0467 67.7624 15.8933 67.5957 15.78C67.429 15.6667 67.229 15.61 66.9957 15.61C66.7624 15.61 66.5624 15.6667 66.3957 15.78C66.229 15.8933 66.1024 16.0467 66.0157 16.24C65.9357 16.4333 65.8957 16.66 65.8957 16.92V16.95ZM70.7672 20C70.7005 20 70.6439 19.9767 70.5972 19.93C70.5505 19.8833 70.5272 19.8267 70.5272 19.76V15.04C70.5272 14.9733 70.5505 14.9167 70.5972 14.87C70.6439 14.8233 70.7005 14.8 70.7672 14.8H71.5872C71.6539 14.8 71.7105 14.8233 71.7572 14.87C71.8039 14.9167 71.8272 14.9733 71.8272 15.04V15.45C72.0005 15.2367 72.2205 15.06 72.4872 14.92C72.7605 14.7733 73.0972 14.7 73.4972 14.7C73.9039 14.7 74.2572 14.7933 74.5572 14.98C74.8572 15.16 75.0872 15.4167 75.2472 15.75C75.4139 16.0833 75.4972 16.4833 75.4972 16.95V19.76C75.4972 19.8267 75.4739 19.8833 75.4272 19.93C75.3805 19.9767 75.3239 20 75.2572 20H74.3772C74.3105 20 74.2539 19.9767 74.2072 19.93C74.1605 19.8833 74.1372 19.8267 74.1372 19.76V17.01C74.1372 16.6233 74.0405 16.32 73.8472 16.1C73.6605 15.88 73.3872 15.77 73.0272 15.77C72.6805 15.77 72.4039 15.88 72.1972 16.1C71.9905 16.32 71.8872 16.6233 71.8872 17.01V19.76C71.8872 19.8267 71.8639 19.8833 71.8172 19.93C71.7705 19.9767 71.7139 20 71.6472 20H70.7672ZM80.9826 20.1C80.6359 20.1 80.3292 20.0433 80.0626 19.93C79.8026 19.81 79.5859 19.6433 79.4126 19.43C79.2392 19.2167 79.1059 18.9667 79.0126 18.68C78.9192 18.3867 78.8659 18.0667 78.8526 17.72C78.8459 17.6 78.8426 17.4933 78.8426 17.4C78.8426 17.3 78.8459 17.19 78.8526 17.07C78.8659 16.7367 78.9159 16.4267 79.0026 16.14C79.0959 15.8533 79.2292 15.6033 79.4026 15.39C79.5826 15.17 79.8026 15 80.0626 14.88C80.3292 14.76 80.6359 14.7 80.9826 14.7C81.3426 14.7 81.6459 14.7633 81.8926 14.89C82.1459 15.01 82.3559 15.1667 82.5226 15.36V13.14C82.5226 13.0733 82.5426 13.0167 82.5826 12.97C82.6292 12.9233 82.6892 12.9 82.7626 12.9H83.6126C83.6792 12.9 83.7359 12.9233 83.7826 12.97C83.8292 13.0167 83.8526 13.0733 83.8526 13.14V19.76C83.8526 19.8267 83.8292 19.8833 83.7826 19.93C83.7359 19.9767 83.6792 20 83.6126 20H82.8226C82.7492 20 82.6892 19.9767 82.6426 19.93C82.6026 19.8833 82.5826 19.8267 82.5826 19.76V19.39C82.4159 19.5967 82.2026 19.7667 81.9426 19.9C81.6892 20.0333 81.3692 20.1 80.9826 20.1ZM81.3526 19.03C81.6326 19.03 81.8559 18.9667 82.0226 18.84C82.1892 18.7133 82.3126 18.5533 82.3926 18.36C82.4726 18.16 82.5159 17.9567 82.5226 17.75C82.5292 17.63 82.5326 17.5033 82.5326 17.37C82.5326 17.23 82.5292 17.1 82.5226 16.98C82.5159 16.78 82.4692 16.59 82.3826 16.41C82.2959 16.2233 82.1692 16.07 82.0026 15.95C81.8359 15.83 81.6192 15.77 81.3526 15.77C81.0726 15.77 80.8492 15.8333 80.6826 15.96C80.5226 16.08 80.4059 16.24 80.3326 16.44C80.2592 16.64 80.2159 16.86 80.2026 17.1C80.1959 17.3 80.1959 17.5 80.2026 17.7C80.2159 17.94 80.2592 18.16 80.3326 18.36C80.4059 18.56 80.5226 18.7233 80.6826 18.85C80.8492 18.97 81.0726 19.03 81.3526 19.03ZM87.4254 20.1C86.6854 20.1 86.0987 19.8867 85.6654 19.46C85.2321 19.0333 84.9987 18.4267 84.9654 17.64C84.9587 17.5733 84.9554 17.49 84.9554 17.39C84.9554 17.2833 84.9587 17.2 84.9654 17.14C84.9921 16.64 85.1054 16.2067 85.3054 15.84C85.5121 15.4733 85.7954 15.1933 86.1554 15C86.5154 14.8 86.9387 14.7 87.4254 14.7C87.9654 14.7 88.4187 14.8133 88.7854 15.04C89.1521 15.26 89.4287 15.57 89.6154 15.97C89.8021 16.3633 89.8954 16.82 89.8954 17.34V17.55C89.8954 17.6167 89.8721 17.6733 89.8254 17.72C89.7787 17.7667 89.7187 17.79 89.6454 17.79H86.3254C86.3254 17.79 86.3254 17.8 86.3254 17.82C86.3254 17.84 86.3254 17.8567 86.3254 17.87C86.3321 18.1033 86.3754 18.32 86.4554 18.52C86.5421 18.7133 86.6654 18.87 86.8254 18.99C86.9921 19.11 87.1887 19.17 87.4154 19.17C87.6021 19.17 87.7587 19.1433 87.8854 19.09C88.0121 19.03 88.1154 18.9633 88.1954 18.89C88.2754 18.8167 88.3321 18.7567 88.3654 18.71C88.4254 18.63 88.4721 18.5833 88.5054 18.57C88.5454 18.55 88.6021 18.54 88.6754 18.54H89.5354C89.6021 18.54 89.6554 18.56 89.6954 18.6C89.7421 18.64 89.7621 18.69 89.7554 18.75C89.7487 18.8567 89.6921 18.9867 89.5854 19.14C89.4854 19.2933 89.3387 19.4433 89.1454 19.59C88.9521 19.7367 88.7087 19.86 88.4154 19.96C88.1287 20.0533 87.7987 20.1 87.4254 20.1ZM86.3254 16.95H88.5354V16.92C88.5354 16.66 88.4921 16.4333 88.4054 16.24C88.3187 16.0467 88.1921 15.8933 88.0254 15.78C87.8587 15.6667 87.6587 15.61 87.4254 15.61C87.1921 15.61 86.9921 15.6667 86.8254 15.78C86.6587 15.8933 86.5321 16.0467 86.4454 16.24C86.3654 16.4333 86.3254 16.66 86.3254 16.92V16.95ZM92.9269 20.1C92.5269 20.1 92.1835 20.0533 91.8969 19.96C91.6169 19.8667 91.3869 19.75 91.2069 19.61C91.0269 19.47 90.8935 19.33 90.8069 19.19C90.7202 19.05 90.6735 18.9333 90.6669 18.84C90.6602 18.7667 90.6802 18.71 90.7269 18.67C90.7802 18.6233 90.8369 18.6 90.8969 18.6H91.6869C91.7135 18.6 91.7369 18.6033 91.7569 18.61C91.7769 18.6167 91.8035 18.6367 91.8369 18.67C91.9235 18.7433 92.0135 18.82 92.1069 18.9C92.2069 18.98 92.3235 19.05 92.4569 19.11C92.5902 19.1633 92.7569 19.19 92.9569 19.19C93.2169 19.19 93.4335 19.14 93.6069 19.04C93.7869 18.9333 93.8769 18.7833 93.8769 18.59C93.8769 18.45 93.8369 18.3367 93.7569 18.25C93.6835 18.1633 93.5435 18.0867 93.3369 18.02C93.1302 17.9467 92.8369 17.87 92.4569 17.79C92.0835 17.7033 91.7735 17.5933 91.5269 17.46C91.2802 17.3267 91.0969 17.16 90.9769 16.96C90.8569 16.76 90.7969 16.5267 90.7969 16.26C90.7969 16 90.8735 15.7533 91.0269 15.52C91.1869 15.28 91.4202 15.0833 91.7269 14.93C92.0402 14.7767 92.4269 14.7 92.8869 14.7C93.2469 14.7 93.5602 14.7467 93.8269 14.84C94.0935 14.9267 94.3135 15.0367 94.4869 15.17C94.6669 15.3033 94.8035 15.44 94.8969 15.58C94.9902 15.7133 95.0402 15.83 95.0469 15.93C95.0535 16.0033 95.0335 16.0633 94.9869 16.11C94.9402 16.15 94.8869 16.17 94.8269 16.17H94.0869C94.0535 16.17 94.0235 16.1633 93.9969 16.15C93.9702 16.1367 93.9435 16.12 93.9169 16.1C93.8435 16.0333 93.7635 15.9633 93.6769 15.89C93.5902 15.8167 93.4835 15.7533 93.3569 15.7C93.2369 15.64 93.0769 15.61 92.8769 15.61C92.6235 15.61 92.4302 15.6667 92.2969 15.78C92.1635 15.8867 92.0969 16.0233 92.0969 16.19C92.0969 16.3033 92.1269 16.4033 92.1869 16.49C92.2535 16.57 92.3835 16.6467 92.5769 16.72C92.7702 16.7933 93.0635 16.87 93.4569 16.95C93.9035 17.03 94.2569 17.15 94.5169 17.31C94.7835 17.4633 94.9702 17.6433 95.0769 17.85C95.1902 18.05 95.2469 18.2733 95.2469 18.52C95.2469 18.82 95.1569 19.09 94.9769 19.33C94.8035 19.57 94.5435 19.76 94.1969 19.9C93.8569 20.0333 93.4335 20.1 92.9269 20.1ZM96.5291 20C96.4625 20 96.4058 19.9767 96.3591 19.93C96.3125 19.8833 96.2891 19.8267 96.2891 19.76V13.14C96.2891 13.0733 96.3125 13.0167 96.3591 12.97C96.4058 12.9233 96.4625 12.9 96.5291 12.9H97.3391C97.4125 12.9 97.4691 12.9233 97.5091 12.97C97.5558 13.0167 97.5791 13.0733 97.5791 13.14V16.56L99.2591 14.97C99.3191 14.9167 99.3725 14.8767 99.4191 14.85C99.4658 14.8167 99.5358 14.8 99.6291 14.8H100.559C100.626 14.8 100.679 14.82 100.719 14.86C100.759 14.9 100.779 14.9533 100.779 15.02C100.779 15.0467 100.772 15.0767 100.759 15.11C100.746 15.1433 100.719 15.1733 100.679 15.2L98.6191 17.13L100.929 19.61C100.996 19.6767 101.029 19.7333 101.029 19.78C101.029 19.8467 101.006 19.9 100.959 19.94C100.919 19.98 100.869 20 100.809 20H99.8591C99.7591 20 99.6858 19.9867 99.6391 19.96C99.5991 19.9267 99.5491 19.8833 99.4891 19.83L97.5791 17.82V19.76C97.5791 19.8267 97.5558 19.8833 97.5091 19.93C97.4691 19.9767 97.4125 20 97.3391 20H96.5291ZM104.127 20C103.727 20 103.391 19.93 103.117 19.79C102.844 19.65 102.641 19.4433 102.507 19.17C102.374 18.89 102.307 18.5433 102.307 18.13V15.86H101.517C101.451 15.86 101.394 15.8367 101.347 15.79C101.301 15.7433 101.277 15.6867 101.277 15.62V15.04C101.277 14.9733 101.301 14.9167 101.347 14.87C101.394 14.8233 101.451 14.8 101.517 14.8H102.307V13.14C102.307 13.0733 102.327 13.0167 102.367 12.97C102.414 12.9233 102.474 12.9 102.547 12.9H103.357C103.424 12.9 103.481 12.9233 103.527 12.97C103.574 13.0167 103.597 13.0733 103.597 13.14V14.8H104.847C104.914 14.8 104.971 14.8233 105.017 14.87C105.064 14.9167 105.087 14.9733 105.087 15.04V15.62C105.087 15.6867 105.064 15.7433 105.017 15.79C104.971 15.8367 104.914 15.86 104.847 15.86H103.597V18.03C103.597 18.3033 103.644 18.5167 103.737 18.67C103.837 18.8233 104.007 18.9 104.247 18.9H104.937C105.004 18.9 105.061 18.9233 105.107 18.97C105.154 19.0167 105.177 19.0733 105.177 19.14V19.76C105.177 19.8267 105.154 19.8833 105.107 19.93C105.061 19.9767 105.004 20 104.937 20H104.127ZM108.364 20.1C107.831 20.1 107.381 20.0067 107.014 19.82C106.654 19.6333 106.378 19.37 106.184 19.03C105.998 18.69 105.891 18.2933 105.864 17.84C105.858 17.72 105.854 17.5733 105.854 17.4C105.854 17.2267 105.858 17.08 105.864 16.96C105.891 16.5 106.001 16.1033 106.194 15.77C106.394 15.43 106.674 15.1667 107.034 14.98C107.401 14.7933 107.844 14.7 108.364 14.7C108.884 14.7 109.324 14.7933 109.684 14.98C110.051 15.1667 110.331 15.43 110.524 15.77C110.724 16.1033 110.838 16.5 110.864 16.96C110.871 17.08 110.874 17.2267 110.874 17.4C110.874 17.5733 110.871 17.72 110.864 17.84C110.838 18.2933 110.728 18.69 110.534 19.03C110.348 19.37 110.071 19.6333 109.704 19.82C109.344 20.0067 108.898 20.1 108.364 20.1ZM108.364 19.11C108.718 19.11 108.991 19 109.184 18.78C109.378 18.5533 109.484 18.2233 109.504 17.79C109.511 17.69 109.514 17.56 109.514 17.4C109.514 17.24 109.511 17.11 109.504 17.01C109.484 16.5833 109.378 16.2567 109.184 16.03C108.991 15.8033 108.718 15.69 108.364 15.69C108.011 15.69 107.738 15.8033 107.544 16.03C107.351 16.2567 107.244 16.5833 107.224 17.01C107.218 17.11 107.214 17.24 107.214 17.4C107.214 17.56 107.218 17.69 107.224 17.79C107.244 18.2233 107.351 18.5533 107.544 18.78C107.738 19 108.011 19.11 108.364 19.11ZM112.232 21.9C112.166 21.9 112.109 21.8767 112.062 21.83C112.016 21.7833 111.992 21.7267 111.992 21.66V15.04C111.992 14.9733 112.016 14.9167 112.062 14.87C112.109 14.8233 112.166 14.8 112.232 14.8H113.022C113.096 14.8 113.152 14.8233 113.192 14.87C113.239 14.9167 113.262 14.9733 113.262 15.04V15.44C113.422 15.2267 113.632 15.05 113.892 14.91C114.152 14.77 114.476 14.7 114.862 14.7C115.216 14.7 115.522 14.7567 115.782 14.87C116.042 14.9833 116.259 15.1467 116.432 15.36C116.606 15.5667 116.739 15.8133 116.832 16.1C116.926 16.3867 116.979 16.7033 116.992 17.05C116.999 17.1633 117.002 17.28 117.002 17.4C117.002 17.52 116.999 17.64 116.992 17.76C116.986 18.0933 116.936 18.4033 116.842 18.69C116.749 18.97 116.612 19.2167 116.432 19.43C116.259 19.6367 116.042 19.8 115.782 19.92C115.522 20.04 115.216 20.1 114.862 20.1C114.502 20.1 114.196 20.0367 113.942 19.91C113.689 19.7767 113.482 19.6033 113.322 19.39V21.66C113.322 21.7267 113.299 21.7833 113.252 21.83C113.212 21.8767 113.156 21.9 113.082 21.9H112.232ZM114.492 19.03C114.779 19.03 115.002 18.97 115.162 18.85C115.322 18.7233 115.436 18.56 115.502 18.36C115.576 18.16 115.619 17.94 115.632 17.7C115.646 17.5 115.646 17.3 115.632 17.1C115.619 16.86 115.576 16.64 115.502 16.44C115.436 16.24 115.322 16.08 115.162 15.96C115.002 15.8333 114.779 15.77 114.492 15.77C114.219 15.77 113.996 15.8333 113.822 15.96C113.656 16.0867 113.532 16.25 113.452 16.45C113.379 16.6433 113.336 16.8433 113.322 17.05C113.316 17.17 113.312 17.2967 113.312 17.43C113.312 17.5633 113.316 17.6933 113.322 17.82C113.329 18.02 113.376 18.2133 113.462 18.4C113.549 18.58 113.676 18.73 113.842 18.85C114.009 18.97 114.226 19.03 114.492 19.03ZM121.986 20C121.88 20 121.8 19.9767 121.746 19.93C121.7 19.8767 121.66 19.8167 121.626 19.75L119.756 15.11C119.743 15.0767 119.736 15.0467 119.736 15.02C119.736 14.96 119.756 14.91 119.796 14.87C119.843 14.8233 119.896 14.8 119.956 14.8H120.766C120.846 14.8 120.906 14.8233 120.946 14.87C120.986 14.91 121.013 14.95 121.026 14.99L122.356 18.5L123.686 14.99C123.7 14.95 123.726 14.91 123.766 14.87C123.806 14.8233 123.866 14.8 123.946 14.8H124.766C124.82 14.8 124.866 14.8233 124.906 14.87C124.953 14.91 124.976 14.96 124.976 15.02C124.976 15.0467 124.973 15.0767 124.966 15.11L123.086 19.75C123.06 19.8167 123.02 19.8767 122.966 19.93C122.913 19.9767 122.833 20 122.726 20H121.986ZM127.943 20.1C127.203 20.1 126.616 19.8867 126.183 19.46C125.75 19.0333 125.516 18.4267 125.483 17.64C125.476 17.5733 125.473 17.49 125.473 17.39C125.473 17.2833 125.476 17.2 125.483 17.14C125.51 16.64 125.623 16.2067 125.823 15.84C126.03 15.4733 126.313 15.1933 126.673 15C127.033 14.8 127.456 14.7 127.943 14.7C128.483 14.7 128.936 14.8133 129.303 15.04C129.67 15.26 129.946 15.57 130.133 15.97C130.32 16.3633 130.413 16.82 130.413 17.34V17.55C130.413 17.6167 130.39 17.6733 130.343 17.72C130.296 17.7667 130.236 17.79 130.163 17.79H126.843C126.843 17.79 126.843 17.8 126.843 17.82C126.843 17.84 126.843 17.8567 126.843 17.87C126.85 18.1033 126.893 18.32 126.973 18.52C127.06 18.7133 127.183 18.87 127.343 18.99C127.51 19.11 127.706 19.17 127.933 19.17C128.12 19.17 128.276 19.1433 128.403 19.09C128.53 19.03 128.633 18.9633 128.713 18.89C128.793 18.8167 128.85 18.7567 128.883 18.71C128.943 18.63 128.99 18.5833 129.023 18.57C129.063 18.55 129.12 18.54 129.193 18.54H130.053C130.12 18.54 130.173 18.56 130.213 18.6C130.26 18.64 130.28 18.69 130.273 18.75C130.266 18.8567 130.21 18.9867 130.103 19.14C130.003 19.2933 129.856 19.4433 129.663 19.59C129.47 19.7367 129.226 19.86 128.933 19.96C128.646 20.0533 128.316 20.1 127.943 20.1ZM126.843 16.95H129.053V16.92C129.053 16.66 129.01 16.4333 128.923 16.24C128.836 16.0467 128.71 15.8933 128.543 15.78C128.376 15.6667 128.176 15.61 127.943 15.61C127.71 15.61 127.51 15.6667 127.343 15.78C127.176 15.8933 127.05 16.0467 126.963 16.24C126.883 16.4333 126.843 16.66 126.843 16.92V16.95ZM131.714 20C131.648 20 131.591 19.9767 131.544 19.93C131.498 19.8833 131.474 19.8267 131.474 19.76V15.05C131.474 14.9767 131.498 14.9167 131.544 14.87C131.591 14.8233 131.648 14.8 131.714 14.8H132.524C132.591 14.8 132.648 14.8233 132.694 14.87C132.748 14.9167 132.774 14.9767 132.774 15.05V15.46C132.928 15.2467 133.124 15.0833 133.364 14.97C133.611 14.8567 133.894 14.8 134.214 14.8H134.624C134.698 14.8 134.754 14.8233 134.794 14.87C134.841 14.9167 134.864 14.9733 134.864 15.04V15.76C134.864 15.8267 134.841 15.8833 134.794 15.93C134.754 15.9767 134.698 16 134.624 16H133.844C133.524 16 133.274 16.09 133.094 16.27C132.921 16.45 132.834 16.6967 132.834 17.01V19.76C132.834 19.8267 132.811 19.8833 132.764 19.93C132.718 19.9767 132.658 20 132.584 20H131.714ZM137.614 20.1C137.214 20.1 136.871 20.0533 136.584 19.96C136.304 19.8667 136.074 19.75 135.894 19.61C135.714 19.47 135.581 19.33 135.494 19.19C135.408 19.05 135.361 18.9333 135.354 18.84C135.348 18.7667 135.368 18.71 135.414 18.67C135.468 18.6233 135.524 18.6 135.584 18.6H136.374C136.401 18.6 136.424 18.6033 136.444 18.61C136.464 18.6167 136.491 18.6367 136.524 18.67C136.611 18.7433 136.701 18.82 136.794 18.9C136.894 18.98 137.011 19.05 137.144 19.11C137.278 19.1633 137.444 19.19 137.644 19.19C137.904 19.19 138.121 19.14 138.294 19.04C138.474 18.9333 138.564 18.7833 138.564 18.59C138.564 18.45 138.524 18.3367 138.444 18.25C138.371 18.1633 138.231 18.0867 138.024 18.02C137.818 17.9467 137.524 17.87 137.144 17.79C136.771 17.7033 136.461 17.5933 136.214 17.46C135.968 17.3267 135.784 17.16 135.664 16.96C135.544 16.76 135.484 16.5267 135.484 16.26C135.484 16 135.561 15.7533 135.714 15.52C135.874 15.28 136.108 15.0833 136.414 14.93C136.728 14.7767 137.114 14.7 137.574 14.7C137.934 14.7 138.248 14.7467 138.514 14.84C138.781 14.9267 139.001 15.0367 139.174 15.17C139.354 15.3033 139.491 15.44 139.584 15.58C139.678 15.7133 139.728 15.83 139.734 15.93C139.741 16.0033 139.721 16.0633 139.674 16.11C139.628 16.15 139.574 16.17 139.514 16.17H138.774C138.741 16.17 138.711 16.1633 138.684 16.15C138.658 16.1367 138.631 16.12 138.604 16.1C138.531 16.0333 138.451 15.9633 138.364 15.89C138.278 15.8167 138.171 15.7533 138.044 15.7C137.924 15.64 137.764 15.61 137.564 15.61C137.311 15.61 137.118 15.6667 136.984 15.78C136.851 15.8867 136.784 16.0233 136.784 16.19C136.784 16.3033 136.814 16.4033 136.874 16.49C136.941 16.57 137.071 16.6467 137.264 16.72C137.458 16.7933 137.751 16.87 138.144 16.95C138.591 17.03 138.944 17.15 139.204 17.31C139.471 17.4633 139.658 17.6433 139.764 17.85C139.878 18.05 139.934 18.2733 139.934 18.52C139.934 18.82 139.844 19.09 139.664 19.33C139.491 19.57 139.231 19.76 138.884 19.9C138.544 20.0333 138.121 20.1 137.614 20.1ZM141.207 20C141.14 20 141.083 19.9767 141.037 19.93C140.99 19.8833 140.967 19.8267 140.967 19.76V15.04C140.967 14.9733 140.99 14.9167 141.037 14.87C141.083 14.8233 141.14 14.8 141.207 14.8H142.037C142.11 14.8 142.167 14.8233 142.207 14.87C142.253 14.9167 142.277 14.9733 142.277 15.04V19.76C142.277 19.8267 142.253 19.8833 142.207 19.93C142.167 19.9767 142.11 20 142.037 20H141.207ZM141.167 13.94C141.093 13.94 141.033 13.92 140.987 13.88C140.947 13.8333 140.927 13.7733 140.927 13.7V12.98C140.927 12.9133 140.947 12.8567 140.987 12.81C141.033 12.7633 141.093 12.74 141.167 12.74H142.077C142.15 12.74 142.21 12.7633 142.257 12.81C142.303 12.8567 142.327 12.9133 142.327 12.98V13.7C142.327 13.7733 142.303 13.8333 142.257 13.88C142.21 13.92 142.15 13.94 142.077 13.94H141.167ZM145.933 20.1C145.399 20.1 144.949 20.0067 144.583 19.82C144.223 19.6333 143.946 19.37 143.753 19.03C143.566 18.69 143.459 18.2933 143.433 17.84C143.426 17.72 143.423 17.5733 143.423 17.4C143.423 17.2267 143.426 17.08 143.433 16.96C143.459 16.5 143.569 16.1033 143.763 15.77C143.963 15.43 144.243 15.1667 144.603 14.98C144.969 14.7933 145.413 14.7 145.933 14.7C146.453 14.7 146.893 14.7933 147.253 14.98C147.619 15.1667 147.899 15.43 148.093 15.77C148.293 16.1033 148.406 16.5 148.433 16.96C148.439 17.08 148.443 17.2267 148.443 17.4C148.443 17.5733 148.439 17.72 148.433 17.84C148.406 18.2933 148.296 18.69 148.103 19.03C147.916 19.37 147.639 19.6333 147.273 19.82C146.913 20.0067 146.466 20.1 145.933 20.1ZM145.933 19.11C146.286 19.11 146.559 19 146.753 18.78C146.946 18.5533 147.053 18.2233 147.073 17.79C147.079 17.69 147.083 17.56 147.083 17.4C147.083 17.24 147.079 17.11 147.073 17.01C147.053 16.5833 146.946 16.2567 146.753 16.03C146.559 15.8033 146.286 15.69 145.933 15.69C145.579 15.69 145.306 15.8033 145.113 16.03C144.919 16.2567 144.813 16.5833 144.793 17.01C144.786 17.11 144.783 17.24 144.783 17.4C144.783 17.56 144.786 17.69 144.793 17.79C144.813 18.2233 144.919 18.5533 145.113 18.78C145.306 19 145.579 19.11 145.933 19.11ZM149.791 20C149.724 20 149.667 19.9767 149.621 19.93C149.574 19.8833 149.551 19.8267 149.551 19.76V15.04C149.551 14.9733 149.574 14.9167 149.621 14.87C149.667 14.8233 149.724 14.8 149.791 14.8H150.611C150.677 14.8 150.734 14.8233 150.781 14.87C150.827 14.9167 150.851 14.9733 150.851 15.04V15.45C151.024 15.2367 151.244 15.06 151.511 14.92C151.784 14.7733 152.121 14.7 152.521 14.7C152.927 14.7 153.281 14.7933 153.581 14.98C153.881 15.16 154.111 15.4167 154.271 15.75C154.437 16.0833 154.521 16.4833 154.521 16.95V19.76C154.521 19.8267 154.497 19.8833 154.451 19.93C154.404 19.9767 154.347 20 154.281 20H153.401C153.334 20 153.277 19.9767 153.231 19.93C153.184 19.8833 153.161 19.8267 153.161 19.76V17.01C153.161 16.6233 153.064 16.32 152.871 16.1C152.684 15.88 152.411 15.77 152.051 15.77C151.704 15.77 151.427 15.88 151.221 16.1C151.014 16.32 150.911 16.6233 150.911 17.01V19.76C150.911 19.8267 150.887 19.8833 150.841 19.93C150.794 19.9767 150.737 20 150.671 20H149.791Z" fill="#9BA7D6"/>
</svg>
