<svg width="214" height="29" viewBox="0 0 214 29" fill="none" xmlns="http://www.w3.org/2000/svg">
<rect x="67" width="80" height="3" rx="1.5" fill="#7985B0"/>
<path d="M93.8469 25C93.7536 25 93.6743 24.9673 93.6089 24.902C93.5436 24.8367 93.5109 24.7573 93.5109 24.664V15.55C93.5109 15.4473 93.5436 15.3633 93.6089 15.298C93.6743 15.2327 93.7536 15.2 93.8469 15.2H97.4729C98.6023 15.2 99.4936 15.4613 100.147 15.984C100.8 16.5067 101.127 17.2673 101.127 18.266C101.127 18.9567 100.954 19.5307 100.609 19.988C100.273 20.4453 99.8203 20.7767 99.2509 20.982L101.295 24.552C101.323 24.608 101.337 24.6593 101.337 24.706C101.337 24.79 101.304 24.86 101.239 24.916C101.183 24.972 101.118 25 101.043 25H99.7689C99.6103 25 99.4889 24.958 99.4049 24.874C99.3209 24.79 99.2556 24.706 99.2089 24.622L97.4029 21.304H95.4569V24.664C95.4569 24.7573 95.4243 24.8367 95.3589 24.902C95.3029 24.9673 95.2236 25 95.1209 25H93.8469ZM95.4569 19.722H97.4309C98.0003 19.722 98.4249 19.596 98.7049 19.344C98.9849 19.0827 99.1249 18.7187 99.1249 18.252C99.1249 17.7853 98.9849 17.4213 98.7049 17.16C98.4343 16.8893 98.0096 16.754 97.4309 16.754H95.4569V19.722ZM105.817 25.14C104.781 25.14 103.96 24.8413 103.353 24.244C102.746 23.6467 102.42 22.7973 102.373 21.696C102.364 21.6027 102.359 21.486 102.359 21.346C102.359 21.1967 102.364 21.08 102.373 20.996C102.41 20.296 102.569 19.6893 102.849 19.176C103.138 18.6627 103.535 18.2707 104.039 18C104.543 17.72 105.136 17.58 105.817 17.58C106.573 17.58 107.208 17.7387 107.721 18.056C108.234 18.364 108.622 18.798 108.883 19.358C109.144 19.9087 109.275 20.548 109.275 21.276V21.57C109.275 21.6633 109.242 21.7427 109.177 21.808C109.112 21.8733 109.028 21.906 108.925 21.906H104.277C104.277 21.906 104.277 21.92 104.277 21.948C104.277 21.976 104.277 21.9993 104.277 22.018C104.286 22.3447 104.347 22.648 104.459 22.928C104.58 23.1987 104.753 23.418 104.977 23.586C105.21 23.754 105.486 23.838 105.803 23.838C106.064 23.838 106.284 23.8007 106.461 23.726C106.638 23.642 106.783 23.5487 106.895 23.446C107.007 23.3433 107.086 23.2593 107.133 23.194C107.217 23.082 107.282 23.0167 107.329 22.998C107.385 22.97 107.464 22.956 107.567 22.956H108.771C108.864 22.956 108.939 22.984 108.995 23.04C109.06 23.096 109.088 23.166 109.079 23.25C109.07 23.3993 108.99 23.5813 108.841 23.796C108.701 24.0107 108.496 24.2207 108.225 24.426C107.954 24.6313 107.614 24.804 107.203 24.944C106.802 25.0747 106.34 25.14 105.817 25.14ZM104.277 20.73H107.371V20.688C107.371 20.324 107.31 20.0067 107.189 19.736C107.068 19.4653 106.89 19.2507 106.657 19.092C106.424 18.9333 106.144 18.854 105.817 18.854C105.49 18.854 105.21 18.9333 104.977 19.092C104.744 19.2507 104.566 19.4653 104.445 19.736C104.333 20.0067 104.277 20.324 104.277 20.688V20.73ZM111.111 25C111.018 25 110.938 24.9673 110.873 24.902C110.808 24.8367 110.775 24.7573 110.775 24.664V15.396C110.775 15.3027 110.808 15.2233 110.873 15.158C110.938 15.0927 111.018 15.06 111.111 15.06H112.273C112.366 15.06 112.446 15.0927 112.511 15.158C112.576 15.2233 112.609 15.3027 112.609 15.396V24.664C112.609 24.7573 112.576 24.8367 112.511 24.902C112.446 24.9673 112.366 25 112.273 25H111.111ZM115.782 27.66C115.707 27.66 115.642 27.632 115.586 27.576C115.53 27.52 115.502 27.4547 115.502 27.38C115.502 27.3427 115.502 27.3053 115.502 27.268C115.511 27.24 115.53 27.2027 115.558 27.156L116.65 24.566L113.962 18.224C113.925 18.1307 113.906 18.0653 113.906 18.028C113.915 17.944 113.948 17.874 114.004 17.818C114.06 17.7527 114.13 17.72 114.214 17.72H115.348C115.46 17.72 115.544 17.748 115.6 17.804C115.656 17.86 115.698 17.9207 115.726 17.986L117.588 22.564L119.506 17.986C119.534 17.9113 119.576 17.8507 119.632 17.804C119.688 17.748 119.772 17.72 119.884 17.72H121.004C121.079 17.72 121.144 17.748 121.2 17.804C121.265 17.86 121.298 17.9253 121.298 18C121.298 18.056 121.279 18.1307 121.242 18.224L117.28 27.394C117.243 27.4687 117.196 27.5293 117.14 27.576C117.084 27.632 117 27.66 116.888 27.66H115.782Z" fill="#7985B0"/>
</svg>
