<svg width="24" height="24" viewBox="0 0 24 24" fill="none" xmlns="http://www.w3.org/2000/svg">
<g clip-path="url(#clip0_111_3449)">
<path d="M12 2.00098C6.486 2.00098 2 6.48698 2 12.001C2 17.515 6.486 22.001 12 22.001C17.514 22.001 22 17.515 22 12.001C22 6.48698 17.514 2.00098 12 2.00098ZM12 20.001C7.589 20.001 4 16.412 4 12.001C4 7.58998 7.589 4.00098 12 4.00098C16.411 4.00098 20 7.58998 20 12.001C20 16.412 16.411 20.001 12 20.001Z" fill="#7985B0"/>
<path d="M14.293 8.29401L12 10.587L9.707 8.29401L8.293 9.70801L10.586 12.001L8.293 14.294L9.707 15.708L12 13.415L14.293 15.708L15.707 14.294L13.414 12.001L15.707 9.70801L14.293 8.29401Z" fill="#7985B0"/>
</g>
<defs>
<clipPath id="clip0_111_3449">
<rect width="24" height="24" fill="white"/>
</clipPath>
</defs>
</svg>
