<svg width="16" height="16" viewBox="0 0 16 16" fill="none" xmlns="http://www.w3.org/2000/svg">
<path d="M15 15L11.5 11.5M13.25 7.125C13.25 7.92935 13.0916 8.72582 12.7838 9.46894C12.476 10.2121 12.0248 10.8873 11.456 11.456C10.8873 12.0248 10.2121 12.476 9.46894 12.7838C8.72582 13.0916 7.92935 13.25 7.125 13.25C6.32065 13.25 5.52418 13.0916 4.78106 12.7838C4.03794 12.476 3.36273 12.0248 2.79397 11.456C2.22521 10.8873 1.77405 10.2121 1.46624 9.46894C1.15843 8.72582 1 7.92935 1 7.125C1 5.50055 1.64531 3.94263 2.79397 2.79397C3.94263 1.64531 5.50055 1 7.125 1C8.74945 1 10.3074 1.64531 11.456 2.79397C12.6047 3.94263 13.25 5.50055 13.25 7.125Z" stroke="#1EA0FF" stroke-width="2" stroke-linecap="round" stroke-linejoin="round"/>
</svg>
