<svg width="67" height="67" viewBox="0 0 67 67" fill="none" xmlns="http://www.w3.org/2000/svg">
<g clip-path="url(#clip0_130_4661)">
<path d="M58.5314 33.5C58.5314 32.5142 58.4738 31.542 58.3625 30.5862C58.2193 29.357 58.7063 28.1383 59.6365 27.3222L63.4661 23.9625C64.7659 22.8222 65.0579 20.9127 64.1585 19.4359L60.0627 12.7116C59.1633 11.2348 57.3325 10.6183 55.7231 11.2501L50.9493 13.1237C49.7939 13.5772 48.4952 13.4184 47.4659 12.7249C46.36 11.9799 45.1913 11.3209 43.9696 10.7574C42.8453 10.2389 42.038 9.21329 41.8248 7.99376L40.9424 2.94616C40.6445 1.24278 39.1657 0 37.4366 0H29.5631C27.834 0 26.3551 1.24278 26.0575 2.94603L25.175 7.99363C24.9618 9.21316 24.1545 10.2389 23.0302 10.7573C21.8085 11.3208 20.6398 11.9797 19.5339 12.7247C18.5045 13.4181 17.2058 13.577 16.0505 13.1236L11.2766 11.25C9.66702 10.6183 7.83635 11.2348 6.93697 12.7115L2.8413 19.4358C1.94192 20.9125 2.23397 22.822 3.53377 23.9624L7.36328 27.3221C8.29352 28.1382 8.78052 29.3569 8.63733 30.586C8.52592 31.5419 8.46838 32.5142 8.46838 33.4999C8.46838 34.4856 8.52605 35.4578 8.63733 36.4137C8.78052 37.6428 8.29352 38.8616 7.36328 39.6777L3.53377 43.0374C2.23397 44.1777 1.94192 46.0872 2.8413 47.564L6.93697 54.2883C7.83635 55.765 9.66716 56.3816 11.2766 55.7498L16.0504 53.8761C17.2058 53.4226 18.5045 53.5816 19.5338 54.275C20.6397 55.02 21.8083 55.679 23.0301 56.2424C24.1544 56.761 24.9617 57.7866 25.1749 59.0061L26.0573 64.0537C26.3552 65.7572 27.834 66.4745 29.5631 66.4745H37.4366C39.1657 66.4745 40.6445 65.7572 40.9422 64.054L41.8247 59.0064C42.0379 57.7868 42.8452 56.7611 43.9695 56.2427C45.1912 55.6792 46.3599 55.0203 47.4658 54.2753C48.4952 53.5819 49.7939 53.423 50.9491 53.8764L55.723 55.75C57.3325 56.3818 59.1632 55.7652 60.0626 54.2885L64.1583 47.5642C65.0576 46.0875 64.7656 44.178 63.4658 43.0377L59.6363 39.6779C58.706 38.8618 58.219 37.6431 58.3622 36.414C58.4739 35.458 58.5314 34.4858 58.5314 33.5Z" fill="url(#paint0_linear_130_4661)"/>
<path d="M33.5 53.9614C44.8005 53.9614 53.9614 44.8005 53.9614 33.5C53.9614 22.1995 44.8005 13.0386 33.5 13.0386C22.1995 13.0386 13.0386 22.1995 13.0386 33.5C13.0386 44.8005 22.1995 53.9614 33.5 53.9614Z" fill="url(#paint1_linear_130_4661)"/>
<path d="M37.4363 67C39.1655 67 40.6443 65.7572 40.942 64.054L41.8244 59.0064C42.0377 57.7868 42.8449 56.7611 43.9692 56.2427C45.191 55.6792 46.3597 55.0203 47.4656 54.2753C48.495 53.5819 49.7936 53.423 50.9489 53.8764L55.7227 55.75C57.3323 56.3818 59.163 55.7651 60.0624 54.2885L64.158 47.5642C65.0574 46.0875 64.7654 44.178 63.4656 43.0376L59.6361 39.6779C58.7058 38.8618 58.2188 37.6431 58.362 36.414C58.4288 35.8409 58.4737 35.2613 58.501 34.6771L45.8895 22.0656C45.1048 21.2159 44.2341 20.4467 43.2907 19.7727C42.5289 19.2285 41.4697 19.7798 41.4697 20.7161V31.8451C41.4697 32.9951 40.947 34.0695 40.0713 34.7822C39.9061 34.6235 25.3882 20.1307 25.2672 19.9844C24.9041 19.5453 24.2302 19.6623 23.6992 20.0421C19.4165 23.1061 16.8918 27.8623 16.9019 33.5311C16.9106 38.4118 18.7228 42.7978 22.035 45.8685L25.6609 49.5072L25.7923 57.9737C25.7923 60.012 25.7059 62.0465 26.057 64.0544C26.3549 65.7572 27.8338 67 29.5629 67H37.4363Z" fill="url(#paint2_linear_130_4661)"/>
<path d="M64.1582 47.5634L60.0633 54.2884C59.1634 55.765 57.332 56.3812 55.7227 55.7506L50.9486 53.8759C49.7939 53.4226 48.4946 53.5816 47.466 54.2753C46.3598 55.0201 45.1906 55.6796 43.9688 56.2432C42.8456 56.7608 42.0376 57.7868 41.8248 59.006L40.942 64.0546C40.6438 65.7572 39.1658 66.6059 37.437 66.6059H29.5625C28.6981 66.6059 27.8967 66.2958 27.274 65.7717C26.9561 65.505 26.6854 65.5772 26.4766 65.2133C27.0007 65.5155 27.6077 65.6863 28.2488 65.6863H36.1233C37.8521 65.6863 39.3301 64.4435 39.6283 62.7409C39.803 61.7372 39.9357 60.7256 40.0237 59.7114C40.1117 58.6973 40.1564 57.6778 40.1564 56.6597V47.0471C45.4481 44.2029 49.0464 38.6143 49.0464 32.1863C49.0464 27.8707 47.4252 23.9335 44.7571 20.9513C45.1525 21.3034 45.5295 21.6752 45.8895 22.0653L58.5013 34.6771C58.4737 35.2617 58.429 35.8411 58.362 36.4138C58.2188 37.6435 58.7062 38.8613 59.6363 39.6785L63.4658 43.0376C64.7651 44.178 65.0581 46.0868 64.1582 47.5634Z" fill="url(#paint3_linear_130_4661)"/>
<path d="M40.9422 64.0539C41.2932 62.0461 41.4696 60.0116 41.4696 57.9732V44.0535H25.5298V57.9732C25.5298 60.0116 25.7062 62.0461 26.0572 64.0539C26.3551 65.7572 27.8339 67 29.5631 67H37.4365C39.1656 67 40.6445 65.7572 40.9422 64.0539Z" fill="url(#paint4_linear_130_4661)"/>
<path d="M25.5298 48.3658L40.9809 63.817C41.305 61.886 41.4696 59.9315 41.4696 57.9732V44.0535H25.5298V48.3658Z" fill="url(#paint5_linear_130_4661)"/>
<path d="M50.3604 33.5C50.3604 42.8117 42.8118 50.3602 33.5002 50.3604C24.1885 50.3605 16.6562 42.8424 16.6397 33.5307C16.6296 27.8619 19.417 22.8429 23.6998 19.7789C24.4651 19.2314 25.5295 19.7752 25.5295 20.7163V31.8448C25.5295 33.1982 26.2515 34.4489 27.4237 35.1257L31.6056 37.5404C32.7779 38.2172 34.2221 38.2172 35.3943 37.5404L39.5763 35.1257C40.7484 34.449 41.4704 33.1984 41.4704 31.8448V20.7159C41.4704 19.7797 42.5295 19.2283 43.2914 19.7725C47.5715 22.8304 50.3604 27.8398 50.3604 33.5Z" fill="url(#paint6_linear_130_4661)"/>
<path d="M21.0226 34.9201C21.0226 37.0389 22.1529 38.9968 23.9878 40.0562L30.5345 43.8361C32.3695 44.8957 34.6304 44.8957 36.4654 43.8361L43.0121 40.0562C44.847 38.9968 45.9773 37.0389 45.9773 34.9201V22.1626C45.1699 21.2746 44.2701 20.4721 43.2913 19.7726C42.5295 19.2283 41.4703 19.7797 41.4703 20.716V31.845C41.4703 33.1984 40.7483 34.449 39.5762 35.1259L35.3942 37.5405C34.222 38.2173 32.7778 38.2173 31.6056 37.5405L27.4236 35.1259C26.2515 34.4492 25.5295 33.1985 25.5295 31.845V20.7164C25.5295 19.7753 24.4651 19.2315 23.6997 19.7791C22.7243 20.4769 21.8274 21.2772 21.0225 22.1624L21.0226 34.9201Z" fill="url(#paint7_linear_130_4661)"/>
</g>
<defs>
<linearGradient id="paint0_linear_130_4661" x1="16.6056" y1="16.6058" x2="51.9585" y2="51.9586" gradientUnits="userSpaceOnUse">
<stop stop-color="#7FAEF4"/>
<stop offset="1" stop-color="#4C8DF1"/>
</linearGradient>
<linearGradient id="paint1_linear_130_4661" x1="56.5946" y1="56.5946" x2="8.55654" y2="8.55654" gradientUnits="userSpaceOnUse">
<stop stop-color="#7FAEF4"/>
<stop offset="1" stop-color="#4C8DF1"/>
</linearGradient>
<linearGradient id="paint2_linear_130_4661" x1="36.4533" y1="43.5989" x2="13.2826" y2="32.0791" gradientUnits="userSpaceOnUse">
<stop stop-color="#4C8DF1" stop-opacity="0"/>
<stop offset="0.5631" stop-color="#466CC8" stop-opacity="0.563"/>
<stop offset="1" stop-color="#4256AC"/>
</linearGradient>
<linearGradient id="paint3_linear_130_4661" x1="55.0052" y1="52.5812" x2="36.4816" y2="43.6479" gradientUnits="userSpaceOnUse">
<stop stop-color="#4C8DF1" stop-opacity="0"/>
<stop offset="0.5631" stop-color="#466CC8" stop-opacity="0.563"/>
<stop offset="1" stop-color="#4256AC"/>
</linearGradient>
<linearGradient id="paint4_linear_130_4661" x1="32.9133" y1="53.6609" x2="42.9674" y2="63.715" gradientUnits="userSpaceOnUse">
<stop stop-color="#E3E5E4"/>
<stop offset="1" stop-color="#CBD0E4"/>
</linearGradient>
<linearGradient id="paint5_linear_130_4661" x1="38.3939" y1="57.286" x2="31.7378" y2="42.2221" gradientUnits="userSpaceOnUse">
<stop stop-color="#CBD0E4" stop-opacity="0"/>
<stop offset="1" stop-color="#6A7D83"/>
</linearGradient>
<linearGradient id="paint6_linear_130_4661" x1="27.3233" y1="27.3277" x2="49.3395" y2="49.3439" gradientUnits="userSpaceOnUse">
<stop stop-color="#E3E5E4"/>
<stop offset="1" stop-color="#CBD0E4"/>
</linearGradient>
<linearGradient id="paint7_linear_130_4661" x1="42.8601" y1="39.1163" x2="17.8991" y2="14.1551" gradientUnits="userSpaceOnUse">
<stop stop-color="#E3E5E4"/>
<stop offset="1" stop-color="#CBD0E4"/>
</linearGradient>
<clipPath id="clip0_130_4661">
<rect width="67" height="67" fill="white"/>
</clipPath>
</defs>
</svg>
