<svg width="104" height="104" viewBox="0 0 104 104" fill="none" xmlns="http://www.w3.org/2000/svg">
<g clip-path="url(#clip0_298_7812)">
<path d="M66.4534 91.1238C87.1898 91.1238 104 74.3135 104 53.5771C104 32.8406 87.1898 16.0303 66.4534 16.0303C45.717 16.0303 28.9067 32.8405 28.9067 53.5769C28.9067 74.3135 45.7168 91.1238 66.4534 91.1238Z" fill="url(#paint0_linear_298_7812)"/>
<path d="M103.181 45.7496L87.3012 49.1451C84.9938 49.6384 82.5865 49.0684 80.7445 47.5947L69.0211 38.2125C67.157 36.7194 66.0717 34.4607 66.0703 32.074V32.0593L66.0954 16.0321C66.2147 16.0307 66.334 16.0307 66.4533 16.0307C84.505 16.0303 99.5826 28.7713 103.181 45.7496Z" fill="url(#paint1_linear_298_7812)"/>
<path d="M66.0706 32.0591V32.0738C66.0706 34.4605 64.9839 36.7194 63.1213 38.2123L51.3978 47.5945C49.7987 48.8725 47.7756 49.4718 45.7614 49.2848C45.4537 49.2569 45.146 49.2098 44.8397 49.1449L31.4113 46.2737L29.6914 45.9056C33.206 28.9773 48.1202 16.2232 66.0455 16.0331L66.0706 32.0591Z" fill="url(#paint2_linear_298_7812)"/>
<path d="M53.0763 72.427L52.9762 72.5404L43.9959 82.491C43.7824 82.7279 43.5528 82.9459 43.3113 83.1447C34.5417 76.2713 28.9067 65.5832 28.9067 53.5771C28.9067 51.1256 29.1408 48.7299 29.5899 46.4109C30.1833 46.2798 30.7959 46.2327 31.4113 46.2739C31.7117 46.2945 32.0149 46.3357 32.3153 46.4005L45.4242 49.2026C45.5376 49.2277 45.6509 49.2542 45.7613 49.285C47.8492 49.8504 49.5204 51.4333 50.1919 53.5064L54.319 66.259C55.0097 68.3941 54.5356 70.7322 53.0763 72.427Z" fill="url(#paint3_linear_298_7812)"/>
<path d="M104 53.5771C104 65.5832 98.3652 76.2715 89.5956 83.1447C89.3541 82.9459 89.1245 82.7281 88.911 82.4909L79.9307 72.5404L79.8306 72.427C78.3713 70.7322 77.8972 68.394 78.5879 66.259L82.7151 53.5063C83.4219 51.3227 85.2388 49.6824 87.4827 49.2024L100.592 46.4003C101.506 46.2059 102.434 46.2147 103.317 46.4107C103.766 48.7299 104 51.1254 104 53.5771Z" fill="url(#paint4_linear_298_7812)"/>
<path d="M89.2726 83.3966C82.9486 88.2438 75.0372 91.1238 66.4529 91.1238C57.8687 91.1238 49.9573 88.2438 43.6333 83.3966C43.8998 82.9107 44.2222 82.4498 44.5993 82.0228L52.9758 72.5404L53.0759 72.4271L53.2186 72.2666C54.6689 70.6248 56.7555 69.6839 58.9464 69.6839H73.9591C76.15 69.6839 78.2365 70.6248 79.6868 72.2666L79.8298 72.4271L79.9299 72.5404L88.3064 82.0228C88.6837 82.4498 89.0061 82.9107 89.2726 83.3966Z" fill="url(#paint5_linear_298_7812)"/>
<path d="M62.3317 38.8098L52.7694 45.7572C50.3118 47.5427 49.2834 50.708 50.222 53.5971L53.8745 64.8383C54.8131 67.7275 57.5057 69.6837 60.5435 69.6837H72.3632C75.4011 69.6837 78.0934 67.7275 79.0323 64.8383L82.6847 53.5971C83.6234 50.708 82.595 47.5429 80.1373 45.7572L70.575 38.8098C68.1174 37.024 64.7894 37.024 62.3317 38.8098Z" fill="url(#paint6_linear_298_7812)"/>
<path d="M76.2094 17.3099L70.5745 21.4032C68.117 23.1891 64.7894 23.1891 62.3317 21.4032L56.6968 17.3099C59.808 16.475 63.0783 16.0303 66.453 16.0303C69.8279 16.0303 73.0982 16.475 76.2094 17.3099Z" fill="url(#paint7_linear_298_7812)"/>
<path d="M103.974 52.165L101.447 50.4039C98.954 48.6679 97.8628 45.5228 98.7448 42.6164L100.334 37.376C102.492 41.8816 103.779 46.8834 103.974 52.165Z" fill="url(#paint8_linear_298_7812)"/>
<path d="M31.4599 50.4039L28.9331 52.165C29.1274 46.8834 30.4144 41.8816 32.5729 37.376L34.1617 42.6164C35.0438 45.5228 33.9526 48.6679 31.4599 50.4039Z" fill="url(#paint9_linear_298_7812)"/>
<path d="M52.3106 88.3688C46.4179 85.9717 41.272 82.1198 37.3169 77.2593L44.5376 77.6967C47.5707 77.8809 50.1401 79.9951 50.9013 82.9357L52.3106 88.3688Z" fill="url(#paint10_linear_298_7812)"/>
<path d="M95.5892 77.2593C91.6344 82.1198 86.4882 85.9717 80.5957 88.3688L82.0048 82.9355C82.766 79.9951 85.3354 77.8807 88.3686 77.6965L95.5892 77.2593Z" fill="url(#paint11_linear_298_7812)"/>
<path d="M69.9217 19.4988C49.1853 19.4988 32.375 36.3091 32.375 57.0454C32.375 66.531 35.8941 75.1936 41.6958 81.8029C48.3052 87.6047 56.9677 91.1238 66.4534 91.1238C87.1897 91.1238 104 74.3135 104 53.5771C104 44.0915 100.481 35.4289 94.6792 28.8196C88.0699 23.0179 79.4073 19.4988 69.9217 19.4988Z" fill="url(#paint12_linear_298_7812)"/>
<path d="M86.4859 21.8177C90.1505 27.6152 92.2731 34.4845 92.2731 41.8504C92.2731 62.5868 75.4629 79.3971 54.7265 79.3971C47.3606 79.3971 40.4915 77.2742 34.6938 73.6098C41.346 84.1337 53.0825 91.1238 66.453 91.1238C87.1896 91.1238 104 74.3135 104 53.5771C104 40.2064 97.0096 28.4699 86.4859 21.8177Z" fill="url(#paint13_linear_298_7812)"/>
<path d="M29.7505 84.6089H0.995137C0.445569 84.6089 0 84.1633 0 83.6137V79.0096C0 78.46 0.445569 78.0145 0.995137 78.0145H29.7503C30.2999 78.0145 30.7455 78.46 30.7455 79.0096V83.6137C30.7457 84.1633 30.3001 84.6089 29.7505 84.6089Z" fill="url(#paint14_linear_298_7812)"/>
<path d="M26.1005 84.6089H4.64547C4.16829 84.6089 3.78125 84.2221 3.78125 83.7447V78.8785C3.78125 78.4013 4.16809 78.0143 4.64547 78.0143H26.1003C26.5774 78.0143 26.9645 78.4011 26.9645 78.8785V83.7447C26.9647 84.2221 26.5776 84.6089 26.1005 84.6089Z" fill="url(#paint15_linear_298_7812)"/>
<path d="M19.067 84.6089H11.6789C11.3912 84.6089 11.1577 84.3756 11.1577 84.0877V78.5355C11.1577 78.2478 11.391 78.0145 11.6789 78.0145H19.067C19.3548 78.0145 19.5882 78.2478 19.5882 78.5355V84.0877C19.588 84.3756 19.3548 84.6089 19.067 84.6089Z" fill="url(#paint16_linear_298_7812)"/>
<path d="M1.86281 78.8169C1.31324 78.8169 0.867676 79.2625 0.867676 79.812V84.4162C0.867676 84.48 0.874201 84.5422 0.885825 84.6028C0.921715 84.6066 0.958217 84.6091 0.995127 84.6091H29.7503C30.2999 84.6091 30.7455 84.1635 30.7455 83.6139V79.0098C30.7455 78.946 30.7389 78.8838 30.7273 78.8232C30.6914 78.8193 30.6549 78.8169 30.618 78.8169H1.86281Z" fill="url(#paint17_linear_298_7812)"/>
<path d="M29.7505 78.0145H0.995137C0.445569 78.0145 0 77.5689 0 77.0193V72.4152C0 71.8656 0.445569 71.42 0.995137 71.42H29.7503C30.2999 71.42 30.7455 71.8656 30.7455 72.4152V77.0193C30.7457 77.5689 30.3001 78.0145 29.7505 78.0145Z" fill="url(#paint18_linear_298_7812)"/>
<path d="M26.1005 78.0145H4.64547C4.16829 78.0145 3.78125 77.6276 3.78125 77.1503V72.2841C3.78125 71.8067 4.16809 71.4199 4.64547 71.4199H26.1003C26.5774 71.4199 26.9645 71.8067 26.9645 72.2841V77.1503C26.9647 77.6276 26.5776 78.0145 26.1005 78.0145Z" fill="url(#paint19_linear_298_7812)"/>
<path d="M19.067 78.0145H11.6789C11.3912 78.0145 11.1577 77.7812 11.1577 77.4932V71.9411C11.1577 71.6533 11.391 71.42 11.6789 71.42H19.067C19.3548 71.42 19.5882 71.6533 19.5882 71.9411V77.4932C19.588 77.7812 19.3548 78.0145 19.067 78.0145Z" fill="url(#paint20_linear_298_7812)"/>
<path d="M1.86281 72.2223C1.31324 72.2223 0.867676 72.6679 0.867676 73.2174V77.8216C0.867676 77.8854 0.874201 77.9476 0.885825 78.0082C0.921715 78.012 0.958217 78.0145 0.995127 78.0145H29.7503C30.2999 78.0145 30.7455 77.5689 30.7455 77.0193V72.4152C30.7455 72.3514 30.7389 72.2892 30.7273 72.2286C30.6914 72.2247 30.6549 72.2223 30.618 72.2223H1.86281Z" fill="url(#paint21_linear_298_7812)"/>
<path d="M29.7505 71.42H0.995137C0.445569 71.42 0 70.9745 0 70.4249V65.8208C0 65.2712 0.445569 64.8256 0.995137 64.8256H29.7503C30.2999 64.8256 30.7455 65.2712 30.7455 65.8208V70.4249C30.7457 70.9745 30.3001 71.42 29.7505 71.42Z" fill="url(#paint22_linear_298_7812)"/>
<path d="M26.1005 71.42H4.64547C4.16829 71.42 3.78125 71.0332 3.78125 70.5558V65.6898C3.78125 65.2125 4.16809 64.8256 4.64547 64.8256H26.1003C26.5774 64.8256 26.9645 65.2125 26.9645 65.6898V70.5558C26.9647 71.0332 26.5776 71.42 26.1005 71.42Z" fill="url(#paint23_linear_298_7812)"/>
<path d="M19.067 71.42H11.6789C11.3912 71.42 11.1577 71.1868 11.1577 70.8988V65.3466C11.1577 65.0589 11.391 64.8256 11.6789 64.8256H19.067C19.3548 64.8256 19.5882 65.0589 19.5882 65.3466V70.8988C19.588 71.1868 19.3548 71.42 19.067 71.42Z" fill="url(#paint24_linear_298_7812)"/>
<path d="M1.86281 65.6279C1.31324 65.6279 0.867676 66.0734 0.867676 66.623V71.2271C0.867676 71.291 0.874201 71.3532 0.885825 71.4137C0.921715 71.4176 0.958217 71.4201 0.995127 71.4201H29.7503C30.2999 71.4201 30.7455 70.9745 30.7455 70.4249V65.8208C30.7455 65.7569 30.7389 65.6947 30.7273 65.6342C30.6914 65.6303 30.6549 65.6279 30.618 65.6279H1.86281Z" fill="url(#paint25_linear_298_7812)"/>
<path d="M29.7505 64.8257H0.995137C0.445569 64.8257 0 64.3801 0 63.8305V59.2264C0 58.6768 0.445569 58.2313 0.995137 58.2313H29.7503C30.2999 58.2313 30.7455 58.6768 30.7455 59.2264V63.8305C30.7457 64.3801 30.3001 64.8257 29.7505 64.8257Z" fill="url(#paint26_linear_298_7812)"/>
<path d="M26.1005 64.8257H4.64547C4.16829 64.8257 3.78125 64.4388 3.78125 63.9615V59.0955C3.78125 58.6181 4.16809 58.2313 4.64547 58.2313H26.1003C26.5774 58.2313 26.9645 58.6181 26.9645 59.0955V63.9615C26.9647 64.4386 26.5776 64.8257 26.1005 64.8257Z" fill="url(#paint27_linear_298_7812)"/>
<path d="M19.067 64.8256H11.6789C11.3912 64.8256 11.1577 64.5923 11.1577 64.3044V58.7522C11.1577 58.4645 11.391 58.231 11.6789 58.231H19.067C19.3548 58.231 19.5882 58.4643 19.5882 58.7522V64.3044C19.588 64.5923 19.3548 64.8256 19.067 64.8256Z" fill="url(#paint28_linear_298_7812)"/>
<path d="M1.86281 59.0334C1.31324 59.0334 0.867676 59.479 0.867676 60.0286V64.6327C0.867676 64.6966 0.874201 64.7588 0.885825 64.8193C0.921715 64.8232 0.958217 64.8256 0.995127 64.8256H29.7503C30.2999 64.8256 30.7455 64.3801 30.7455 63.8305V59.2264C30.7455 59.1625 30.7389 59.1003 30.7273 59.0398C30.6914 59.0359 30.6549 59.0334 30.618 59.0334H1.86281Z" fill="url(#paint29_linear_298_7812)"/>
<path d="M29.7505 58.2312H0.995137C0.445569 58.2312 0 57.7857 0 57.2361V52.6322C0 52.0826 0.445569 51.637 0.995137 51.637H29.7503C30.2999 51.637 30.7455 52.0826 30.7455 52.6322V57.2361C30.7457 57.7857 30.3001 58.2312 29.7505 58.2312Z" fill="url(#paint30_linear_298_7812)"/>
<path d="M26.1005 58.2312H4.64547C4.16829 58.2312 3.78125 57.8444 3.78125 57.367V52.5008C3.78125 52.0236 4.16809 51.6366 4.64547 51.6366H26.1003C26.5774 51.6366 26.9645 52.0234 26.9645 52.5008V57.367C26.9647 57.8442 26.5776 58.2312 26.1005 58.2312Z" fill="url(#paint31_linear_298_7812)"/>
<path d="M19.067 58.2313H11.6789C11.3912 58.2313 11.1577 57.998 11.1577 57.71V52.1579C11.1577 51.8701 11.391 51.6368 11.6789 51.6368H19.067C19.3548 51.6368 19.5882 51.8701 19.5882 52.1579V57.71C19.588 57.9978 19.3548 58.2313 19.067 58.2313Z" fill="url(#paint32_linear_298_7812)"/>
<path d="M1.86281 52.439C1.31324 52.439 0.867676 52.8846 0.867676 53.4342V58.0383C0.867676 58.1021 0.874201 58.1643 0.885825 58.2249C0.921715 58.2288 0.958217 58.2312 0.995127 58.2312H29.7503C30.2999 58.2312 30.7455 57.7856 30.7455 57.2361V52.6319C30.7455 52.5681 30.7389 52.5059 30.7273 52.4453C30.6914 52.4415 30.6549 52.439 30.618 52.439H1.86281Z" fill="url(#paint33_linear_298_7812)"/>
<path d="M29.7505 51.6366H0.995137C0.445569 51.6366 0 51.191 0 50.6415V46.0373C0 45.4877 0.445569 45.0422 0.995137 45.0422H29.7503C30.2999 45.0422 30.7455 45.4877 30.7455 46.0373V50.6415C30.7457 51.191 30.3001 51.6366 29.7505 51.6366Z" fill="url(#paint34_linear_298_7812)"/>
<path d="M26.1005 51.6366H4.64547C4.16829 51.6366 3.78125 51.2498 3.78125 50.7724V45.9062C3.78125 45.429 4.16809 45.042 4.64547 45.042H26.1003C26.5774 45.042 26.9645 45.4288 26.9645 45.9062V50.7724C26.9647 51.2498 26.5776 51.6366 26.1005 51.6366Z" fill="url(#paint35_linear_298_7812)"/>
<path d="M19.067 51.6366H11.6789C11.3912 51.6366 11.1577 51.4033 11.1577 51.1156V45.5634C11.1577 45.2757 11.391 45.0424 11.6789 45.0424H19.067C19.3548 45.0424 19.5882 45.2757 19.5882 45.5634V51.1156C19.588 51.4033 19.3548 51.6366 19.067 51.6366Z" fill="url(#paint36_linear_298_7812)"/>
<path d="M1.86281 45.8444C1.31324 45.8444 0.867676 46.29 0.867676 46.8396V51.4435C0.867676 51.5073 0.874201 51.5695 0.885825 51.6301C0.921715 51.634 0.958217 51.6364 0.995127 51.6364H29.7503C30.2999 51.6364 30.7455 51.1908 30.7455 50.6413V46.0373C30.7455 45.9735 30.7389 45.9113 30.7273 45.8507C30.6914 45.8469 30.6549 45.8444 30.618 45.8444H1.86281Z" fill="url(#paint37_linear_298_7812)"/>
<path d="M87.0952 84.9421C92.4155 81.4337 96.7899 76.6089 99.7549 70.9305L87.0952 58.2708V84.9421Z" fill="url(#paint38_linear_298_7812)"/>
<path d="M85.5293 94.5587H21.5919C20.5544 94.5587 19.7134 93.7177 19.7134 92.6801V59.3074C19.7134 58.27 20.5544 57.4288 21.5919 57.4288H85.5293C86.5668 57.4288 87.4078 58.2698 87.4078 59.3074V92.6801C87.4078 93.7177 86.5668 94.5587 85.5293 94.5587Z" fill="url(#paint39_linear_298_7812)"/>
<path d="M84.1396 93.2713H22.9821C22.0037 93.2713 21.2104 92.4781 21.2104 91.4996V60.4879C21.2104 59.5094 22.0037 58.7162 22.9821 58.7162H84.1394C85.1178 58.7162 85.9111 59.5094 85.9111 60.4879V91.4996C85.9113 92.4783 85.118 93.2713 84.1396 93.2713Z" fill="url(#paint40_linear_298_7812)"/>
<path d="M81.7303 68.7842C78.5946 68.7842 76.0527 66.2423 76.0527 63.1066C76.0527 62.9777 76.057 62.8501 76.0656 62.7234C76.1068 62.1157 75.6269 61.6002 75.0178 61.6002H32.1037C31.4946 61.6002 31.0148 62.1157 31.056 62.7234C31.0646 62.8501 31.0688 62.9777 31.0688 63.1066C31.0688 66.2423 28.527 68.7842 25.3913 68.7842C25.3876 68.7842 25.3839 68.7842 25.38 68.7842C24.7911 68.7829 24.3076 69.2465 24.3076 69.8354V82.1522C24.3076 82.7412 24.7911 83.2047 25.38 83.2035H25.3913C28.527 83.2035 31.0688 85.7453 31.0688 88.8811C31.0688 89.0099 31.0646 89.1376 31.056 89.2642C31.0148 89.8719 31.4946 90.3874 32.1037 90.3874H75.0178C75.6269 90.3874 76.1068 89.8719 76.0656 89.2642C76.057 89.1376 76.0527 89.0099 76.0527 88.8811C76.0527 85.7453 78.5946 83.2035 81.7303 83.2035H81.7413C82.3302 83.2047 82.8137 82.7412 82.8137 82.1522V69.8354C82.8137 69.2465 82.3302 68.7829 81.7413 68.7842C81.7376 68.784 81.734 68.7842 81.7303 68.7842Z" fill="url(#paint41_linear_298_7812)"/>
<path d="M53.5607 88.9276C60.7038 88.9276 66.4944 83.1369 66.4944 75.9938C66.4944 68.8507 60.7038 63.0601 53.5607 63.0601C46.4176 63.0601 40.627 68.8507 40.627 75.9938C40.627 83.1369 46.4176 88.9276 53.5607 88.9276Z" fill="url(#paint42_linear_298_7812)"/>
<path d="M58.6393 68.185C58.4423 67.8773 58.0618 67.6212 57.4949 67.4173C56.8839 67.1981 56.2328 67.049 55.5429 66.9672C55.506 66.9438 55.4683 66.9232 55.4302 66.9056L54.4083 65.8108C54.2478 65.6931 54.0751 65.6338 53.8897 65.6338C53.6872 65.6338 53.5141 65.6931 53.3712 65.8108C53.2278 65.9291 53.156 66.0639 53.156 66.2156V66.9493C51.79 67.101 50.6472 67.5566 49.7279 68.3154C48.8084 69.0744 48.3492 70.1867 48.3492 71.6517C48.3492 72.1736 48.4081 72.6491 48.5262 73.0784C48.6441 73.5076 48.8382 73.882 49.1082 74.2018C49.3778 74.5215 49.6351 74.7952 49.8798 75.0223C49.8815 75.024 49.8835 75.0256 49.8853 75.027C49.8853 75.027 53.0665 78.2084 53.0684 78.21C53.0979 78.2416 53.1269 78.2712 53.1562 78.3016V82.5334C52.4087 82.4828 51.7506 82.2895 51.1813 81.9526C50.6121 81.6161 50.1649 81.3007 49.8393 81.0058C49.5136 80.7113 49.2507 80.5639 49.0507 80.5639C48.7487 80.5639 48.4807 80.724 48.2458 81.0437C48.0109 81.3635 47.894 81.6834 47.894 82.0032C47.894 82.5144 48.1822 83.0183 48.7583 83.5149L59.8016 94.5582H85.0129L58.6393 68.185Z" fill="url(#paint43_linear_298_7812)"/>
<path d="M47.8936 82.0036C47.8936 81.6838 48.0106 81.3641 48.2453 81.0441C48.48 80.7244 48.7482 80.5643 49.0502 80.5643C49.2502 80.5643 49.5131 80.7117 49.8388 81.0062C50.1646 81.3011 50.6116 81.6165 51.1808 81.953C51.7501 82.2899 52.4082 82.4832 53.1557 82.5338V76.6007C52.6498 76.4157 52.2616 76.2683 51.992 76.1588C51.722 76.0497 51.3635 75.8896 50.9169 75.6791C50.4699 75.4689 50.1238 75.2499 49.8795 75.0225C49.6348 74.7953 49.3775 74.5217 49.1079 74.2019C48.8379 73.8822 48.6438 73.5078 48.5259 73.0785C48.4078 72.6493 48.3489 72.1737 48.3489 71.6519C48.3489 70.1869 48.8081 69.0745 49.7276 68.3155C50.6467 67.5565 51.7895 67.1012 53.1555 66.9495V66.2158C53.1555 66.0638 53.2271 65.929 53.3707 65.811C53.5138 65.6931 53.687 65.634 53.8893 65.634C54.0746 65.634 54.2475 65.6933 54.4078 65.811C54.5679 65.929 54.6483 66.064 54.6483 66.2158V66.8989C55.6768 66.933 56.6255 67.1057 57.4944 67.4175C58.3629 67.7297 58.7972 68.1638 58.7972 68.7203C58.7972 69.024 58.6949 69.3402 58.4909 69.669C58.287 69.9979 58.0146 70.1623 57.6747 70.1623C57.5403 70.1623 57.1708 70.0191 56.5667 69.7322C55.9623 69.4455 55.3226 69.2768 54.6483 69.2263V74.3533C55.3192 74.6059 55.8769 74.8457 56.3212 75.0731C56.7656 75.3005 57.2356 75.6159 57.7305 76.0199C58.2254 76.4239 58.5986 76.9331 58.8501 77.5473C59.1015 78.1617 59.2275 78.8813 59.2275 79.706C59.2275 81.2128 58.8164 82.4106 57.9944 83.2993C57.1722 84.188 56.0571 84.7339 54.6483 84.937V85.7822C54.6483 85.9313 54.5679 86.0637 54.4078 86.1799C54.2473 86.2957 54.0746 86.3538 53.8893 86.3538C53.687 86.3538 53.5136 86.2957 53.3707 86.1803C53.2271 86.0641 53.1555 85.9317 53.1555 85.7826V85.013C51.6883 84.9961 50.4442 84.6605 49.424 84.0059C48.4036 83.3511 47.8936 82.6839 47.8936 82.0036ZM50.8537 71.3994C50.8537 72.0561 51.058 72.5569 51.4671 72.9015C51.8757 73.2466 52.4893 73.5708 53.3075 73.8736V69.2744C51.6714 69.4767 50.8537 70.1851 50.8537 71.3994ZM54.4967 82.483C55.9807 82.2138 56.7232 81.3806 56.7232 79.9835C56.7232 79.2431 56.529 78.6623 56.1412 78.2418C55.7529 77.8211 55.2052 77.4592 54.4967 77.1559V82.483Z" fill="url(#paint44_linear_298_7812)"/>
<path d="M25.9955 67.04C27.4786 67.04 28.6809 65.8377 28.6809 64.3546C28.6809 62.8714 27.4786 61.6691 25.9955 61.6691C24.5124 61.6691 23.3101 62.8714 23.3101 64.3546C23.3101 65.8377 24.5124 67.04 25.9955 67.04Z" fill="url(#paint45_linear_298_7812)"/>
<path d="M81.1259 67.04C82.609 67.04 83.8113 65.8377 83.8113 64.3546C83.8113 62.8714 82.609 61.6691 81.1259 61.6691C79.6427 61.6691 78.4404 62.8714 78.4404 64.3546C78.4404 65.8377 79.6427 67.04 81.1259 67.04Z" fill="url(#paint46_linear_298_7812)"/>
<path d="M25.9955 90.3185C27.4786 90.3185 28.6809 89.1162 28.6809 87.6331C28.6809 86.1499 27.4786 84.9476 25.9955 84.9476C24.5124 84.9476 23.3101 86.1499 23.3101 87.6331C23.3101 89.1162 24.5124 90.3185 25.9955 90.3185Z" fill="url(#paint47_linear_298_7812)"/>
<path d="M81.1259 90.3185C82.609 90.3185 83.8113 89.1162 83.8113 87.6331C83.8113 86.1499 82.609 84.9476 81.1259 84.9476C79.6427 84.9476 78.4404 86.1499 78.4404 87.6331C78.4404 89.1162 79.6427 90.3185 81.1259 90.3185Z" fill="url(#paint48_linear_298_7812)"/>
<path d="M61.7231 94.5587H85.5294C86.5669 94.5587 87.4079 93.7177 87.4079 92.6801V78.5786L66.258 57.4288H61.7231V94.5587Z" fill="url(#paint49_linear_298_7812)"/>
<path d="M64.5629 95.5642H42.5587C41.4918 95.5642 40.627 94.6994 40.627 93.6324V58.355C40.627 57.2881 41.4918 56.4233 42.5587 56.4233H64.5629C65.6298 56.4233 66.4946 57.2881 66.4946 58.355V93.6326C66.4946 94.6994 65.6298 95.5642 64.5629 95.5642Z" fill="url(#paint50_linear_298_7812)"/>
<path d="M44.4064 58.2708C43.3394 58.2708 42.4746 59.1356 42.4746 60.2026V95.4802C42.4746 95.5073 42.4775 95.5336 42.4787 95.5603C42.5054 95.5613 42.5317 95.5644 42.5588 95.5644H64.563C65.6299 95.5644 66.4947 94.6996 66.4947 93.6327V58.355C66.4947 58.3279 66.4919 58.3016 66.4907 58.2749C66.4639 58.2739 66.4376 58.2708 66.4105 58.2708H44.4064Z" fill="url(#paint51_linear_298_7812)"/>
<path d="M66.4945 93.6326V76.0403L58.6393 68.185C58.4423 67.8773 58.0618 67.6212 57.4949 67.4173C56.8839 67.1981 56.2328 67.049 55.5429 66.9672C55.506 66.9438 55.4683 66.9232 55.4302 66.9056L54.4083 65.8108C54.2478 65.6931 54.0751 65.6338 53.8897 65.6338C53.6872 65.6338 53.5141 65.6931 53.3712 65.8108C53.2278 65.9291 53.156 66.0639 53.156 66.2156V66.9493C51.79 67.101 50.6472 67.5566 49.7279 68.3154C48.8084 69.0744 48.3492 70.1867 48.3492 71.6517C48.3492 72.1736 48.4081 72.6491 48.5262 73.0784C48.6441 73.5076 48.8382 73.882 49.1082 74.2018C49.3778 74.5215 49.6351 74.7952 49.8798 75.0223C49.8815 75.024 49.8835 75.0256 49.8853 75.027C49.8853 75.027 53.0665 78.2084 53.0684 78.21C53.0979 78.2416 53.1269 78.2712 53.1562 78.3016V82.5334C52.4087 82.4828 51.7506 82.2895 51.1813 81.9526C50.6121 81.6161 50.1649 81.3007 49.8393 81.0058C49.5136 80.7113 49.2507 80.5639 49.0507 80.5639C48.7487 80.5639 48.4807 80.724 48.2458 81.0437C48.0109 81.3635 47.894 81.6834 47.894 82.0032C47.894 82.5144 48.1822 83.0183 48.7583 83.5149L60.8072 95.564H64.563C65.6297 95.5642 66.4945 94.6993 66.4945 93.6326Z" fill="url(#paint52_linear_298_7812)"/>
<path d="M47.8936 82.0036C47.8936 81.6838 48.0106 81.3641 48.2453 81.0441C48.48 80.7244 48.7482 80.5643 49.0502 80.5643C49.2502 80.5643 49.5131 80.7117 49.8388 81.0062C50.1646 81.3011 50.6116 81.6165 51.1808 81.953C51.7501 82.2899 52.4082 82.4832 53.1557 82.5338V76.6007C52.6498 76.4157 52.2616 76.2683 51.992 76.1588C51.722 76.0497 51.3635 75.8896 50.9169 75.6791C50.4699 75.4689 50.1238 75.2499 49.8795 75.0225C49.6348 74.7953 49.3775 74.5217 49.1079 74.2019C48.8379 73.8822 48.6438 73.5078 48.5259 73.0785C48.4078 72.6493 48.3489 72.1737 48.3489 71.6519C48.3489 70.1869 48.8081 69.0745 49.7276 68.3155C50.6467 67.5565 51.7895 67.1012 53.1555 66.9495V66.2158C53.1555 66.0638 53.2271 65.929 53.3707 65.811C53.5138 65.6931 53.687 65.634 53.8893 65.634C54.0746 65.634 54.2475 65.6933 54.4078 65.811C54.5679 65.929 54.6483 66.064 54.6483 66.2158V66.8989C55.6768 66.933 56.6255 67.1057 57.4944 67.4175C58.3629 67.7297 58.7972 68.1638 58.7972 68.7203C58.7972 69.024 58.6949 69.3402 58.4909 69.669C58.287 69.9979 58.0146 70.1623 57.6747 70.1623C57.5403 70.1623 57.1708 70.0191 56.5667 69.7322C55.9623 69.4455 55.3226 69.2768 54.6483 69.2263V74.3533C55.3192 74.6059 55.8769 74.8457 56.3212 75.0731C56.7656 75.3005 57.2356 75.6159 57.7305 76.0199C58.2254 76.4239 58.5986 76.9331 58.8501 77.5473C59.1015 78.1617 59.2275 78.8813 59.2275 79.706C59.2275 81.2128 58.8164 82.4106 57.9944 83.2993C57.1722 84.188 56.0571 84.7339 54.6483 84.937V85.7822C54.6483 85.9313 54.5679 86.0637 54.4078 86.1799C54.2473 86.2957 54.0746 86.3538 53.8893 86.3538C53.687 86.3538 53.5136 86.2957 53.3707 86.1803C53.2271 86.0641 53.1555 85.9317 53.1555 85.7826V85.013C51.6883 84.9961 50.4442 84.6605 49.424 84.0059C48.4036 83.3511 47.8936 82.6839 47.8936 82.0036ZM50.8537 71.3994C50.8537 72.0561 51.058 72.5569 51.4671 72.9015C51.8757 73.2466 52.4893 73.5708 53.3075 73.8736V69.2744C51.6714 69.4767 50.8537 70.1851 50.8537 71.3994ZM54.4967 82.483C55.9807 82.2138 56.7232 81.3806 56.7232 79.9835C56.7232 79.2431 56.529 78.6623 56.1412 78.2418C55.7529 77.8211 55.2052 77.4592 54.4967 77.1559V82.483Z" fill="url(#paint53_linear_298_7812)"/>
<path d="M31.3474 33.4183C28.7654 35.101 26.5624 37.3173 24.8939 39.9101C24.5187 40.4931 23.6529 40.4915 23.2799 39.9073C21.621 37.3085 19.4262 35.0841 16.8502 33.3922C16.2784 33.0166 16.2801 32.1625 16.8531 31.7892C19.4352 30.1066 21.6381 27.8902 23.3064 25.2975C23.6816 24.7145 24.5475 24.7159 24.9204 25.3004C26.5793 27.8991 28.7744 30.1235 31.3503 31.8155C31.9221 32.1909 31.9205 33.0447 31.3474 33.4183Z" fill="url(#paint54_linear_298_7812)"/>
<path d="M18.8558 20.9146C17.0299 22.1045 15.4719 23.6718 14.292 25.5053C14.0267 25.9176 13.4143 25.9164 13.1507 25.5032C11.9775 23.6655 10.4255 22.0924 8.60384 20.896C8.19946 20.6305 8.20069 20.0265 8.60588 19.7624C10.4318 18.5726 11.9898 17.0052 13.1694 15.1718C13.4347 14.7594 14.0471 14.7606 14.3108 15.1738C15.484 17.0115 17.0362 18.5846 18.8578 19.781C19.2622 20.0465 19.2612 20.6505 18.8558 20.9146Z" fill="url(#paint55_linear_298_7812)"/>
<path d="M45.7523 14.4872C43.9264 15.6771 42.3684 17.2444 41.1885 19.0779C40.9232 19.4902 40.3108 19.489 40.0472 19.0759C38.874 17.2381 37.322 15.6651 35.5003 14.4687C35.0959 14.2032 35.0972 13.5991 35.5024 13.3351C37.3283 12.1452 38.8862 10.5778 40.0659 8.74439C40.3312 8.33206 40.9436 8.33328 41.2073 8.74643C42.3804 10.5842 43.9327 12.1572 45.7543 13.3536C46.1585 13.6193 46.1575 14.2231 45.7523 14.4872Z" fill="url(#paint56_linear_298_7812)"/>
</g>
<defs>
<linearGradient id="paint0_linear_298_7812" x1="59.8967" y1="47.0204" x2="81.887" y2="69.0107" gradientUnits="userSpaceOnUse">
<stop stop-color="#E4F2FF"/>
<stop offset="1" stop-color="#B2CBFF"/>
</linearGradient>
<linearGradient id="paint1_linear_298_7812" x1="64.9538" y1="16.596" x2="98.6213" y2="50.2632" gradientUnits="userSpaceOnUse">
<stop stop-color="#E4F2FF"/>
<stop offset="1" stop-color="#B2CBFF"/>
</linearGradient>
<linearGradient id="paint2_linear_298_7812" x1="45.5443" y1="28.6451" x2="60.8843" y2="43.9853" gradientUnits="userSpaceOnUse">
<stop stop-color="#E4F2FF"/>
<stop offset="1" stop-color="#B2CBFF"/>
</linearGradient>
<linearGradient id="paint3_linear_298_7812" x1="36.8719" y1="58.1423" x2="47.3284" y2="68.599" gradientUnits="userSpaceOnUse">
<stop stop-color="#E4F2FF"/>
<stop offset="1" stop-color="#B2CBFF"/>
</linearGradient>
<linearGradient id="paint4_linear_298_7812" x1="83.2777" y1="51.6207" x2="102.38" y2="70.7224" gradientUnits="userSpaceOnUse">
<stop stop-color="#E4F2FF"/>
<stop offset="1" stop-color="#B2CBFF"/>
</linearGradient>
<linearGradient id="paint5_linear_298_7812" x1="55.5652" y1="71.726" x2="74.6027" y2="90.7635" gradientUnits="userSpaceOnUse">
<stop stop-color="#E4F2FF"/>
<stop offset="1" stop-color="#B2CBFF"/>
</linearGradient>
<linearGradient id="paint6_linear_298_7812" x1="63.5795" y1="52.3506" x2="73.2181" y2="61.9891" gradientUnits="userSpaceOnUse">
<stop stop-color="#8A7889"/>
<stop offset="1" stop-color="#6E566E"/>
</linearGradient>
<linearGradient id="paint7_linear_298_7812" x1="65.2484" y1="16.1051" x2="69.2889" y2="20.1456" gradientUnits="userSpaceOnUse">
<stop stop-color="#8A7889"/>
<stop offset="1" stop-color="#6E566E"/>
</linearGradient>
<linearGradient id="paint8_linear_298_7812" x1="100.786" y1="43.8631" x2="104.602" y2="47.6791" gradientUnits="userSpaceOnUse">
<stop stop-color="#8A7889"/>
<stop offset="1" stop-color="#6E566E"/>
</linearGradient>
<linearGradient id="paint9_linear_298_7812" x1="30.2382" y1="44.2557" x2="32.7377" y2="46.7549" gradientUnits="userSpaceOnUse">
<stop stop-color="#8A7889"/>
<stop offset="1" stop-color="#6E566E"/>
</linearGradient>
<linearGradient id="paint10_linear_298_7812" x1="44.4807" y1="79.924" x2="49.8858" y2="85.3291" gradientUnits="userSpaceOnUse">
<stop stop-color="#8A7889"/>
<stop offset="1" stop-color="#6E566E"/>
</linearGradient>
<linearGradient id="paint11_linear_298_7812" x1="86.2239" y1="80.9454" x2="88.203" y2="82.9245" gradientUnits="userSpaceOnUse">
<stop stop-color="#8A7889"/>
<stop offset="1" stop-color="#6E566E"/>
</linearGradient>
<linearGradient id="paint12_linear_298_7812" x1="75.6127" y1="65.0491" x2="24.6967" y2="-1.72599" gradientUnits="userSpaceOnUse">
<stop stop-color="white" stop-opacity="0"/>
<stop offset="1" stop-color="white"/>
</linearGradient>
<linearGradient id="paint13_linear_298_7812" x1="68.752" y1="56.0676" x2="180.973" y2="62.3669" gradientUnits="userSpaceOnUse">
<stop stop-color="#3F3CED" stop-opacity="0"/>
<stop offset="0.2796" stop-color="#3C3DE4" stop-opacity="0.28"/>
<stop offset="0.7305" stop-color="#3541CC" stop-opacity="0.731"/>
<stop offset="1" stop-color="#2F43BB"/>
</linearGradient>
<linearGradient id="paint14_linear_298_7812" x1="15.3728" y1="78.1505" x2="15.3728" y2="86.7003" gradientUnits="userSpaceOnUse">
<stop stop-color="#FFD945"/>
<stop offset="0.3043" stop-color="#FFCD3E"/>
<stop offset="0.8558" stop-color="#FFAD2B"/>
<stop offset="1" stop-color="#FFA325"/>
</linearGradient>
<linearGradient id="paint15_linear_298_7812" x1="15.373" y1="78.2745" x2="15.373" y2="92.6536" gradientUnits="userSpaceOnUse">
<stop stop-color="#E87264" stop-opacity="0"/>
<stop offset="1" stop-color="#FF7044"/>
</linearGradient>
<linearGradient id="paint16_linear_298_7812" x1="15.373" y1="78.2745" x2="15.373" y2="92.6536" gradientUnits="userSpaceOnUse">
<stop stop-color="#E87264" stop-opacity="0"/>
<stop offset="1" stop-color="#FF7044"/>
</linearGradient>
<linearGradient id="paint17_linear_298_7812" x1="15.3371" y1="80.578" x2="11.928" y2="72.3336" gradientUnits="userSpaceOnUse">
<stop stop-color="#FFD945" stop-opacity="0"/>
<stop offset="1" stop-color="#FBED21"/>
</linearGradient>
<linearGradient id="paint18_linear_298_7812" x1="15.3728" y1="71.5559" x2="15.3728" y2="80.1059" gradientUnits="userSpaceOnUse">
<stop stop-color="#FFD945"/>
<stop offset="0.3043" stop-color="#FFCD3E"/>
<stop offset="0.8558" stop-color="#FFAD2B"/>
<stop offset="1" stop-color="#FFA325"/>
</linearGradient>
<linearGradient id="paint19_linear_298_7812" x1="15.373" y1="71.6799" x2="15.373" y2="86.059" gradientUnits="userSpaceOnUse">
<stop stop-color="#E87264" stop-opacity="0"/>
<stop offset="1" stop-color="#FF7044"/>
</linearGradient>
<linearGradient id="paint20_linear_298_7812" x1="15.373" y1="71.6798" x2="15.373" y2="86.059" gradientUnits="userSpaceOnUse">
<stop stop-color="#E87264" stop-opacity="0"/>
<stop offset="1" stop-color="#FF7044"/>
</linearGradient>
<linearGradient id="paint21_linear_298_7812" x1="15.3371" y1="73.9834" x2="11.928" y2="65.7392" gradientUnits="userSpaceOnUse">
<stop stop-color="#FFD945" stop-opacity="0"/>
<stop offset="1" stop-color="#FBED21"/>
</linearGradient>
<linearGradient id="paint22_linear_298_7812" x1="15.3728" y1="64.9614" x2="15.3728" y2="73.5115" gradientUnits="userSpaceOnUse">
<stop stop-color="#FFD945"/>
<stop offset="0.3043" stop-color="#FFCD3E"/>
<stop offset="0.8558" stop-color="#FFAD2B"/>
<stop offset="1" stop-color="#FFA325"/>
</linearGradient>
<linearGradient id="paint23_linear_298_7812" x1="15.373" y1="65.0854" x2="15.373" y2="79.4645" gradientUnits="userSpaceOnUse">
<stop stop-color="#E87264" stop-opacity="0"/>
<stop offset="1" stop-color="#FF7044"/>
</linearGradient>
<linearGradient id="paint24_linear_298_7812" x1="15.373" y1="65.0854" x2="15.373" y2="79.4645" gradientUnits="userSpaceOnUse">
<stop stop-color="#E87264" stop-opacity="0"/>
<stop offset="1" stop-color="#FF7044"/>
</linearGradient>
<linearGradient id="paint25_linear_298_7812" x1="15.3371" y1="67.3889" x2="11.928" y2="59.1446" gradientUnits="userSpaceOnUse">
<stop stop-color="#FFD945" stop-opacity="0"/>
<stop offset="1" stop-color="#FBED21"/>
</linearGradient>
<linearGradient id="paint26_linear_298_7812" x1="15.3728" y1="58.3671" x2="15.3728" y2="66.9171" gradientUnits="userSpaceOnUse">
<stop stop-color="#FFD945"/>
<stop offset="0.3043" stop-color="#FFCD3E"/>
<stop offset="0.8558" stop-color="#FFAD2B"/>
<stop offset="1" stop-color="#FFA325"/>
</linearGradient>
<linearGradient id="paint27_linear_298_7812" x1="15.373" y1="58.4911" x2="15.373" y2="72.8702" gradientUnits="userSpaceOnUse">
<stop stop-color="#E87264" stop-opacity="0"/>
<stop offset="1" stop-color="#FF7044"/>
</linearGradient>
<linearGradient id="paint28_linear_298_7812" x1="15.373" y1="58.491" x2="15.373" y2="72.8701" gradientUnits="userSpaceOnUse">
<stop stop-color="#E87264" stop-opacity="0"/>
<stop offset="1" stop-color="#FF7044"/>
</linearGradient>
<linearGradient id="paint29_linear_298_7812" x1="15.3371" y1="60.7945" x2="11.928" y2="52.5502" gradientUnits="userSpaceOnUse">
<stop stop-color="#FFD945" stop-opacity="0"/>
<stop offset="1" stop-color="#FBED21"/>
</linearGradient>
<linearGradient id="paint30_linear_298_7812" x1="15.3728" y1="51.7726" x2="15.3728" y2="60.3225" gradientUnits="userSpaceOnUse">
<stop stop-color="#FFD945"/>
<stop offset="0.3043" stop-color="#FFCD3E"/>
<stop offset="0.8558" stop-color="#FFAD2B"/>
<stop offset="1" stop-color="#FFA325"/>
</linearGradient>
<linearGradient id="paint31_linear_298_7812" x1="15.373" y1="51.8966" x2="15.373" y2="66.2757" gradientUnits="userSpaceOnUse">
<stop stop-color="#E87264" stop-opacity="0"/>
<stop offset="1" stop-color="#FF7044"/>
</linearGradient>
<linearGradient id="paint32_linear_298_7812" x1="15.373" y1="51.8966" x2="15.373" y2="66.2758" gradientUnits="userSpaceOnUse">
<stop stop-color="#E87264" stop-opacity="0"/>
<stop offset="1" stop-color="#FF7044"/>
</linearGradient>
<linearGradient id="paint33_linear_298_7812" x1="15.3371" y1="54.2001" x2="11.928" y2="45.9557" gradientUnits="userSpaceOnUse">
<stop stop-color="#FFD945" stop-opacity="0"/>
<stop offset="1" stop-color="#FBED21"/>
</linearGradient>
<linearGradient id="paint34_linear_298_7812" x1="15.3728" y1="45.178" x2="15.3728" y2="53.728" gradientUnits="userSpaceOnUse">
<stop stop-color="#FFD945"/>
<stop offset="0.3043" stop-color="#FFCD3E"/>
<stop offset="0.8558" stop-color="#FFAD2B"/>
<stop offset="1" stop-color="#FFA325"/>
</linearGradient>
<linearGradient id="paint35_linear_298_7812" x1="15.373" y1="45.302" x2="15.373" y2="59.6813" gradientUnits="userSpaceOnUse">
<stop stop-color="#E87264" stop-opacity="0"/>
<stop offset="1" stop-color="#FF7044"/>
</linearGradient>
<linearGradient id="paint36_linear_298_7812" x1="15.373" y1="45.302" x2="15.373" y2="59.6813" gradientUnits="userSpaceOnUse">
<stop stop-color="#E87264" stop-opacity="0"/>
<stop offset="1" stop-color="#FF7044"/>
</linearGradient>
<linearGradient id="paint37_linear_298_7812" x1="15.3371" y1="47.6057" x2="11.928" y2="39.3613" gradientUnits="userSpaceOnUse">
<stop stop-color="#FFD945" stop-opacity="0"/>
<stop offset="1" stop-color="#FBED21"/>
</linearGradient>
<linearGradient id="paint38_linear_298_7812" x1="99.6225" y1="75.5491" x2="82.1401" y2="70.0469" gradientUnits="userSpaceOnUse">
<stop stop-color="#3F3CED" stop-opacity="0"/>
<stop offset="0.2796" stop-color="#3C3DE4" stop-opacity="0.28"/>
<stop offset="0.7305" stop-color="#3541CC" stop-opacity="0.731"/>
<stop offset="1" stop-color="#2F43BB"/>
</linearGradient>
<linearGradient id="paint39_linear_298_7812" x1="50.0037" y1="66.9948" x2="68.9831" y2="115.011" gradientUnits="userSpaceOnUse">
<stop stop-color="#4AB272"/>
<stop offset="1" stop-color="#077565"/>
</linearGradient>
<linearGradient id="paint40_linear_298_7812" x1="56.4157" y1="82.1347" x2="19.9168" y2="3.62167" gradientUnits="userSpaceOnUse">
<stop stop-color="#92F37F" stop-opacity="0"/>
<stop offset="1" stop-color="#FFEE83"/>
</linearGradient>
<linearGradient id="paint41_linear_298_7812" x1="51.2167" y1="68.8835" x2="61.788" y2="100.95" gradientUnits="userSpaceOnUse">
<stop stop-color="#91F27F"/>
<stop offset="1" stop-color="#00B302"/>
</linearGradient>
<linearGradient id="paint42_linear_298_7812" x1="63.4819" y1="82.4427" x2="24.5598" y2="57.1433" gradientUnits="userSpaceOnUse">
<stop stop-color="#92F37F"/>
<stop offset="1" stop-color="#4AB272"/>
</linearGradient>
<linearGradient id="paint43_linear_298_7812" x1="62.6826" y1="82.6413" x2="35.3219" y2="70.5289" gradientUnits="userSpaceOnUse">
<stop stop-color="#4AB272" stop-opacity="0"/>
<stop offset="1" stop-color="#009245"/>
</linearGradient>
<linearGradient id="paint44_linear_298_7812" x1="52.3315" y1="74.8857" x2="62.9297" y2="82.0234" gradientUnits="userSpaceOnUse">
<stop stop-color="#4AB272"/>
<stop offset="1" stop-color="#077565"/>
</linearGradient>
<linearGradient id="paint45_linear_298_7812" x1="25.1437" y1="63.4345" x2="30.2034" y2="68.8992" gradientUnits="userSpaceOnUse">
<stop stop-color="#91F27F"/>
<stop offset="1" stop-color="#00B302"/>
</linearGradient>
<linearGradient id="paint46_linear_298_7812" x1="80.2741" y1="63.4345" x2="85.334" y2="68.8992" gradientUnits="userSpaceOnUse">
<stop stop-color="#91F27F"/>
<stop offset="1" stop-color="#00B302"/>
</linearGradient>
<linearGradient id="paint47_linear_298_7812" x1="25.1437" y1="86.713" x2="30.2034" y2="92.1777" gradientUnits="userSpaceOnUse">
<stop stop-color="#91F27F"/>
<stop offset="1" stop-color="#00B302"/>
</linearGradient>
<linearGradient id="paint48_linear_298_7812" x1="80.2741" y1="86.713" x2="85.334" y2="92.1777" gradientUnits="userSpaceOnUse">
<stop stop-color="#91F27F"/>
<stop offset="1" stop-color="#00B302"/>
</linearGradient>
<linearGradient id="paint49_linear_298_7812" x1="81.6632" y1="76.4988" x2="47.8041" y2="75.5314" gradientUnits="userSpaceOnUse">
<stop stop-color="#005A01" stop-opacity="0"/>
<stop offset="1" stop-color="#005A01"/>
</linearGradient>
<linearGradient id="paint50_linear_298_7812" x1="44.7763" y1="69.2705" x2="76.9242" y2="93.8753" gradientUnits="userSpaceOnUse">
<stop stop-color="#FFD945"/>
<stop offset="0.3043" stop-color="#FFCD3E"/>
<stop offset="0.8558" stop-color="#FFAD2B"/>
<stop offset="1" stop-color="#FFA325"/>
</linearGradient>
<linearGradient id="paint51_linear_298_7812" x1="64.5145" y1="83.741" x2="35.0088" y2="63.6676" gradientUnits="userSpaceOnUse">
<stop stop-color="#FFD945" stop-opacity="0"/>
<stop offset="1" stop-color="#FBED21"/>
</linearGradient>
<linearGradient id="paint52_linear_298_7812" x1="60.29" y1="82.0587" x2="40.4281" y2="71.8104" gradientUnits="userSpaceOnUse">
<stop stop-color="#E87264" stop-opacity="0"/>
<stop offset="1" stop-color="#FF7044"/>
</linearGradient>
<linearGradient id="paint53_linear_298_7812" x1="41.8819" y1="68.7395" x2="55.6675" y2="76.9926" gradientUnits="userSpaceOnUse">
<stop stop-color="#FFD945"/>
<stop offset="0.3043" stop-color="#FFCD3E"/>
<stop offset="0.8558" stop-color="#FFAD2B"/>
<stop offset="1" stop-color="#FFA325"/>
</linearGradient>
<linearGradient id="paint54_linear_298_7812" x1="21.5911" y1="29.2578" x2="29.7148" y2="40.1349" gradientUnits="userSpaceOnUse">
<stop stop-color="#FFD945"/>
<stop offset="0.3043" stop-color="#FFCD3E"/>
<stop offset="0.8558" stop-color="#FFAD2B"/>
<stop offset="1" stop-color="#FFA325"/>
</linearGradient>
<linearGradient id="paint55_linear_298_7812" x1="11.9571" y1="17.972" x2="17.7019" y2="25.6638" gradientUnits="userSpaceOnUse">
<stop stop-color="#FFD945"/>
<stop offset="0.3043" stop-color="#FFCD3E"/>
<stop offset="0.8558" stop-color="#FFAD2B"/>
<stop offset="1" stop-color="#FFA325"/>
</linearGradient>
<linearGradient id="paint56_linear_298_7812" x1="38.8547" y1="11.5501" x2="44.5995" y2="19.2419" gradientUnits="userSpaceOnUse">
<stop stop-color="#FFD945"/>
<stop offset="0.3043" stop-color="#FFCD3E"/>
<stop offset="0.8558" stop-color="#FFAD2B"/>
<stop offset="1" stop-color="#FFA325"/>
</linearGradient>
<clipPath id="clip0_298_7812">
<rect width="104" height="104" fill="white"/>
</clipPath>
</defs>
</svg>
