<svg width="24" height="20" viewBox="0 0 24 20" fill="none" xmlns="http://www.w3.org/2000/svg">
<path fill-rule="evenodd" clip-rule="evenodd" d="M5.9999 2C6.31816 2 6.62339 2.10536 6.84843 2.29289C7.07347 2.48043 7.1999 2.73478 7.1999 3V4H8.3999C8.71816 4 9.02339 4.10536 9.24843 4.29289C9.47347 4.48043 9.5999 4.73478 9.5999 5C9.5999 5.26522 9.47347 5.51957 9.24843 5.70711C9.02339 5.89464 8.71816 6 8.3999 6H7.1999V7C7.1999 7.26522 7.07347 7.51957 6.84843 7.70711C6.62339 7.89464 6.31816 8 5.9999 8C5.68164 8 5.37642 7.89464 5.15137 7.70711C4.92633 7.51957 4.7999 7.26522 4.7999 7V6H3.5999C3.28164 6 2.97642 5.89464 2.75137 5.70711C2.52633 5.51957 2.3999 5.26522 2.3999 5C2.3999 4.73478 2.52633 4.48043 2.75137 4.29289C2.97642 4.10536 3.28164 4 3.5999 4H4.7999V3C4.7999 2.73478 4.92633 2.48043 5.15137 2.29289C5.37642 2.10536 5.68164 2 5.9999 2ZM5.9999 12C6.31816 12 6.62339 12.1054 6.84843 12.2929C7.07347 12.4804 7.1999 12.7348 7.1999 13V14H8.3999C8.71816 14 9.02339 14.1054 9.24843 14.2929C9.47347 14.4804 9.5999 14.7348 9.5999 15C9.5999 15.2652 9.47347 15.5196 9.24843 15.7071C9.02339 15.8946 8.71816 16 8.3999 16H7.1999V17C7.1999 17.2652 7.07347 17.5196 6.84843 17.7071C6.62339 17.8946 6.31816 18 5.9999 18C5.68164 18 5.37642 17.8946 5.15137 17.7071C4.92633 17.5196 4.7999 17.2652 4.7999 17V16H3.5999C3.28164 16 2.97642 15.8946 2.75137 15.7071C2.52633 15.5196 2.3999 15.2652 2.3999 15C2.3999 14.7348 2.52633 14.4804 2.75137 14.2929C2.97642 14.1054 3.28164 14 3.5999 14H4.7999V13C4.7999 12.7348 4.92633 12.4804 5.15137 12.2929C5.37642 12.1054 5.68164 12 5.9999 12ZM14.3999 2C14.6647 1.99993 14.9221 2.07286 15.132 2.20744C15.3419 2.34201 15.4925 2.53066 15.5603 2.744L16.9751 7.2L20.9999 9.134C21.1823 9.22177 21.3338 9.34801 21.4391 9.50002C21.5444 9.65204 21.5998 9.82447 21.5998 10C21.5998 10.1755 21.5444 10.348 21.4391 10.5C21.3338 10.652 21.1823 10.7782 20.9999 10.866L16.9751 12.801L15.5591 17.256C15.4912 17.4691 15.3406 17.6576 15.1309 17.792C14.9211 17.9264 14.6639 17.9993 14.3993 17.9993C14.1347 17.9993 13.8775 17.9264 13.6677 17.792C13.458 17.6576 13.3074 17.4691 13.2395 17.256L11.8247 12.8L7.7999 10.866C7.61749 10.7782 7.46602 10.652 7.36071 10.5C7.2554 10.348 7.19995 10.1755 7.19995 10C7.19995 9.82447 7.2554 9.65204 7.36071 9.50002C7.46602 9.34801 7.61749 9.22177 7.7999 9.134L11.8247 7.199L13.2407 2.744C13.3084 2.53083 13.4588 2.3423 13.6685 2.20774C13.8781 2.07318 14.1353 2.00015 14.3999 2Z" fill="#1EA0FF"/>
</svg>
