<svg width="17" height="13" viewBox="0 0 17 13" fill="none" xmlns="http://www.w3.org/2000/svg">
<path d="M16.3301 6.72559C16.6888 8.04915 16.8063 9.14388 16.6826 10.0098C16.5589 10.8757 16.194 11.5003 15.5879 11.8838C15.5384 11.9209 15.4766 11.9518 15.4023 11.9766C15.3281 11.9889 15.2539 11.9951 15.1797 11.9951C15.0931 11.9951 15.0065 11.9827 14.9199 11.958C14.8333 11.9209 14.7529 11.8714 14.6787 11.8096L12.1738 9.65723C12.0254 9.52116 11.8522 9.4222 11.6543 9.36035C11.4688 9.28613 11.277 9.24902 11.0791 9.24902H5.9209C5.72298 9.24902 5.52507 9.28613 5.32715 9.36035C5.1416 9.4222 4.97461 9.52116 4.82617 9.65723L2.32129 11.8096C2.19759 11.9209 2.04915 11.9827 1.87598 11.9951C1.7028 12.0075 1.54818 11.9704 1.41211 11.8838C0.80599 11.5003 0.441081 10.8757 0.317383 10.0098C0.193685 9.14388 0.311198 8.04915 0.669922 6.72559C0.818359 6.16895 0.991536 5.63086 1.18945 5.11133C1.38737 4.5918 1.57292 4.12793 1.74609 3.71973C1.93164 3.29915 2.09245 2.9528 2.22852 2.68066C2.36458 2.40853 2.45117 2.24154 2.48828 2.17969C2.48828 2.16732 2.49447 2.13639 2.50684 2.08691C2.51921 2.03743 2.53158 1.99414 2.54395 1.95703C2.60579 1.73438 2.66146 1.5612 2.71094 1.4375C2.76042 1.3138 2.84082 1.2334 2.95215 1.19629L5.04883 0.435547C5.17253 0.386068 5.30241 0.373698 5.43848 0.398438C5.58691 0.410807 5.72298 0.454102 5.84668 0.52832C5.95801 0.590169 6.08171 0.658203 6.21777 0.732422C6.36621 0.806641 6.46517 0.849935 6.51465 0.862305H7.34961C7.34961 0.948893 7.34961 1.02311 7.34961 1.08496C7.34961 1.14681 7.34961 1.1901 7.34961 1.21484C7.32487 1.28906 7.3125 1.36328 7.3125 1.4375C7.32487 1.51172 7.33724 1.57975 7.34961 1.6416C7.38672 1.86426 7.48568 2.05599 7.64648 2.2168C7.81966 2.36523 8.01139 2.45801 8.22168 2.49512C8.25879 2.50749 8.28971 2.51367 8.31445 2.51367C8.35156 2.51367 8.38249 2.51367 8.40723 2.51367C8.55566 2.51367 8.69792 2.48893 8.83398 2.43945C8.97005 2.3776 9.08757 2.2972 9.18652 2.19824C9.29785 2.08691 9.37826 1.9694 9.42773 1.8457C9.47721 1.70964 9.50195 1.56738 9.50195 1.41895C9.50195 1.38184 9.50195 1.35091 9.50195 1.32617C9.50195 1.28906 9.50195 1.25814 9.50195 1.2334C9.50195 1.20866 9.49577 1.16536 9.4834 1.10352C9.4834 1.04167 9.4834 0.961263 9.4834 0.862305H10.5596C10.609 0.849935 10.6895 0.812826 10.8008 0.750977C10.9245 0.676758 11.0482 0.602539 11.1719 0.52832C11.2832 0.454102 11.4069 0.410807 11.543 0.398438C11.6914 0.373698 11.8275 0.386068 11.9512 0.435547L14.0479 1.19629C14.1592 1.2334 14.2396 1.31999 14.2891 1.45605C14.3385 1.57975 14.3942 1.74674 14.4561 1.95703C14.4684 1.99414 14.4808 2.03743 14.4932 2.08691C14.5055 2.13639 14.5117 2.16732 14.5117 2.17969C14.5488 2.24154 14.6354 2.40853 14.7715 2.68066C14.9076 2.9528 15.0622 3.29915 15.2354 3.71973C15.4209 4.12793 15.6126 4.5918 15.8105 5.11133C16.0085 5.63086 16.1816 6.16895 16.3301 6.72559ZM2.93359 3.75684C2.93359 4.1403 3.06966 4.4681 3.3418 4.74023C3.61393 5 3.93555 5.12988 4.30664 5.12988C4.6901 5.12988 5.01172 5 5.27148 4.74023C5.54362 4.4681 5.67969 4.1403 5.67969 3.75684C5.67969 3.38574 5.54362 3.07031 5.27148 2.81055C5.01172 2.53841 4.6901 2.40234 4.30664 2.40234C3.93555 2.40234 3.61393 2.53841 3.3418 2.81055C3.06966 3.07031 2.93359 3.38574 2.93359 3.75684ZM8.48145 6.7627V6.05762C8.48145 5.93392 8.43197 5.82878 8.33301 5.74219C8.24642 5.64323 8.13509 5.59375 7.99902 5.59375H7.38672V4.96289C7.38672 4.83919 7.33724 4.73405 7.23828 4.64746C7.15169 4.5485 7.04036 4.49902 6.9043 4.49902H6.19922C6.07552 4.49902 5.96419 4.5485 5.86523 4.64746C5.77865 4.73405 5.73535 4.83919 5.73535 4.96289V5.59375H5.10449C4.98079 5.59375 4.86947 5.64323 4.77051 5.74219C4.68392 5.82878 4.64062 5.93392 4.64062 6.05762V6.7627C4.64062 6.89876 4.68392 7.01628 4.77051 7.11523C4.86947 7.20182 4.98079 7.24512 5.10449 7.24512H5.73535V7.85742C5.73535 7.99349 5.77865 8.111 5.86523 8.20996C5.96419 8.29655 6.07552 8.33984 6.19922 8.33984H6.9043C7.04036 8.33984 7.15169 8.29655 7.23828 8.20996C7.33724 8.111 7.38672 7.99349 7.38672 7.85742V7.24512H7.99902C8.13509 7.24512 8.24642 7.20182 8.33301 7.11523C8.43197 7.01628 8.48145 6.89876 8.48145 6.7627ZM12.5264 2.12402C12.3656 2.12402 12.2295 2.17969 12.1182 2.29102C12.0192 2.38997 11.9697 2.51367 11.9697 2.66211C11.9697 2.82292 12.0192 2.95898 12.1182 3.07031C12.2295 3.16927 12.3656 3.21875 12.5264 3.21875C12.6748 3.21875 12.7985 3.16927 12.8975 3.07031C13.0088 2.95898 13.0645 2.82292 13.0645 2.66211C13.0645 2.51367 13.0088 2.38997 12.8975 2.29102C12.7985 2.17969 12.6748 2.12402 12.5264 2.12402ZM11.4316 3.21875C11.2708 3.21875 11.1348 3.27441 11.0234 3.38574C10.9245 3.4847 10.875 3.6084 10.875 3.75684C10.875 3.91764 10.9245 4.05371 11.0234 4.16504C11.1348 4.264 11.2708 4.31348 11.4316 4.31348C11.5801 4.31348 11.7038 4.264 11.8027 4.16504C11.9141 4.05371 11.9697 3.91764 11.9697 3.75684C11.9697 3.6084 11.9141 3.4847 11.8027 3.38574C11.7038 3.27441 11.5801 3.21875 11.4316 3.21875ZM10.5967 7.87598C10.9801 7.87598 11.3018 7.74609 11.5615 7.48633C11.8337 7.21419 11.9697 6.88639 11.9697 6.50293C11.9697 6.13184 11.8337 5.81022 11.5615 5.53809C11.3018 5.26595 10.9801 5.12988 10.5967 5.12988C10.2256 5.12988 9.90397 5.26595 9.63184 5.53809C9.37207 5.81022 9.24219 6.13184 9.24219 6.50293C9.24219 6.88639 9.37207 7.21419 9.63184 7.48633C9.90397 7.74609 10.2256 7.87598 10.5967 7.87598ZM12.5264 5.4082C12.6748 5.4082 12.7985 5.35872 12.8975 5.25977C13.0088 5.14844 13.0645 5.01855 13.0645 4.87012C13.0645 4.70931 13.0088 4.57943 12.8975 4.48047C12.7985 4.36914 12.6748 4.31348 12.5264 4.31348C12.3656 4.31348 12.2295 4.36914 12.1182 4.48047C12.0192 4.57943 11.9697 4.70931 11.9697 4.87012C11.9697 5.01855 12.0192 5.14844 12.1182 5.25977C12.2295 5.35872 12.3656 5.4082 12.5264 5.4082ZM13.6211 4.31348C13.7695 4.31348 13.8932 4.264 13.9922 4.16504C14.1035 4.05371 14.1592 3.91764 14.1592 3.75684C14.1592 3.6084 14.1035 3.4847 13.9922 3.38574C13.8932 3.27441 13.7695 3.21875 13.6211 3.21875C13.4603 3.21875 13.3242 3.27441 13.2129 3.38574C13.1139 3.4847 13.0645 3.6084 13.0645 3.75684C13.0645 3.91764 13.1139 4.05371 13.2129 4.16504C13.3242 4.264 13.4603 4.31348 13.6211 4.31348ZM5.12305 3.75684C5.12305 3.53418 5.04264 3.34245 4.88184 3.18164C4.7334 3.02083 4.54167 2.94043 4.30664 2.94043C4.08398 2.94043 3.89225 3.02083 3.73145 3.18164C3.57064 3.34245 3.49023 3.53418 3.49023 3.75684C3.49023 3.99186 3.57064 4.18978 3.73145 4.35059C3.89225 4.51139 4.08398 4.5918 4.30664 4.5918C4.54167 4.5918 4.7334 4.51139 4.88184 4.35059C5.04264 4.18978 5.12305 3.99186 5.12305 3.75684ZM6.83008 5.03711V6.13184H7.9248V6.68848H6.83008V7.7832H6.29199V6.68848H5.19727V6.13184H6.29199V5.03711H6.83008ZM8.31445 1.95703C8.21549 1.94466 8.12272 1.90137 8.03613 1.82715C7.94954 1.74056 7.90007 1.6416 7.8877 1.53027C7.87533 1.49316 7.86914 1.45605 7.86914 1.41895C7.86914 1.38184 7.87533 1.34473 7.8877 1.30762C7.8877 1.29525 7.8877 1.27051 7.8877 1.2334C7.8877 1.18392 7.8877 1.06022 7.8877 0.862305H8.94531C8.94531 1.07259 8.94531 1.20247 8.94531 1.25195C8.94531 1.28906 8.94531 1.30762 8.94531 1.30762C8.95768 1.33236 8.96387 1.3571 8.96387 1.38184C8.96387 1.39421 8.96387 1.40658 8.96387 1.41895C8.96387 1.49316 8.94531 1.56738 8.9082 1.6416C8.88346 1.70345 8.84635 1.75911 8.79688 1.80859C8.73503 1.87044 8.66081 1.91374 8.57422 1.93848C8.5 1.96322 8.41341 1.9694 8.31445 1.95703ZM11.4316 6.50293C11.4316 6.28027 11.3512 6.08854 11.1904 5.92773C11.0296 5.76693 10.8317 5.68652 10.5967 5.68652C10.374 5.68652 10.1823 5.76693 10.0215 5.92773C9.86068 6.08854 9.78027 6.28027 9.78027 6.50293C9.78027 6.73796 9.86068 6.93587 10.0215 7.09668C10.1823 7.25749 10.374 7.33789 10.5967 7.33789C10.8317 7.33789 11.0296 7.25749 11.1904 7.09668C11.3512 6.93587 11.4316 6.73796 11.4316 6.50293Z" fill="#9BA7D6"/>
</svg>
