<svg width="21" height="21" viewBox="0 0 21 21" fill="none" xmlns="http://www.w3.org/2000/svg">
<path d="M10.542 0.5C5.01899 0.5 0.541992 4.977 0.541992 10.5C0.541992 16.023 5.01899 20.5 10.542 20.5C16.065 20.5 20.542 16.023 20.542 10.5C20.542 4.977 16.064 0.5 10.542 0.5ZM9.79199 16.25L4.79199 12.5L6.29199 10.5L9.29199 12.75L14.542 5.75L16.542 7.25L9.79199 16.25Z" fill="#55A548"/>
<path d="M10.542 0.5C5.01899 0.5 0.541992 4.977 0.541992 10.5C0.541992 16.023 5.01899 20.5 10.542 20.5C16.065 20.5 20.542 16.023 20.542 10.5C20.542 4.977 16.064 0.5 10.542 0.5ZM9.79199 16.25L4.79199 12.5L6.29199 10.5L9.29199 12.75L14.542 5.75L16.542 7.25L9.79199 16.25Z" fill="url(#paint0_radial_130_5369)"/>
<defs>
<radialGradient id="paint0_radial_130_5369" cx="0" cy="0" r="1" gradientUnits="userSpaceOnUse" gradientTransform="translate(8.37983 2.26471) rotate(83.238) scale(18.363 19.3144)">
<stop stop-color="#7CD266"/>
<stop offset="1" stop-color="#7CD266" stop-opacity="0"/>
</radialGradient>
</defs>
</svg>
