<svg width="24" height="22" viewBox="0 0 24 22" fill="none" xmlns="http://www.w3.org/2000/svg">
<path d="M9.70868 1.12882C7.83613 1.49396 6.09991 2.30065 4.67159 3.46919C3.24327 4.63772 2.17228 6.12765 1.56443 7.79176C0.956593 9.45587 0.832941 11.2366 1.2057 12.9579C1.57845 14.6792 2.43472 16.2816 3.68988 17.6067C3.83939 17.7715 3.92778 17.9756 3.94227 18.1896C3.95675 18.4035 3.89658 18.6161 3.77045 18.7966L3.26483 19.5433C3.16146 19.696 3.10449 19.8713 3.09981 20.0509C3.09513 20.2306 3.14292 20.4081 3.23822 20.5652C3.33353 20.7222 3.47289 20.8531 3.64188 20.9442C3.81087 21.0353 4.00335 21.0833 4.1994 21.0833H11.684C14.5275 21.1115 17.2764 20.1479 19.3739 18.3878C21.4713 16.6276 22.7607 14.2025 22.9806 11.6037C23.0812 10.0529 22.7899 8.50178 22.1294 7.07107C21.469 5.64037 20.4573 4.36871 19.173 3.35508C17.8887 2.34145 16.3665 1.61322 14.7249 1.22708C13.0834 0.84094 11.3667 0.807314 9.70868 1.12882ZM8.99994 12.8333C8.99994 13.0764 8.89458 13.3096 8.70705 13.4815C8.51951 13.6534 8.26516 13.75 7.99994 13.75C7.73472 13.75 7.48037 13.6534 7.29283 13.4815C7.1053 13.3096 6.99994 13.0764 6.99994 12.8333V9.16666C6.99994 8.92354 7.1053 8.69038 7.29283 8.51848C7.48037 8.34657 7.73472 8.24999 7.99994 8.24999C8.26516 8.24999 8.51951 8.34657 8.70705 8.51848C8.89458 8.69038 8.99994 8.92354 8.99994 9.16666V12.8333ZM12.9999 14.6667C12.9999 14.9098 12.8946 15.1429 12.707 15.3148C12.5195 15.4867 12.2652 15.5833 11.9999 15.5833C11.7347 15.5833 11.4804 15.4867 11.2928 15.3148C11.1053 15.1429 10.9999 14.9098 10.9999 14.6667V7.33332C10.9999 7.09021 11.1053 6.85705 11.2928 6.68514C11.4804 6.51323 11.7347 6.41666 11.9999 6.41666C12.2652 6.41666 12.5195 6.51323 12.707 6.68514C12.8946 6.85705 12.9999 7.09021 12.9999 7.33332V14.6667ZM16.9999 12.8333C16.9999 13.0764 16.8946 13.3096 16.707 13.4815C16.5195 13.6534 16.2652 13.75 15.9999 13.75C15.7347 13.75 15.4804 13.6534 15.2928 13.4815C15.1053 13.3096 14.9999 13.0764 14.9999 12.8333V9.16666C14.9999 8.92354 15.1053 8.69038 15.2928 8.51848C15.4804 8.34657 15.7347 8.24999 15.9999 8.24999C16.2652 8.24999 16.5195 8.34657 16.707 8.51848C16.8946 8.69038 16.9999 8.92354 16.9999 9.16666V12.8333Z" fill="#828DB9"/>
</svg>
